<svg xmlns="http://www.w3.org/2000/svg" version="1.1" viewBox="0 0 100 100">
 <path fill="currentColor" d="m86.84 25.629c-7.125 0.30078-14.219 1.1602-21.211 2.5703 1.2188 1.3633 2.5039 2.668 3.8516 3.9023 4.7148-0.6875 9.4727-1.0547 14.238-1.1016l3.1211-5.3906zm-36.109 58.141 1.1602-4.3906c-1.25 0.24219-2.5312 0.24219-3.7812 0l1.1602 4.3906c0.09375 0.32422 0.39062 0.55078 0.73047 0.55078s0.63672-0.22656 0.73047-0.55078zm4.2695-55.508c0.39062-0.49609 0.64453-1.0859 0.73828-1.7109l0.33984-2.2188v-0.003906c0.17969-1.0391-0.125-2.1055-0.82812-2.8984-0.23828-0.27734-0.51172-0.51563-0.82031-0.71094 1.0742-1.1641 2.3242-2.1602 3.6992-2.9492 0.53516-0.31641 0.71484-1 0.41016-1.5391-0.14844-0.26172-0.39453-0.44922-0.68359-0.52734-0.28906-0.078125-0.59766-0.035156-0.85547 0.11719-1.9492 1.1211-3.668 2.6016-5.0703 4.3594h-2.7578c-1.4023-1.7578-3.1211-3.2383-5.0703-4.3594-0.25781-0.14844-0.56641-0.1875-0.85156-0.11328-0.28516 0.078125-0.53125 0.26562-0.67969 0.52344-0.30078 0.54297-0.10937 1.2305 0.42969 1.5391 1.375 0.78906 2.625 1.7852 3.6992 2.9492-0.30469 0.19531-0.58203 0.43359-0.82031 0.71094-0.69922 0.79297-1.0039 1.8594-0.82812 2.8984l0.33984 2.2188v0.003906c0.09375 0.625 0.34766 1.2148 0.73828 1.7109 2.7148-1.7227 6.1758-1.7227 8.8906 0zm-4.4414 1c3.8008 0 6.8789 3.6602 6.8789 8.1719 0 4.5117-3.0781 8.1797-6.8789 8.1797-3.8008 0-6.8906-3.6602-6.8906-8.1797 0-4.5195 3.0781-8.1719 6.8906-8.1719zm-0.55859 48.039c1.9883-0.023437 3.9102-0.73047 5.4414-2-3.6094-0.53906-7.2734-0.53906-10.883 0 1.5352 1.2617 3.4531 1.9688 5.4414 2zm7.3984-4c0.78516-0.98438 1.457-2.0547 2-3.1914-3.0703-0.77734-6.2305-1.168-9.3984-1.168-3.1758 0.007813-6.3359 0.41406-9.4102 1.207 0.54297 1.1367 1.2148 2.207 2 3.1914 4.8867-0.94141 9.9062-0.94141 14.789 0zm2.8906-5.2812c0.44531-1.25 0.77734-2.5391 1-3.8477-7.3516-2.2969-15.227-2.2969-22.578 0 0.21875 1.3086 0.55469 2.5977 1 3.8477 3.3594-0.87891 6.8164-1.3242 10.289-1.3281 3.4727 0.007813 6.9336 0.46484 10.289 1.3594zm1.2812-6.1094c0.058594-0.69141 0.089844-1.3984 0.089844-2.1211 0-0.71875 0-1.3398-0.078125-2h-0.003906c-7.5312-2.4141-15.625-2.4141-23.156 0-0.050781 0.64844-0.078125 1.3086-0.078125 2 0 0.69141 0 1.4297 0.089844 2.1211h-0.003906c7.5469-2.2812 15.594-2.2812 23.141 0zm-0.28906-6.5391c-0.26953-1.5234-0.69922-3.0117-1.2812-4.4414-6.5664-1.8398-13.512-1.8398-20.078 0-0.57031 1.4414-0.98828 2.9414-1.2422 4.4688 7.3633-2.1719 15.199-2.1719 22.559 0zm-2.5-7.1016c-0.63281-1.0898-1.3945-2.0938-2.2695-3-0.96094 0.97266-2.1367 1.6992-3.4336 2.1211 1.9219 0.15625 3.8242 0.44531 5.7031 0.87109zm-14.699-3.5508h-0.003906c-1.1328 1.0234-2.0938 2.2227-2.8477 3.5508 2.1719-0.49219 4.3828-0.80469 6.6094-0.92969-1.4648-0.52344-2.7617-1.4258-3.7617-2.6211zm-10.41 9.4023c-3.4414 5-7.6289 9.3398-13.469 7.7812l-0.003906-0.003906c-2.7578-0.74609-5.1172-2.5391-6.5781-5l0.58984 0.17187c2.9492 0.81641 6.1133 0.22656 8.5703-1.6016 2.2422-1.6797 4.1797-3.7344 5.7305-6.0703 3.582-0.67578 7.0938-1.6914 10.488-3.0273l-5.3594 7.75zm-8.3516-4.1914c-2.0156 0.27734-4.0469 0.41406-6.082 0.42187-2.5391 0-5-0.37891-6.7891-2v0.10938c-0.47656 1.8242-0.47656 3.7422 0 5.5703 0.77734 0.36719 1.5781 0.67969 2.4023 0.92969 2.3125 0.63281 4.7891 0.16406 6.707-1.2695 1.4453-1.0508 2.7344-2.3047 3.8203-3.7227zm-12.16-24.09c7.125 0.29297 14.219 1.1523 21.211 2.5703-1.2188 1.3594-2.5039 2.6602-3.8516 3.8906-4.7188-0.67188-9.4727-1.0273-14.238-1.0703zm23.691 3.0898c-1.0508 1.1602-2.3281 2.5195-3.5898 3.7891 2.8516 0.46094 5.7109 1 8.5586 1.6602 0.36719-1.3633 0.98047-2.6484 1.8086-3.7891l-0.21875-0.058594c-2.1992-0.58984-4.3789-1.1211-6.5586-1.6016zm5.7383 13.551c-6.1758 3.1211-12.887 5.0391-19.781 5.6602l-1.7617-6.5703c3-1.1094 6.8281-4 9.0781-5.9297 0.33984-0.28906 0.71094-0.60938 1.1016-1 3.3867 0.51172 6.793 1.1602 10.219 1.9414v0.78125l0.003907-0.003906c0.003906 1.7617 0.40234 3.5039 1.1719 5.0898zm-22.078 5.8008-1.6328-6.082-6.8789 1.8008 1.1914 1.8984c1.2812 2.0586 3.5781 2.3711 6 2.3711h1.2695zm-9.7227-6.2812c3-0.76953 7.25-1.5781 9.9297-2.7617 2.7148-1.3438 5.2461-3.0234 7.543-5-4.0938-0.50781-8.2109-0.76953-12.332-0.78906l-7.7109 4.4805zm-3.7891-6 7.0703-4.0781-3.5703-6.1797v-0.003907c-1.9336-0.035156-3.7422 0.94922-4.7617 2.5898-1.1094 1.7422-1.1094 3.9688 0 5.7109zm59.301 18.102-5.3008-7.7305c3.4023 1.3438 6.9258 2.3633 10.52 3.0508 1.5508 2.332 3.4883 4.3867 5.7305 6.0664 2.457 1.8281 5.6211 2.418 8.5703 1.6016l0.58984-0.17188v0.003906c-1.4609 2.457-3.8203 4.25-6.582 5-5.8398 1.5586-10-2.8086-13.469-7.7812zm8.3516-4.1914h-0.003906c1.0898 1.418 2.375 2.668 3.8203 3.7188 1.9219 1.4375 4.3984 1.9062 6.7109 1.2695 0.82422-0.24219 1.6289-0.54297 2.4102-0.89844 0.48828-1.8398 0.48828-3.7734 0-5.6094v-0.10938c-1.7891 1.6602-4.25 2-6.7891 2-2.0352-0.003906-4.0664-0.14453-6.082-0.42188zm-11.504-21.191c1.0508 1.1719 2.3281 2.5312 3.5898 3.7891-2.5195 0.41016-5 0.89844-7.5703 1.4492l0.003906 0.003907c-0.41797-1.3789-1.0977-2.668-2-3.7891 2-0.51953 4-1 6-1.4492zm-4.7812 14h0.003906c0.85938-1.6562 1.3125-3.5 1.3203-5.3672 0-0.41406-0.023437-0.82422-0.070312-1.2305 3.0586-0.67188 6.1094-1.2383 9.1484-1.6914l1.1016 1c2.3281 2 6.1289 4.8203 9.0781 5.9297l-1.7617 6.5703h0.003906c-6.5312-0.59375-12.906-2.3516-18.82-5.1797zm21.121 5.3086h1.2695c2.4297 0 4.7305-0.30859 6-2.3711l1.2422-1.8281-6.8789-1.8281-1.6289 6.0781zm9.7188-6.2305 2.5703-4.1211-7.7109-4.4492 0.003906 0.003907c-4.1211 0.019531-8.2383 0.28906-12.332 0.80078 2.3008 1.9688 4.832 3.6484 7.543 5 2.6797 1.1797 6.9219 2 9.9297 2.7617zm3.7617-6-7.0703-4.0664 3.5703-6.1719c1.9297-0.035156 3.7383 0.94531 4.7617 2.582 1.1094 1.7422 1.1094 3.9688 0 5.7109z" fill-rule="evenodd"/>
</svg>
