<?xml version="1.0" encoding="UTF-8"?>
<svg id="Layer_1" xmlns="http://www.w3.org/2000/svg" version="1.1" viewBox="0 0 110 135">
  <!-- Generator: Adobe Illustrator 30.3.0, SVG Export Plug-In . SVG Version: 2.1.3 Build 182)  -->
  <path d="M29.97,72.15c-2.44-.73-3.84-3.31-3.11-5.75.73-2.45,3.31-3.84,5.75-3.11,2.44.73,3.84,3.31,3.11,5.75-.73,2.44-3.31,3.84-5.75,3.11ZM21.42,70.62c-.26-3.12.74-6.21,2.54-8.73,1.31-1.84,3.05-3.38,5.08-4.38l.35-.17.06.38c.09.57.14,1.15.14,1.73,0,.93,1.4.93,1.4,0s-.1-1.69-.28-2.62c1.14-.34,2.06-.53,3.31-.53,4.94,0,8.53,3.64,8.94,8.59.26,3.12-.74,6.21-2.54,8.73-1.48,2.08-3.52,3.78-5.89,4.75-6.27,2.55-12.54-.9-13.1-7.75h0ZM31.28,73.75c4.55,0,7.48-4.89,5.3-8.9-.77-1.42-2.04-2.45-3.58-2.91-3.18-.95-6.55.88-7.5,4.06-1.14,3.86,1.77,7.75,5.78,7.75h0ZM34.82,82.42c-.5-.55-.92-1.07-1.24-1.53-3.63,2.88-5.04,7.59-4.2,14.03.07.55.57.92,1.11.85.54-.07.92-.57.85-1.11-.75-5.79.39-9.8,3.49-12.25h0ZM22.58,60.91s.43-.53,1.3-1.59c-3.96-3.32-9.97-2.74-13.2,1.39-.51.65-.02,1.59.78,1.59.67,0,.85-.56,1.52-1.19,2.71-2.55,6.88-2.62,9.66-.27-.02.02-.03.04-.05.07h0ZM48.36,54.8h.17c4.56-7.09,10.4-12.59,17.91-16.38l.13-.14c1.62-3.66,2.66-7.77,2.1-11.79-.46-3.32-1.89-8-5.52-9.06-3.8-1.11-7.77,2.35-10.04,4.99-5.7,6.65-9.84,14.37-10.95,23.15-.43,3.41-.38,6.51.05,9.92,2.12-.61,3.95-.86,6.14-.69h0ZM16.8,48.71c.54-.08,1.09-.12,1.63-.12,4.71,0,8.74,3.02,10.23,7.23,1.23-.46,1.85-.69,1.85-.69-2.03-5.66-7.84-9.31-14.01-8.37-1.28.2-.99,2.14.3,1.95h0ZM98.89,38.54c-2.11-4.48-8.46-4.7-12.8-4.23-16.65,1.82-30,9.37-38.13,24.22-1.11,2.02.22,4.49,2.52,4.68,5.79.49,11.79.32,17.56-.43,8.61-1.11,19.45-3.91,25.84-10.14,2.09-2.04,3.96-4.58,4.96-7.34.77-2.15,1.06-4.64.05-6.77h0ZM43.76,87.49c.6,5.59-2.84,9.31-8.85,11.84-.99.41-.68,1.9.38,1.9.12,0,.26-.02.38-.08,6.64-2.79,10.56-7.12,10.09-13.38-.64,0-1.3-.09-2-.29h0ZM75.07,69.67c.62-2.31.79-4.38.37-6.73-4.52,1.01-8.58,1.52-13.22,1.8l.14.36c2.62,6.57.69,14.13-4.81,18.68l-.21.18c.55.72.99,1.24,1.66,1.88l.1.09c7.61-1.1,14.06-9.18,15.97-16.26h0ZM86.86,70.2l-.05,1.16c-.36,7.77-5.68,15.75-12.51,19.38l-.91.49,1.04.05c3.19.14,6.53-.1,9.64-.79,1.77-.39,4.54-1.18,5.95-2.42.1-.09.16-.21.16-.34.17-5.53-.49-11.41-2.83-16.47l-.48-1.05ZM85.11,67.5l-.05-.11c-1.64-2.21-3.7-4.02-6.17-5.25l-.1-.05-1.73.46-.26.07.05.26c.92,4.93-1.12,10.41-3.79,14.49-2.76,4.22-6.99,8.19-11.94,9.57l-.6.17.52.34c2.71,1.81,5.97,2.84,9.16,3.38h.12c8.96-2.39,16.74-13.88,14.79-23.33h0ZM54.33,86.19c2.72,5.8.41,10.58-5.34,14.81-.77.57-.36,1.78.58,1.78.2,0,.41-.06.58-.19,6.56-4.83,9.13-10.62,5.89-17.36-.43.32-1.01.64-1.72.96h0ZM53.79,84.57c-1.19-1.91-2.36-3.34-3.94-4.95-.65-.66.36-1.64,1-.98,1.66,1.69,2.91,3.23,4.15,5.25l.25-.16c4.27-2.77,6.86-7.48,6.86-12.58,0-2.28-.46-4.27-1.4-6.34-3.48.14-6.86.1-10.34-.2-3.3-.28-5.23-3.85-3.63-6.76l.96-1.7c-2.66,0-4.24.27-6.77,1.33l.3.3c1.9,1.87,2.91,4.34,3.13,6.98.29,3.45-.8,6.87-2.8,9.67-1.61,2.27-3.82,4.1-6.39,5.18l-.33.14.21.29c2.03,2.76,4.92,4.74,8.23,5.61l.47.12c-.7-2.68-1.6-4.64-3.03-7.02-.48-.79.73-1.52,1.21-.72,1.52,2.54,2.7,5.08,3.3,8,2.9.32,5.58-.05,8.26-1.31l.29-.14Z"/>
</svg>