<svg xmlns="http://www.w3.org/2000/svg" xmlns:xlink="http://www.w3.org/1999/xlink" version="1.1" x="0px" y="0px" viewBox="0 0 100 125" enable-background="new 0 0 100 100" xml:space="preserve"><g><path d="M10.141,6.642c-0.285,0.107-0.65,0.293-1.037,0.49C8.165,7.611,7.05,8.18,6.033,8.18c-0.327,0-0.644-0.059-0.942-0.198   C5.059,7.968,5.03,7.94,5,7.923v11.071c0.174-0.006,0.351-0.024,0.528-0.044c0.667-0.071,1.419-0.152,2.096,0.382   c0.988,0.781,1.449,2.302,1.855,3.643c0.182,0.6,0.354,1.167,0.552,1.606c0.695,1.541,1.552,3.297,2.926,4.638   c1.284,1.254,2.871,1.847,4.551,2.475c0.516,0.193,1.036,0.387,1.552,0.603c0.547,0.228,1.074,0.507,1.583,0.777   c0.377,0.2,0.753,0.4,1.135,0.577c0.796,0.369,1.194,0.794,1.656,1.288c0.14,0.149,0.29,0.31,0.465,0.484   c0.313,0.311,0.644,0.59,0.973,0.869c0.387,0.328,0.787,0.666,1.158,1.052l0.438,0.45c0.735,0.752,1.429,1.463,2.05,2.391   c0.652,0.974,1.066,1.912,1.505,2.904c0.179,0.405,0.36,0.815,0.562,1.234c0.575,1.195,0.699,2.13,0.843,3.212   c0.041,0.306,0.083,0.63,0.14,0.985c0.471,2.97-0.14,5.466-0.787,8.109c-0.24,0.979-0.488,1.993-0.679,3.04   c-0.418,2.296-0.752,4.69-0.993,7.115c-0.044,0.449-0.107,0.898-0.169,1.348c-0.13,0.931-0.252,1.811-0.22,2.703   c0.03,0.814,0.232,1.626,0.446,2.484c0.136,0.546,0.276,1.11,0.369,1.678c0.074,0.455,0.162,0.93,0.251,1.417   c0.446,2.425,0.951,5.172,0.265,7.536c-0.29,1-0.902,1.72-1.771,2.081c-0.451,0.188-0.938,0.267-1.431,0.267   c-1.052,0-2.128-0.362-2.932-0.802c-1.062-0.58-1.64-1.532-2.198-2.453c-0.456-0.751-0.886-1.461-1.551-1.92   c-0.685-0.47-1.359-0.275-2.404,0.082c-0.877,0.301-1.871,0.641-2.947,0.305c-1.764-0.549-2.473-2.472-3.042-4.017   c-0.08-0.216-0.157-0.426-0.234-0.625c-0.797-2.045-1.427-3.66-1.331-6.133c0.086-2.228,0.505-4.182,1.283-5.975   c0.675-1.557,1.717-2.253,2.724-2.926c0.515-0.344,1.047-0.699,1.556-1.18c1.035-0.979,1.584-2.716,1.277-4.039   c-0.535-2.306-0.636-4.029-0.351-5.949l0.072-0.481c0.354-2.356,0.757-5.028,0.205-7.274c-0.83-3.372-3.125-7.896-5.909-10.02   c-1.418-1.083-3.235-1.571-4.992-2.042C5.715,30.753,5.356,30.655,5,30.554v4.988l0.378,0.375c1.39,1.118,2.817,2.348,4.03,3.929   c2.194,2.861,3.567,5.738,4.082,8.553c0.589,3.221-0.191,6.178-1.114,9.175c-0.426,1.385-0.994,2.739-1.543,4.05L10.43,62.59   c-0.71,1.725-1.109,2.791-1.027,4.648c0.052,1.189-0.133,2.368-0.312,3.508c-0.188,1.197-0.365,2.328-0.296,3.481   c0.094,1.566,0.588,2.972,1.112,4.46c0.193,0.551,0.388,1.105,0.564,1.672c0.533,1.719,1.827,3.07,3.078,4.377   c0.266,0.278,0.531,0.555,0.788,0.834c1.561,1.695,3.34,2.955,5.44,3.853c1.574,0.675,5.544,2.107,8.4,0.851   c2.508-1.104,3.635-4.312,3.854-6.947c0.235-2.83-0.278-5.468-0.821-8.261c-0.296-1.526-0.603-3.104-0.772-4.704   c-0.242-2.279-0.097-4.945,0.409-7.508c0.218-1.107,0.525-2.269,0.965-3.653c0.149-0.469,0.346-0.914,0.537-1.346   c0.217-0.488,0.421-0.951,0.555-1.435c0.115-0.415,0.157-0.808,0.202-1.224c0.059-0.55,0.12-1.119,0.356-1.74l0.193-0.505   c0.865-2.258,1.76-4.593,1.869-7.038c0.083-1.87,0.113-3.844-0.503-5.624c-0.611-1.764-1.814-2.56-3.339-3.566l-0.598-0.399   c-0.762-0.515-1.61-0.958-2.431-1.387l-0.377-0.198c-0.772-0.406-1.51-0.869-2.223-1.317c-0.539-0.338-1.079-0.677-1.637-0.994   c-0.308-0.175-0.624-0.331-0.938-0.487c-0.384-0.19-0.767-0.38-1.134-0.599c-2.373-1.413-4.355-3.079-6.455-4.843l-0.321-0.27   c-0.678-0.569-1.322-1.18-1.945-1.771c-0.416-0.395-0.833-0.791-1.261-1.176c-0.28-0.252-0.57-0.487-0.857-0.722   c-0.783-0.637-1.592-1.296-2.181-2.249c-1.742-2.819-0.082-5.329,1.383-7.543c0.495-0.748,1.006-1.521,1.373-2.276   c1.048-2.161,2.618-3.948,4.016-5.411c0.028-0.03,0.059-0.052,0.088-0.081h-1.698L13.41,5.461   c-0.648,0.271-1.314,0.499-1.958,0.718C11.016,6.328,10.579,6.477,10.141,6.642z"/><path d="M25.506,61.328c-0.357-0.712-0.726-1.447-0.84-2.268c-0.181-1.297,0.232-2.572,0.631-3.806   c0.196-0.604,0.38-1.175,0.489-1.727c0.211-1.067,0.215-2.462-0.405-3.175c-0.29-0.333-0.697-0.497-1.242-0.497   c-0.054,0-0.109,0.001-0.165,0.004c-3.858,0.217-3.869,7.39-3.873,10.453l0,0.28c-0.001,0.492,0.052,1.062,0.108,1.665   c0.133,1.425,0.284,3.039-0.255,4.256c-0.475,1.073-1.307,1.606-2.041,2.077c-0.877,0.562-1.57,1.007-1.736,2.231   c-0.156,1.149-0.072,2.744,0.68,3.456c0.379,0.358,0.9,0.47,1.596,0.334c0.45-0.087,0.843-0.346,1.26-0.621   c0.366-0.241,0.745-0.491,1.2-0.657c0.718-0.262,1.384-0.201,2.027-0.141c0.369,0.033,0.718,0.067,1.064,0.035   c2.072-0.191,2.621-3.639,2.618-5.645c-0.001-1.272-0.049-2.935-0.402-4.508C26.087,62.486,25.805,61.924,25.506,61.328z    M25.152,70.146c-0.519,0.999-1.939,2.087-3.227,2.114c-0.017,0.001-0.034,0.001-0.05,0.001c-0.749,0-1.37-0.366-1.755-1.034   c-0.718-1.248-0.087-2.647,0.216-3.32c0.18-0.398,0.27-0.816,0.365-1.259c0.082-0.381,0.167-0.774,0.314-1.172   c0.357-0.966,1.347-2.062,2.476-2.191c0.728-0.075,1.367,0.252,1.818,0.94C26.373,65.847,25.901,68.705,25.152,70.146z"/><path d="M22.513,13.483c0.626,0.904,1.167,1.684,1.392,2.901c0.062,0.335,0.098,0.673,0.132,1.008   c0.088,0.852,0.164,1.587,0.686,2.206c0.818,0.968,2.563,1.779,3.865,2.08c1.267,0.294,2.889-0.243,4.339-1.434   c1.089-0.896,1.047-2.81,1.013-4.348l-0.01-0.521c-0.015-1.214-0.455-2.468-1.272-3.628c-0.53-0.752-0.932-0.833-1.731-0.996   c-0.259-0.052-0.543-0.11-0.863-0.196c-0.417-0.113-0.707-0.379-0.94-0.594c-0.143-0.13-0.277-0.254-0.407-0.313   c-0.289-0.132-0.605-0.198-0.957-0.198c-0.208,0-0.429,0.023-0.664,0.069c-1.025,0.201-2.101,0.798-3.05,1.324   c-0.291,0.161-0.566,0.314-0.823,0.446c-0.721,0.371-1.096,0.697-1.179,1.026c-0.06,0.236,0.032,0.534,0.272,0.885L22.513,13.483z    M25.037,13.535c0.309-0.597,0.792-1.012,1.397-1.201c0.792-0.248,1.435,0.082,1.95,0.346c0.329,0.168,0.639,0.328,0.953,0.336   c0.172,0.005,0.338,0,0.493-0.005c0.768-0.027,1.83-0.059,1.91,1.713c0.016,0.341,0.089,0.697,0.16,1.042   c0.045,0.222,0.09,0.441,0.122,0.656c0.183,1.241-0.414,2.44-1.556,3.131c-0.453,0.274-0.924,0.409-1.396,0.409   c-0.822,0-1.647-0.41-2.385-1.21c-0.74-0.802-1.491-1.675-1.838-2.737C24.586,15.218,24.659,14.268,25.037,13.535z"/><path d="M23.701,64.273c-0.032,0-0.064,0.002-0.097,0.006c-0.611,0.069-1.367,0.776-1.651,1.545   c-0.122,0.33-0.196,0.672-0.274,1.034c-0.102,0.475-0.207,0.965-0.431,1.461c-0.435,0.963-0.645,1.742-0.261,2.41   c0.214,0.372,0.506,0.573,0.917,0.531c0.879-0.019,1.991-0.862,2.361-1.575c0.633-1.218,1.019-3.676,0.208-4.911   C24.252,64.438,23.999,64.273,23.701,64.273z"/><path d="M19.838,11.641c-0.469,0.797-0.954,1.622-1.504,2.354c-0.178,0.237-0.406,0.493-0.646,0.761   c-1.008,1.126-1.622,1.918-0.997,2.636c0.271,0.311,0.824,0.605,1.312,0.865c0.259,0.138,0.502,0.269,0.697,0.394   c0.726,0.466,1.239,0.6,2.159,0.774l0.428,0.078c0.771,0.136,1.437,0.253,2.204,0.731c0.398,0.248,0.739,0.52,1.068,0.782   c0.365,0.29,0.708,0.564,1.117,0.8c1.545,0.892,2.811,1.014,4.564,1.099c1.591,0.078,3.584-0.356,4.454-1.495   c0.266-0.35,0.482-0.708,0.711-1.088c0.278-0.463,0.567-0.941,0.951-1.399c0.135-0.161,0.286-0.325,0.44-0.493   c0.578-0.627,1.175-1.276,1.057-1.927c-0.113-0.626-0.76-1.04-1.444-1.478c-0.625-0.4-1.272-0.813-1.647-1.458   c-0.338-0.581-0.561-1.247-0.776-1.89c-0.331-0.989-0.643-1.923-1.325-2.513c-1.193-1.032-3.497-2.079-4.898-2.41   c-0.407-0.096-0.834-0.144-1.271-0.144c-0.92,0-1.878,0.21-2.757,0.617C21.939,8.067,20.918,9.803,19.838,11.641z M23.561,9.968   c1.014-0.562,2.162-1.2,3.343-1.432c0.831-0.162,1.582-0.096,2.229,0.201c0.273,0.125,0.482,0.317,0.667,0.486   c0.185,0.169,0.344,0.315,0.525,0.365c0.296,0.08,0.56,0.133,0.8,0.182c0.854,0.173,1.59,0.322,2.35,1.399   c0.935,1.325,1.438,2.775,1.455,4.192l0.01,0.511c0.039,1.755,0.087,3.939-1.378,5.143c-0.694,0.57-2.354,1.745-4.233,1.745   c-0.317,0-0.64-0.034-0.966-0.109c-1.464-0.339-3.394-1.215-4.403-2.409c-0.722-0.855-0.821-1.817-0.917-2.749   c-0.032-0.308-0.063-0.62-0.121-0.929c-0.186-1.006-0.647-1.671-1.231-2.514l-0.198-0.287c-0.41-0.598-0.55-1.169-0.417-1.696   c0.206-0.815,1.012-1.321,1.691-1.67C23.014,10.272,23.28,10.124,23.561,9.968z"/><path d="M27.42,18.076c0.581,0.631,1.492,1.25,2.528,0.623c0.792-0.479,1.207-1.294,1.084-2.13   c-0.029-0.197-0.07-0.397-0.112-0.601c-0.078-0.383-0.16-0.779-0.179-1.198c-0.035-0.787-0.099-0.781-0.879-0.759   c-0.174,0.006-0.358,0.011-0.554,0.006c-0.54-0.016-0.986-0.245-1.38-0.447c-0.374-0.191-0.648-0.323-0.927-0.323   c-0.088,0-0.177,0.013-0.27,0.042c-0.349,0.108-0.62,0.346-0.806,0.705c-0.256,0.495-0.306,1.167-0.128,1.712   C26.082,16.577,26.755,17.354,27.42,18.076z"/><path d="M28.113,66.688c0.243-2.453,0.581-4.874,1.004-7.197c0.196-1.076,0.448-2.104,0.691-3.098   c0.622-2.543,1.21-4.944,0.771-7.715c-0.058-0.363-0.102-0.695-0.144-1.009c-0.144-1.079-0.247-1.859-0.753-2.91   c-0.206-0.429-0.392-0.849-0.575-1.264c-0.42-0.952-0.817-1.851-1.421-2.752c-0.569-0.851-1.232-1.53-1.934-2.249l-0.443-0.456   c-0.336-0.349-0.699-0.656-1.083-0.982c-0.349-0.295-0.699-0.593-1.031-0.922c-0.186-0.184-0.344-0.353-0.492-0.511   c-0.438-0.468-0.727-0.777-1.346-1.063c-0.398-0.184-0.791-0.392-1.184-0.601c-0.49-0.259-0.996-0.528-1.5-0.738   c-0.504-0.21-1.012-0.4-1.517-0.588c-1.704-0.637-3.465-1.295-4.899-2.696c-1.499-1.463-2.406-3.318-3.138-4.943   c-0.225-0.499-0.406-1.096-0.598-1.728c-0.364-1.201-0.776-2.562-1.519-3.149c-0.34-0.269-0.742-0.24-1.369-0.172   c-0.208,0.023-0.416,0.045-0.621,0.051l-0.014,0v9.518l0.139,0.04c0.395,0.114,0.795,0.222,1.197,0.33   c1.851,0.497,3.764,1.011,5.339,2.213c2.967,2.265,5.402,7.035,6.273,10.576c0.599,2.438,0.182,5.213-0.187,7.662l-0.072,0.479   c-0.266,1.787-0.168,3.402,0.336,5.576c0.386,1.669-0.272,3.769-1.565,4.992c-0.57,0.539-1.139,0.918-1.688,1.285   c-0.968,0.646-1.805,1.205-2.362,2.492c-0.728,1.677-1.121,3.514-1.202,5.615c-0.087,2.264,0.479,3.718,1.264,5.73   c0.08,0.205,0.16,0.421,0.241,0.643c0.519,1.408,1.107,3.006,2.4,3.407c0.764,0.236,1.523-0.021,2.327-0.296   c1.015-0.347,2.164-0.738,3.295,0.041c0.842,0.581,1.348,1.417,1.838,2.225c0.512,0.845,0.996,1.643,1.822,2.095   c1.228,0.67,2.602,0.863,3.499,0.488c0.586-0.244,0.988-0.728,1.194-1.437c0.62-2.137,0.138-4.761-0.288-7.075   c-0.091-0.494-0.179-0.976-0.255-1.438c-0.086-0.527-0.221-1.071-0.353-1.598c-0.217-0.87-0.441-1.771-0.474-2.688   c-0.036-0.98,0.098-1.945,0.229-2.879C28.009,67.559,28.07,67.123,28.113,66.688z M24.095,74.226   c-0.437,0.038-0.85,0.001-1.249-0.036c-0.556-0.05-1.083-0.101-1.59,0.085c-0.346,0.126-0.66,0.333-0.993,0.553   c-0.479,0.316-0.976,0.644-1.621,0.769c-0.257,0.049-0.494,0.071-0.711,0.071c-0.858,0-1.42-0.339-1.761-0.662   c-1.291-1.222-1.08-3.612-0.984-4.316c0.229-1.682,1.27-2.35,2.188-2.938c0.675-0.433,1.313-0.842,1.667-1.64   c0.434-0.979,0.295-2.455,0.173-3.758c-0.059-0.628-0.114-1.222-0.113-1.761l0-0.28c0.005-3.345,0.016-11.179,4.816-11.449   c1.174-0.073,1.855,0.417,2.218,0.834c1.05,1.207,0.792,3.217,0.632,4.025c-0.121,0.61-0.323,1.236-0.519,1.842   c-0.364,1.126-0.741,2.29-0.592,3.359c0.091,0.656,0.408,1.288,0.744,1.957c0.312,0.623,0.636,1.268,0.795,1.979   c0.375,1.668,0.425,3.401,0.426,4.725C27.625,70.497,26.704,73.984,24.095,74.226z"/><path d="M52.192,60.692c1.624-4.089,6.122-8.17,11.245-7.711c5.529,0.506,7.181,5.568,8.509,9.637l0.182,0.557   c1.248,3.788,3.839,5.179,6.839,6.79c1.016,0.545,2.065,1.108,3.135,1.798c2.648,1.705,4.401,4.446,6.096,7.097   c0.911,1.424,1.853,2.896,2.924,4.198c1.3,1.576,2.581,3.274,3.879,5.013V72.884l-0.462-1.155   c-0.817-1.962-2.773-5.376-6.692-6.197c-0.386-0.08-0.806-0.083-1.251-0.076c-0.54-0.002-1.104,0.004-1.656-0.146   c-1.334-0.36-1.456-1.139-1.598-2.039l-0.059-0.364c-0.32-1.851-0.774-3.715-1.923-4.818c-0.741-0.711-1.76-0.934-2.918-1.133   c-1.301-0.225-1.567-0.585-2.28-1.548c-0.388-0.524-0.952-1.047-1.55-1.599c-1.59-1.47-3.569-3.298-2.419-5.917   c0.336-0.764,0.882-1.32,1.41-1.858c0.59-0.601,1.147-1.168,1.348-1.975c0.243-0.979,0.215-2.18,0.188-3.34   c-0.016-0.667-0.032-1.357,0.006-1.987c0.086-1.429,0.09-2.899,0.094-4.322c0.005-1.721,0.01-3.5,0.158-5.231   c0.133-1.547,1.118-2.949,2.163-4.234c0.499-0.613,1.043-1.207,1.57-1.781c1.534-1.671,2.982-3.25,3.531-5.386   c0.51-1.984,0.519-4.434,0.021-6.096c-0.684-2.281-2.949-3.853-5.354-3.76c-2.993,0.127-5.259,1.405-7.131,4.021   c-1.312,1.834-1.124,3.487-0.716,5.621c0.431,2.252-1.479,3.575-3.012,4.638c-0.223,0.154-0.44,0.305-0.644,0.453   c-2.542,1.86-5.85,3.916-8.849,3.286c-0.524-0.109-1.021-0.308-1.501-0.5c-0.647-0.26-1.26-0.504-1.885-0.517   c-1.089-0.01-1.861,0.59-2.726,1.237c-0.297,0.222-0.595,0.444-0.903,0.644c-1.145,0.743-2.404,0.774-3.622,0.803   c-0.752,0.018-1.463,0.036-2.14,0.212c-0.704,0.183-1.259,0.702-1.45,1.354c-0.177,0.605-0.015,1.237,0.445,1.734   c0.633,0.684,1.661,1.083,2.655,1.47c0.517,0.201,1.052,0.409,1.528,0.656c0.305,0.158,0.58,0.369,0.846,0.573   c0.328,0.251,0.638,0.489,0.946,0.586c0.146,0.046,0.302,0.049,0.488,0.044c0.306,0,0.683-0.004,1.103,0.217   c0.632,0.332,1.042,0.847,1.438,1.344c0.302,0.379,0.587,0.737,0.948,0.982c1.045,0.708,1.849,1.297,2.672,2.442   c1.364,1.9,1.871,3.871,1.507,5.858c-0.554,3.017-3.129,6.068-7.654,9.069c-1.375,0.911-5.813,4.185-5.21,8.064   c0.066,0.425,0.16,0.812,0.249,1.18c0.313,1.296,0.609,2.519-0.578,4.142c-0.419,0.574-0.943,1.1-1.45,1.607   c-0.941,0.944-1.831,1.835-2.123,3.012c-0.286,1.15,0.497,2.771,2.326,4.816c0.57,0.637,0.875,1.166,1.197,1.726   c0.122,0.212,0.25,0.435,0.401,0.68c0.295,0.476,0.745,0.862,1.221,1.271c0.33,0.284,0.671,0.577,0.969,0.911   c1.226,1.374,2.061,3.314,2.551,5.932c0.216,1.149,0.235,2.266,0.224,3.3c-0.018,1.594-0.611,3.013-1.224,4.212h6.731l0.001-0.022   c0.054-1.208-0.15-2.563-0.624-4.142C51.911,82.783,48.252,70.612,52.192,60.692z M54.579,32.814   c-0.697-0.952-0.905-1.814-0.619-2.562c0.333-0.869,1.283-1.475,2.823-1.8c1.07-0.226,2.145-0.422,3.206-0.617   c0.607-0.111,1.21-0.221,1.805-0.336c1.317-0.253,2.354-0.941,3.452-1.669c0.366-0.243,0.739-0.49,1.132-0.729   c3.035-1.85,4.064-5.582,4.972-8.875l0.199-0.729c0.405-1.526,1.067-4.079,3.528-3.701c1.35,0.209,1.757,1.204,2.083,2.002   c0.567,1.387,0.691,2.979,0.367,4.732c-0.366,1.994-0.798,4.089-1.684,5.849c-0.217,0.431-0.441,0.853-0.665,1.273   c-0.639,1.198-1.241,2.329-1.63,3.604c-1.116,3.65-1.679,7.813-1.544,11.423c0.087,2.378,0.044,4.488-1.387,6.231c0,0,0,0,0,0   c-0.695,0.846-1.58,1.31-2.495,1.31c-0.014,0-0.027,0-0.041,0c-0.928-0.014-1.816-0.51-2.502-1.398   c-1.081-1.4-1.743-3.06-2.384-4.665c-0.955-2.394-1.857-4.656-4.034-6.03c-0.379-0.239-0.778-0.463-1.182-0.69   C56.743,34.741,55.463,34.022,54.579,32.814z"/><path d="M59.695,35.28c2.452,1.548,3.457,4.068,4.43,6.506c0.615,1.541,1.251,3.134,2.246,4.424c0.503,0.651,1.1,1,1.726,1.01   c0.009,0,0.018,0,0.025,0c0.611,0,1.222-0.334,1.723-0.944c1.211-1.475,1.243-3.312,1.16-5.56c-0.138-3.716,0.44-8,1.587-11.752   c0.418-1.368,1.072-2.595,1.704-3.782c0.221-0.413,0.441-0.828,0.655-1.252c0.825-1.642,1.239-3.657,1.593-5.581   c0.289-1.562,0.185-2.965-0.31-4.172c-0.36-0.883-0.594-1.281-1.312-1.393c-0.103-0.016-0.201-0.024-0.295-0.024   c-1.214,0-1.664,1.305-2.113,2.994l-0.2,0.737c-0.958,3.473-2.043,7.408-5.417,9.464c-0.381,0.232-0.743,0.473-1.099,0.708   c-1.184,0.785-2.302,1.527-3.815,1.818c-0.598,0.115-1.203,0.226-1.814,0.337c-1.052,0.192-2.118,0.388-3.179,0.611   c-1.154,0.243-1.898,0.662-2.096,1.179c-0.157,0.411,0.008,0.954,0.491,1.614c0.756,1.033,1.939,1.697,3.084,2.34   C58.889,34.799,59.303,35.032,59.695,35.28z M62.213,31.714c0.749-2.068,2.648-3.391,4.324-4.558l0.695-0.493   c0.938-0.688,2.356-1.729,3.434-1.191c0.487,0.243,0.773,0.667,0.827,1.226c0.088,0.929-0.481,2.069-0.938,2.984   c-0.169,0.338-0.328,0.657-0.384,0.837c-0.371,1.202-0.595,2.762-0.717,3.859c-0.019,0.166-0.034,0.342-0.05,0.526   c-0.122,1.402-0.289,3.323-2.066,3.771c-0.226,0.057-0.461,0.083-0.7,0.083c-1.921,0-4.172-1.71-4.695-3.329c0,0,0,0,0,0   C61.486,34.016,61.979,32.36,62.213,31.714z"/><path d="M67.094,37.706c1.007-0.254,1.186-1.407,1.314-2.888c0.017-0.192,0.032-0.377,0.052-0.55   c0.127-1.14,0.361-2.767,0.756-4.044c0.079-0.258,0.249-0.596,0.444-0.988c0.379-0.759,0.898-1.799,0.837-2.442   c-0.021-0.214-0.101-0.338-0.276-0.426c-0.533-0.258-1.838,0.694-2.397,1.104l-0.715,0.507c-1.63,1.134-3.314,2.308-3.955,4.077   c-0.413,1.145-0.511,2.292-0.26,3.069C63.334,36.483,65.619,38.072,67.094,37.706z"/><path d="M44.999,48.206c0.449,0.447,1.339,0.059,2.007-0.346c1.586-0.959,3.105-3.103,2.9-5.029   c-0.079-0.735-0.531-1.4-1.209-1.778c-0.681-0.378-1.462-0.406-2.146-0.075c-0.788,0.38-0.773,1.021-0.674,2.215   c0.062,0.756,0.134,1.613-0.181,2.407c-0.089,0.225-0.23,0.479-0.38,0.748c-0.33,0.587-0.703,1.254-0.466,1.658   C44.894,48.085,44.943,48.15,44.999,48.206z"/><path d="M42.595,44.588c-0.034,1.29-0.51,2.466-0.97,3.604c-0.561,1.388-1.091,2.698-0.818,4.132   c0.016,0.084,0.028,0.149,0.256,0.166c2.26,0.204,10.31-5.792,10.811-7.224c0.727-2.083-0.624-3.974-1.493-4.916   c-2.201-2.383-6.025-3.98-8.177-3.413c-0.795,0.208-1.27,0.678-1.45,1.438c-0.185,0.778,0.332,1.874,0.83,2.933   C42.095,42.393,42.624,43.515,42.595,44.588z M44.442,45.859c0.127-0.227,0.248-0.439,0.323-0.628   c0.229-0.575,0.17-1.277,0.114-1.955c-0.097-1.172-0.208-2.502,1.236-3.198c0.981-0.474,2.099-0.437,3.067,0.102   c0.962,0.535,1.604,1.487,1.717,2.545c0.256,2.41-1.548,4.885-3.376,5.991c-0.835,0.505-1.491,0.688-2.004,0.688   c-0.571,0-0.964-0.227-1.227-0.49c0,0,0,0,0,0c-0.115-0.115-0.219-0.25-0.307-0.402C43.459,47.612,44.027,46.599,44.442,45.859z"/><path d="M38.688,94.656c1.042-1.1,1.899-2.337,2.15-2.765c0.749-1.274,1.914-4.088,0.964-5.613   c-0.389-0.624-0.786-0.973-1.078-0.935c-0.836,0.055-1.807,2.197-2.387,3.478c-0.305,0.673-0.568,1.254-0.812,1.616   c-0.211,0.315-0.472,0.654-0.748,1.013c-0.851,1.104-1.814,2.355-1.783,3.536l0,0.014h3.373L38.688,94.656z"/><path d="M53.508,6.61c0.304-0.063,0.615-0.17,0.918-0.272l0.407-0.135c0.233-0.073,0.48-0.146,0.735-0.219   c0.866-0.252,1.813-0.542,2.53-0.983h-8.114c0.423,0.52,0.844,0.982,1.38,1.336C51.976,6.74,52.536,6.812,53.508,6.61z"/><path d="M85.65,93.149c-0.939-3.112-2.853-5.408-4.878-7.838c-0.416-0.5-0.838-1.006-1.258-1.526   c-1.187-1.47-2.465-2.791-3.799-3.928c-0.544-0.464-1.147-0.887-1.731-1.296c-0.989-0.693-2.013-1.409-2.846-2.381   c-0.822-0.959-1.294-1.162-2.603-1.408c-2.473-0.463-5.3-0.879-7.522-0.447c-0.546,0.105-0.896,0.302-1.039,0.583   c-0.325,0.634,0.23,1.841,0.678,2.81c0.232,0.505,0.452,0.981,0.565,1.396c0.247,0.9,0.229,1.915,0.213,2.896   c-0.008,0.451-0.017,0.895,0.004,1.308c0.062,1.24,0.036,2.492,0.011,3.704c-0.013,0.617-0.025,1.234-0.027,1.852   c-0.002,0.935,0.034,1.871,0.07,2.81c0.042,1.085,0.084,2.208,0.067,3.317h3.171l0.11-0.222c0.187-0.375,0.378-0.75,0.571-1.129   c0.449-0.879,0.913-1.787,1.33-2.749c0.547-1.259,0.528-2.652,0.51-4.128c-0.011-0.783-0.021-1.595,0.062-2.38   c0.104-0.984,0.333-2.236,1.178-3.193c1.025-1.159,2.105-1.214,2.829-1.055c1.34,0.294,2.607,1.604,3.082,3.185   c0.237,0.786,0.399,1.575,0.556,2.337l0.117,0.563c0.181,0.858,0.299,1.748,0.413,2.607c0.114,0.854,0.231,1.738,0.41,2.583   c0.247,1.168,0.824,2.159,1.625,2.791c0.167,0.132,0.347,0.251,0.53,0.366L78.742,95h7.194   C85.93,94.384,85.834,93.762,85.65,93.149z"/><path d="M5.321,6.949C5.39,7.006,5.45,7.046,5.512,7.075C6.295,7.44,7.601,6.776,8.649,6.241c0.412-0.21,0.802-0.409,1.14-0.536   c0.448-0.168,0.895-0.32,1.339-0.472C11.357,5.155,11.578,5.078,11.799,5H5v1.681L5.321,6.949z"/><path d="M95,16.72v-6.327c-0.396,0.56-0.695,1.12-0.862,1.802C93.657,14.163,93.913,15.495,95,16.72z"/><path d="M86.005,7.205l0.29,0.413c0.761,1.088,1.418,2.028,1.722,3.438l0.134,0.639c0.246,1.188,0.5,2.416,1.042,3.432   c0.804,1.51,1.936,2.939,3.029,4.321l0.128,0.162c1.533,1.938,2.214,4.478,1.733,6.468c-0.355,1.473-1.321,2.605-2.792,3.275   c-0.694,0.316-1.404,0.577-2.091,0.829c-1.542,0.566-2.999,1.101-4.225,2.206c-0.68,0.612-1.15,1.411-1.649,2.256   c-1.153,1.953-1.818,3.448-1.888,5.439c-0.097,2.795-0.062,6.045,0.93,8.953c1.027,3.017,2.822,3.977,5.54,5.429l0.473,0.254   c1.589,0.854,2.928,1.952,4.108,2.921c0.99,0.813,1.796,1.568,2.511,2.342v-4.478l-0.349-0.324c-0.4-0.39-0.796-0.784-1.191-1.18   c-0.923-0.923-1.878-1.876-2.89-2.744c-1.364-1.169-3.063-2.625-3.141-5.059c-0.073-2.314,1.191-3.069,2.728-3.754   c1.657-0.738,2.622-2.062,2.788-3.826c0.052-0.551,0.021-1.185-0.012-1.855c-0.073-1.506-0.157-3.214,0.757-4.429   c0.261-0.347,0.581-0.659,1.009-0.98L95,31.127V18.159l-0.545-0.544c-1.495-1.541-1.881-3.233-1.288-5.658   c0.276-1.131,0.856-1.97,1.441-2.707L95,8.744V5H84.816C84.988,5.753,85.5,6.49,86.005,7.205z"/><path d="M6.753,94.621c0.069-1.824,0.111-2.925,1.557-4.677c1.084-1.313,0.604-2.895-0.452-4.864   c-0.427-0.799-0.96-1.578-1.477-2.333C5.907,82.053,5.423,81.341,5,80.593V95h1.738L6.753,94.621z"/><path d="M76.901,94.996c-0.983-0.776-1.688-1.973-1.984-3.369c-0.187-0.883-0.307-1.785-0.423-2.658   c-0.111-0.842-0.227-1.712-0.4-2.532l-0.118-0.569c-0.159-0.774-0.31-1.506-0.533-2.25c-0.37-1.23-1.354-2.279-2.339-2.496   c-0.676-0.146-1.3,0.102-1.866,0.74c-0.657,0.744-0.844,1.8-0.933,2.637c-0.077,0.727-0.067,1.473-0.057,2.262   c0.02,1.516,0.039,3.083-0.592,4.539c-0.43,0.99-0.901,1.913-1.357,2.806c-0.153,0.301-0.304,0.598-0.453,0.896h2.828l0.01-0.069   c0.16-1.14,0.435-1.944,0.863-2.532c0.468-0.642,1.473-1.046,2.377-0.975c0.717,0.061,1.266,0.401,1.543,0.96   c0.279,0.558,0.363,1.396,0.424,2.009l0.026,0.252c0.012,0.104,0.019,0.211,0.025,0.316L73.945,95h2.962   C76.905,94.999,76.903,94.997,76.901,94.996z"/><path d="M60.556,95l0-0.008c0.018-1.086-0.025-2.196-0.066-3.271c-0.037-0.952-0.073-1.903-0.071-2.851   c0.002-0.624,0.015-1.247,0.028-1.871c0.024-1.193,0.051-2.428-0.01-3.632c-0.022-0.436-0.015-0.901-0.006-1.376   c0.016-0.91,0.032-1.853-0.178-2.614c-0.092-0.334-0.294-0.775-0.51-1.241c-0.564-1.228-1.205-2.618-0.659-3.685   c0.291-0.568,0.876-0.941,1.738-1.109c2.389-0.463,5.333-0.034,7.898,0.447c1.507,0.283,2.178,0.574,3.178,1.74   c0.75,0.875,1.678,1.524,2.659,2.212c0.604,0.423,1.227,0.859,1.807,1.354c1.381,1.178,2.703,2.544,3.928,4.061   c0.418,0.518,0.836,1.02,1.249,1.515c2.093,2.511,4.069,4.882,5.066,8.19c0.212,0.705,0.323,1.423,0.329,2.134l0,0.005h3.872   c-0.076-0.288-0.15-0.576-0.221-0.864c-0.083-0.336-0.166-0.67-0.257-0.997c-0.421-1.53-0.806-2.814-1.592-4.233   c-0.542-0.979-0.998-2.076-1.439-3.137c-0.821-1.976-1.671-4.019-3.116-5.438c-0.855-0.839-1.923-1.468-3.053-2.134   c-0.762-0.449-1.55-0.913-2.264-1.447c-0.602-0.45-1.174-0.946-1.728-1.426c-0.821-0.711-1.67-1.446-2.604-2.017   c-1.633-1-3.277-1.694-5.018-2.429c-1.75-0.739-1.95-1.854-2.144-2.93c-0.091-0.51-0.186-1.037-0.446-1.582   c-0.812-1.698-1.949-2.421-3.784-2.414c-3.785,0.012-6.608,2.515-7.026,6.229c-0.526,4.687-0.632,8.896-0.313,12.509   c0.161,1.833,0.831,3.312,1.539,4.878c0.244,0.54,0.493,1.091,0.73,1.672c0.814,1.997,0.725,4.22,0.499,5.76H60.556z"/><path d="M94.599,89.201c-1.429-1.92-2.829-3.786-4.249-5.508c-1.11-1.348-2.068-2.847-2.994-4.296   c-1.713-2.678-3.33-5.207-5.795-6.795c-1.037-0.667-2.068-1.221-3.067-1.757c-3.056-1.641-5.942-3.19-7.314-7.358l-0.184-0.56   c-1.301-3.986-2.775-8.504-7.649-8.95c-4.632-0.424-8.733,3.333-10.224,7.084c-3.812,9.597-0.213,21.566,2.168,29.487   c0.504,1.678,0.721,3.134,0.665,4.451h1.609l0.011-0.074c0.214-1.419,0.313-3.491-0.427-5.309   c-0.232-0.568-0.477-1.107-0.716-1.637c-0.744-1.646-1.448-3.2-1.624-5.202c-0.324-3.68-0.218-7.956,0.315-12.708   c0.478-4.244,3.699-7.104,8.017-7.117c0.009,0,0.018,0,0.026,0c2.21,0,3.692,0.948,4.664,2.982c0.318,0.667,0.43,1.288,0.528,1.837   c0.18,0.997,0.298,1.656,1.548,2.185c1.698,0.717,3.454,1.459,5.15,2.497c1.004,0.613,1.885,1.377,2.736,2.114   c0.54,0.468,1.1,0.952,1.673,1.381c0.669,0.501,1.434,0.951,2.172,1.387c1.132,0.667,2.303,1.356,3.246,2.282   c1.589,1.561,2.479,3.698,3.339,5.767c0.45,1.083,0.876,2.105,1.391,3.036c0.84,1.516,1.242,2.856,1.682,4.452   c0.092,0.336,0.177,0.678,0.263,1.022c0.08,0.324,0.161,0.649,0.249,0.973L91.844,95H95v-5.274L94.599,89.201z"/><path d="M22.242,5.42c-2.005,1.294-3.378,3.562-4.706,5.755l-0.17,0.281c-0.38,0.625-0.86,1.239-1.369,1.888   c-1.181,1.506-2.401,3.063-2.296,4.763c0.129,2.087,2.368,2.554,5.06,2.913c0.249,0.033,0.486,0.065,0.708,0.098   c2.115,0.316,3.229,1.595,4.307,2.831c0.83,0.952,1.613,1.851,2.839,2.306c3.835,1.427,7.251-0.918,9.8-3.117   c1.408-1.216,2.942-2.301,4.812-3.556c0.206-0.139,0.456-0.292,0.729-0.461c1.274-0.786,3.199-1.974,3.083-3.183   c-0.086-0.889-1.063-1.167-2.434-1.464c-0.5-0.108-0.974-0.21-1.352-0.375c-0.39-0.168-0.801-0.378-1.215-0.589   c-0.288-0.146-0.577-0.293-0.859-0.427c-1.147-0.541-1.878-1.607-2.524-2.549c-0.217-0.316-0.431-0.628-0.656-0.914   c-0.155-0.197-0.312-0.401-0.469-0.608c-0.472-0.618-0.96-1.257-1.487-1.776c-0.685-0.674-1.485-1.245-2.52-1.796L30.684,5h-7.739   L22.242,5.42z M27.993,5.79c1.511,0.357,3.976,1.462,5.323,2.626c0.89,0.77,1.261,1.879,1.619,2.953   c0.208,0.623,0.405,1.212,0.692,1.703c0.254,0.436,0.772,0.768,1.322,1.119c0.796,0.509,1.698,1.086,1.89,2.142   c0.207,1.141-0.632,2.052-1.306,2.783c-0.144,0.157-0.285,0.309-0.411,0.458c-0.334,0.398-0.59,0.822-0.86,1.272   c-0.233,0.386-0.473,0.785-0.772,1.178c-1.076,1.411-3.223,1.897-4.897,1.897c-0.137,0-0.271-0.003-0.4-0.009   c-1.842-0.089-3.28-0.229-5.017-1.231c-0.473-0.273-0.863-0.584-1.24-0.884c-0.321-0.256-0.625-0.498-0.975-0.716   c-0.602-0.375-1.125-0.467-1.848-0.595l-0.441-0.08c-0.932-0.177-1.611-0.336-2.512-0.915c-0.175-0.113-0.395-0.229-0.627-0.353   c-0.564-0.3-1.204-0.641-1.596-1.091c-1.251-1.437,0.107-2.955,1.006-3.959c0.219-0.245,0.429-0.478,0.592-0.695   c0.517-0.687,0.966-1.45,1.441-2.259c1.111-1.89,2.26-3.843,4.34-4.805C24.811,5.637,26.516,5.441,27.993,5.79z"/><path d="M43.442,5.204c1.224,0.663,2.113,1.698,2.974,2.699l0.236,0.274c0.257,0.297,0.496,0.596,0.731,0.89   c0.713,0.892,1.387,1.734,2.41,2.28c0.924,0.492,1.944,0.404,3.024,0.309c0.35-0.031,0.7-0.061,1.05-0.073   c0.258-0.009,0.504-0.013,0.745-0.016c0.884-0.013,1.647-0.023,2.545-0.293c2.59-0.777,4.979-2.208,7.291-3.591l0.769-0.459   c1.229-0.73,2.171-1.447,2.952-2.224h-8.4l-0.558,0.445c-0.951,0.796-2.232,1.169-3.363,1.499   c-0.247,0.072-0.487,0.142-0.714,0.213l-0.387,0.128c-0.342,0.116-0.694,0.234-1.036,0.305c-0.353,0.073-0.716,0.129-1.091,0.129   c-0.578,0-1.182-0.134-1.808-0.549c-0.763-0.505-1.317-1.168-1.863-1.861L48.705,5h-5.717C43.139,5.067,43.299,5.126,43.442,5.204z   "/><path d="M72.572,92.83c-0.149-0.301-0.48-0.389-0.732-0.41c-0.565-0.05-1.219,0.201-1.484,0.566   c-0.32,0.44-0.532,1.084-0.669,2.014h3.257c-0.006-0.085-0.011-0.167-0.02-0.247l-0.027-0.261   C72.846,93.987,72.769,93.224,72.572,92.83z"/><path d="M90.563,43.356c-1.546,0.689-2.185,1.232-2.134,2.809c0.059,1.847,1.245,3.007,2.791,4.332   c1.041,0.893,2.01,1.86,2.946,2.796c0.277,0.276,0.555,0.55,0.833,0.825V32.405c-0.198,0.174-0.374,0.347-0.511,0.529   c-0.696,0.926-0.625,2.376-0.557,3.779c0.034,0.708,0.067,1.376,0.009,1.998C93.738,40.856,92.571,42.463,90.563,43.356z"/></g><g><path d="M7.048,53.8c0.94-0.445,1.828-0.865,1.926-1.553c0.025-0.101,0.628-2.07-0.384-3.865c-0.724-1.283-0.824-2.24-0.896-2.938   c-0.043-0.421-0.075-0.725-0.224-0.948c-0.212-0.32-0.958-0.928-1.558-1.417C5.577,42.807,5.262,42.548,5,42.315v12.854   C5.475,54.554,6.291,54.158,7.048,53.8z"/><path d="M94.623,61.052c-0.767-0.88-1.646-1.718-2.769-2.639c-1.431-1.175-2.552-2.064-3.946-2.813l-0.472-0.253   c-2.716-1.451-4.86-2.598-6.016-5.989c-1.043-3.061-1.082-6.424-0.982-9.31c0.085-2.432,1.034-4.232,2-5.868   c0.541-0.917,1.074-1.82,1.867-2.536c1.369-1.234,2.986-1.828,4.55-2.401c0.669-0.246,1.361-0.5,2.021-0.801   c1.197-0.545,1.949-1.42,2.234-2.6c0.468-1.937-0.439-4.214-1.547-5.613l-0.127-0.161c-1.122-1.417-2.281-2.882-3.128-4.472   c-0.609-1.143-0.878-2.442-1.139-3.699l-0.132-0.632c-0.262-1.213-0.808-1.995-1.563-3.076l-0.287-0.408   c-0.56-0.792-1.194-1.69-1.383-2.689L83.788,5H69.581l-0.335,0.339c-0.907,0.985-2.025,1.857-3.518,2.744l-0.767,0.458   c-2.364,1.415-4.809,2.877-7.518,3.69c-1.03,0.309-1.898,0.322-2.818,0.335c-0.233,0.003-0.475,0.007-0.726,0.015   c-0.331,0.011-0.663,0.041-0.996,0.07c-0.444,0.039-0.895,0.079-1.348,0.079c-0.745,0-1.496-0.107-2.234-0.501   c-1.204-0.643-1.94-1.563-2.72-2.538c-0.228-0.285-0.458-0.574-0.707-0.86l-0.238-0.276c-0.838-0.975-1.63-1.896-2.691-2.471   c-0.476-0.257-1-0.447-1.647-0.596L39.407,5h-6.642c0.762,0.467,1.415,0.97,1.978,1.524c0.578,0.568,1.087,1.236,1.581,1.882   c0.155,0.202,0.308,0.403,0.46,0.596c0.238,0.303,0.465,0.632,0.694,0.967c0.602,0.877,1.224,1.785,2.126,2.21   c0.291,0.137,0.589,0.289,0.886,0.44c0.395,0.201,0.788,0.402,1.159,0.563c0.288,0.125,0.714,0.217,1.166,0.314   c1.289,0.278,3.054,0.66,3.217,2.344c0.177,1.83-2.067,3.214-3.553,4.13c-0.261,0.161-0.5,0.308-0.697,0.44   c-1.84,1.235-3.346,2.299-4.716,3.482c-2.004,1.729-4.842,3.791-8.097,3.791c-0.875,0-1.778-0.149-2.705-0.493   c-1.464-0.544-2.37-1.583-3.245-2.587c-1.002-1.15-1.95-2.237-3.7-2.499c-0.218-0.033-0.45-0.063-0.693-0.096   c-2.284-0.304-5.736-0.765-5.926-3.842c-0.128-2.079,1.272-3.865,2.507-5.441c0.49-0.625,0.953-1.215,1.301-1.79l0.17-0.281   c1.26-2.08,2.565-4.218,4.442-5.657h-3.401l-0.482,0.386c-0.144,0.119-0.285,0.245-0.42,0.386c-1.343,1.406-2.85,3.119-3.839,5.156   c-0.395,0.814-0.926,1.616-1.438,2.391c-1.426,2.155-2.772,4.19-1.367,6.465c0.501,0.81,1.21,1.388,1.962,1.999   c0.3,0.245,0.603,0.491,0.895,0.754c0.435,0.391,0.858,0.793,1.281,1.194c0.612,0.582,1.245,1.182,1.899,1.731l0.322,0.27   c2.067,1.737,4.02,3.378,6.323,4.749c0.345,0.205,0.705,0.383,1.066,0.562c0.331,0.164,0.663,0.329,0.988,0.514   c0.57,0.324,1.123,0.67,1.674,1.017c0.697,0.438,1.418,0.89,2.157,1.279l0.375,0.196c0.845,0.441,1.719,0.898,2.527,1.445   l0.589,0.393c1.548,1.023,3.011,1.989,3.733,4.074c0.674,1.947,0.645,4.029,0.557,5.996c-0.116,2.606-1.041,5.018-1.935,7.351   l-0.192,0.503c-0.191,0.501-0.242,0.981-0.297,1.491c-0.047,0.438-0.095,0.891-0.232,1.385c-0.154,0.554-0.383,1.071-0.604,1.572   c-0.188,0.425-0.366,0.826-0.498,1.243c-0.434,1.367-0.723,2.46-0.937,3.544c-0.487,2.467-0.628,5.027-0.396,7.209   c0.165,1.558,0.467,3.113,0.76,4.618c0.532,2.737,1.082,5.567,0.835,8.534c-0.242,2.922-1.539,6.501-4.448,7.781   c-0.962,0.423-2.011,0.589-3.063,0.589c-2.333,0-4.682-0.814-6.133-1.436c-2.232-0.954-4.123-2.294-5.782-4.095   c-0.253-0.274-0.514-0.547-0.775-0.82c-1.332-1.391-2.708-2.829-3.311-4.771c-0.172-0.555-0.363-1.098-0.553-1.637   C8.44,77.531,7.9,75.993,7.797,74.288c-0.076-1.262,0.118-2.5,0.306-3.697c0.179-1.142,0.348-2.22,0.3-3.308   c-0.091-2.064,0.359-3.273,1.101-5.074l0.405-0.973c0.54-1.288,1.098-2.619,1.509-3.958c0.885-2.874,1.634-5.701,1.086-8.7   c-0.486-2.657-1.795-5.391-3.892-8.125C7.53,39.04,6.246,37.912,5,36.902v4l0.365,0.382c0.237,0.253,0.715,0.643,1.177,1.02   c0.753,0.613,1.464,1.192,1.76,1.639c0.285,0.428,0.333,0.899,0.385,1.398c0.067,0.645,0.151,1.448,0.773,2.55   c1.232,2.185,0.516,4.484,0.484,4.581c-0.156,1.137-1.385,1.719-2.469,2.231c-1.116,0.528-1.849,0.923-1.881,1.57   c-0.024,0.493-0.055,0.956-0.097,1.402c0,0-0.005,2.603-0.498,3.939v16.721l0.453,0.961c0.469,1.005,1.122,1.96,1.754,2.885   c0.531,0.776,1.08,1.579,1.533,2.425c0.725,1.354,2.074,3.873,0.341,5.974c-1.231,1.491-1.262,2.302-1.33,4.078L7.738,95h26.257   c-0.034-1.531,1.087-2.988,1.989-4.159c0.262-0.34,0.51-0.662,0.71-0.96c0.197-0.294,0.457-0.866,0.731-1.472   c0.843-1.86,1.798-3.969,3.232-4.063c0.711-0.042,1.384,0.426,1.993,1.403c1.201,1.928-0.032,5.087-0.95,6.649   c-0.288,0.49-1.049,1.574-1.972,2.602h7.37l0.122-0.232c0.628-1.197,1.211-2.51,1.228-3.991c0.013-1.136-0.018-2.099-0.207-3.104   c-0.457-2.433-1.214-4.215-2.315-5.449c-0.254-0.285-0.556-0.544-0.875-0.818c-0.513-0.44-1.043-0.896-1.419-1.503   c-0.158-0.256-0.292-0.487-0.418-0.707c-0.321-0.558-0.575-0.999-1.075-1.559c-2.093-2.339-2.927-4.211-2.551-5.724   c0.359-1.445,1.389-2.478,2.385-3.477c0.502-0.504,0.977-0.979,1.351-1.491c0.913-1.249,0.714-2.071,0.413-3.316   c-0.095-0.393-0.194-0.807-0.265-1.261c-0.675-4.346,3.724-7.778,5.646-9.053c4.291-2.845,6.721-5.676,7.223-8.415   c0.313-1.71-0.136-3.424-1.335-5.094c-0.729-1.014-1.431-1.528-2.42-2.198c-0.488-0.331-0.835-0.767-1.17-1.188   c-0.347-0.436-0.675-0.848-1.121-1.083c-0.199-0.105-0.381-0.102-0.632-0.102c-0.234,0.004-0.498,0.004-0.794-0.09   c-0.477-0.15-0.872-0.453-1.254-0.747c-0.243-0.186-0.472-0.361-0.698-0.479c-0.429-0.223-0.915-0.412-1.43-0.612   c-1.1-0.428-2.236-0.87-3.026-1.722c-0.705-0.761-0.95-1.744-0.672-2.694c0.289-0.987,1.116-1.769,2.158-2.041   c0.789-0.206,1.592-0.225,2.368-0.244c1.129-0.027,2.195-0.053,3.102-0.643c0.29-0.188,0.569-0.397,0.849-0.606   c0.963-0.719,1.975-1.444,3.344-1.436c0.808,0.016,1.534,0.307,2.237,0.589c0.46,0.184,0.895,0.358,1.334,0.45   c2.616,0.543,5.678-1.376,8.054-3.114c0.21-0.153,0.434-0.309,0.663-0.468c1.43-0.991,2.908-2.016,2.6-3.628   c-0.44-2.304-0.655-4.237,0.886-6.391c2.064-2.887,4.575-4.297,7.9-4.438c2.936-0.12,5.528,1.715,6.354,4.472   c0.555,1.851,0.55,4.454-0.01,6.632c-0.611,2.378-2.214,4.124-3.764,5.813c-0.517,0.563-1.051,1.146-1.531,1.735   c-0.943,1.161-1.833,2.411-1.942,3.689c-0.146,1.69-0.149,3.448-0.154,5.148c-0.004,1.437-0.008,2.922-0.096,4.379   c-0.035,0.589-0.021,1.228-0.004,1.904c0.029,1.227,0.059,2.496-0.217,3.605c-0.267,1.071-0.946,1.764-1.604,2.434   c-0.487,0.496-0.946,0.963-1.208,1.56c-0.864,1.965,0.615,3.333,2.182,4.779c0.634,0.586,1.231,1.139,1.676,1.739   c0.656,0.887,0.74,1.001,1.646,1.156c1.322,0.229,2.494,0.49,3.44,1.397c1.357,1.304,1.866,3.351,2.216,5.369l0.062,0.38   c0.135,0.859,0.162,1.038,0.871,1.229c0.423,0.114,0.896,0.112,1.391,0.11c0.479-0.006,0.971-0.005,1.459,0.098   c3.749,0.785,5.861,3.643,6.95,5.794v-8.868L94.623,61.052z M41.951,35.971c2.506-0.66,6.706,1.038,9.165,3.702   c1.765,1.911,2.369,4.015,1.702,5.924c-0.636,1.819-8.719,7.896-11.683,7.896c-0.05,0-0.099-0.002-0.146-0.005   c-0.63-0.047-1.055-0.403-1.164-0.977c-0.328-1.723,0.283-3.233,0.873-4.694c0.446-1.104,0.868-2.146,0.897-3.256   c0.022-0.836-0.455-1.849-0.916-2.828c-0.572-1.215-1.164-2.471-0.898-3.59c0,0,0,0,0,0C40.047,37.024,40.797,36.272,41.951,35.971   z"/></g><text x="0" y="115" fill="#000000" font-size="5px" font-weight="bold" font-family="'Helvetica Neue', Helvetica, Arial-Unicode, Arial, Sans-serif">Created by Nicky Knicky</text><text x="0" y="120" fill="#000000" font-size="5px" font-weight="bold" font-family="'Helvetica Neue', Helvetica, Arial-Unicode, Arial, Sans-serif">from the Noun Project</text></svg>