<svg xmlns="http://www.w3.org/2000/svg" version="1.1" viewBox="-5.0 -10.0 110.0 135.0">
 <path d="m32.418 18.711c0.17578-0.39453 0.64062-0.58594 1.043-0.40234 1.9141 0.83984 3.5039 1.9531 4.7812 3.3125-0.0625-1.8594 0.27734-3.7773 1.0352-5.7305 0.15625-0.41016 0.61719-0.60938 1.0195-0.44922 0.41016 0.15625 0.60938 0.61719 0.44922 1.0195-1.1211 2.9102-1.2422 5.707-0.34766 8.3164 0.28516 0.91016-1.0273 1.4688-1.4531 0.60938-1.2188-2.4805-3.2812-4.3789-6.1172-5.6289-0.39453-0.17578-0.57812-0.64062-0.40234-1.043zm-10.797 43.043c-1.3594 1.2734-2.4727 2.8711-3.3203 4.7812-0.17578 0.40234 0 0.87109 0.40234 1.043 0.10156 0.046875 0.21484 0.070313 0.31641 0.070313 0.30078 0 0.59375-0.17578 0.72656-0.47266 1.25-2.8398 3.1445-4.9023 5.6289-6.1172 0.84766-0.44141 0.30859-1.7461-0.60938-1.4531-2.6094 0.89453-5.3984 0.77344-8.3164-0.34766-0.40234-0.15625-0.86328 0.046876-1.0195 0.44922-0.15625 0.40234 0.046874 0.86328 0.44922 1.0195 1.8086 0.70313 3.5898 1.0508 5.3203 1.0508 0.14062 0 0.27734-0.015625 0.41016-0.015625zm-5.4375-20.949c0.09375 0 0.19141-0.015626 0.28516-0.054688 2.8945-1.1211 5.6836-1.2422 8.3086-0.34766 0.91016 0.30078 1.4531-1.0195 0.60156-1.4531-2.4727-1.2109-4.3711-3.2734-5.6289-6.125-0.17578-0.39453-0.64844-0.58594-1.043-0.40234-0.39453 0.17578-0.57812 0.64062-0.40234 1.043 0.84766 1.9219 1.9609 3.5117 3.3203 4.7812-1.8672-0.0625-3.7773 0.27734-5.7227 1.0352-0.40234 0.15625-0.60938 0.61719-0.44922 1.0195 0.11719 0.31641 0.41797 0.50781 0.73438 0.50781zm65.508-7.3359c0.17578-0.40234 0-0.87109-0.40234-1.043-0.40234-0.18359-0.87109 0-1.043 0.40234-1.25 2.8398-3.1445 4.9023-5.6289 6.1172-0.84766 0.44141-0.30859 1.7617 0.60937 1.4531 2.6016-0.89453 5.3984-0.77344 8.3164 0.34766 0.09375 0.039062 0.19141 0.054687 0.28516 0.054687 0.31641 0 0.61719-0.19141 0.73438-0.50781 0.15625-0.41016-0.046875-0.86328-0.44922-1.0195-1.9531-0.75781-3.875-1.0977-5.7305-1.0352 1.3594-1.2734 2.4727-2.8711 3.3125-4.7812zm-22.094-8.6953c-0.28516 0.91016 1.0273 1.4688 1.4531 0.60156 1.2109-2.4727 3.2734-4.3711 6.125-5.6367 0.39453-0.17578 0.57812-0.64062 0.40234-1.043-0.17578-0.39453-0.64844-0.58594-1.043-0.40234-1.9141 0.84766-3.5117 1.9609-4.7812 3.3203 0.0625-1.8672-0.27734-3.7773-1.0352-5.7227-0.15625-0.40234-0.61719-0.60938-1.0195-0.44922-0.40234 0.15625-0.60938 0.61719-0.44922 1.0195 1.1211 2.8945 1.2422 5.6836 0.34766 8.3086zm4.4492 19.426 2.7578-2.7578c0.30859-0.30859 0.80469-0.30859 1.1133 0 0.30859 0.30859 0.30859 0.80469 0 1.1133l-2.7578 2.7578 3.5977 3.5977c0.29297-0.14844 0.66406-0.11719 0.91016 0.125 0.26172 0.26172 0.29297 0.64844 0.11719 0.95703 0.17578 0.30078 0.14844 0.69531-0.10938 0.94922-0.15625 0.14844-0.35547 0.23047-0.5625 0.23047-0.11719 0-0.23828-0.039063-0.35547-0.09375l-3.5977 3.5977 2.75 2.75c0.30859 0.30859 0.30859 0.80469 0 1.1133-0.15625 0.15625-0.35547 0.23047-0.5625 0.23047-0.20703 0-0.40234-0.078125-0.5625-0.23047l-2.75-2.75-3.5664 3.5664 3.5898 3.5898c0.30859 0.30859 0.30859 0.80469 0 1.1133-0.15625 0.15625-0.35547 0.23047-0.5625 0.23047-0.20703 0-0.40234-0.078124-0.5625-0.23047l-3.5898-3.5898-3.5664 3.5664 2.7578 2.7578c0.30859 0.30859 0.30859 0.80469 0 1.1133-0.15625 0.14844-0.35547 0.23047-0.5625 0.23047-0.20703 0-0.40234-0.078125-0.5625-0.23047l-2.7578-2.7578-3.5977 3.5898c0.14844 0.30078 0.10937 0.66406-0.13281 0.91016-0.15625 0.15625-0.35547 0.23047-0.5625 0.23047-0.13281 0-0.26953-0.046875-0.38672-0.11719-0.11719 0.070312-0.25391 0.11719-0.38672 0.11719-0.20703 0-0.40234-0.078125-0.5625-0.23047-0.24609-0.24609-0.28516-0.61719-0.13281-0.91016l-3.5977-3.5977-2.7578 2.7578c-0.15625 0.15625-0.35547 0.23047-0.5625 0.23047-0.20703 0-0.40234-0.078125-0.5625-0.23047-0.30859-0.30859-0.30859-0.80469 0-1.1133l2.7578-2.7578-3.5664-3.5664-3.5898 3.5898c-0.15625 0.15625-0.35547 0.23047-0.5625 0.23047s-0.40234-0.078125-0.5625-0.23047c-0.30859-0.30859-0.30859-0.80469 0-1.1133l3.5898-3.5898-3.5664-3.5664-2.7578 2.7578c-0.15625 0.14844-0.35547 0.23047-0.5625 0.23047-0.20703 0-0.40234-0.078125-0.5625-0.23047-0.30859-0.30859-0.30859-0.80469 0-1.1133l2.7578-2.7578-3.5977-3.5977c-0.10938 0.054688-0.23047 0.09375-0.35547 0.09375-0.20703 0-0.41016-0.078124-0.5625-0.23828-0.25391-0.26172-0.28516-0.64844-0.10156-0.94922-0.17578-0.30078-0.14844-0.6875 0.10938-0.94922 0.26172-0.26172 0.625-0.28516 0.92578-0.13281l3.5977-3.5977-2.7578-2.7578c-0.30859-0.30859-0.30859-0.80469 0-1.1133 0.30859-0.30859 0.80469-0.30859 1.1133 0l2.7578 2.7578 3.5664-3.5664-3.5977-3.5977c-0.30859-0.30859-0.30859-0.80469 0-1.1133 0.30859-0.30859 0.80469-0.30859 1.1133 0l3.5977 3.5977 3.5664-3.5664-2.7578-2.7578c-0.30859-0.30859-0.30859-0.80469 0-1.1133s0.80469-0.30859 1.1133 0l2.7578 2.7578 3.5977-3.5977c-0.14844-0.30078-0.10938-0.66406 0.13281-0.91016 0.24609-0.24609 0.64844-0.28516 0.94922-0.10938 0.30078-0.17578 0.6875-0.14062 0.94922 0.10938 0.26172 0.25391 0.28516 0.61719 0.13281 0.91016l3.5977 3.5977 2.7578-2.7578c0.30859-0.30859 0.80469-0.30859 1.1133 0s0.30859 0.80469 0 1.1133l-2.7578 2.7578 3.5664 3.5664 3.5977-3.5977c0.30859-0.30859 0.80469-0.30859 1.1133 0 0.30859 0.30859 0.30859 0.80469 0 1.1133l-3.5977 3.5977 3.5664 3.5664zm-8.2461 1.1211 3.5664 3.5664 3.5586-3.5664-3.5664-3.5664-3.5664 3.5664zm-10.48 1.1133-3.5664 3.5664 3.5664 3.5664 3.5664-3.5664zm4.6797 2.4531 3.5664-3.5664-3.5664-3.5664-3.5664 3.5664zm-3.5664 5.8008 3.5664 3.5664 3.5664-3.5664-3.5664-3.5664zm8.2461-1.1211 3.5664-3.5664-3.5664-3.5664-3.5664 3.5664zm0-16.492-3.5664 3.5664 3.5664 3.5664 3.5664-3.5664zm-8.2461-1.1211 3.5664 3.5664 3.5664-3.5664-3.5664-3.5664zm-4.6797 4.6875 3.5664 3.5664 3.5664-3.5664-3.5664-3.5664zm-4.6797 4.6797 3.5664 3.5664 3.5664-3.5664-3.5664-3.5664zm-1.1133 8.2383 3.5586-3.5586-3.5664-3.5664-3.5664 3.5664 3.5664 3.5664zm4.6797 4.6875 3.5586-3.5586-3.5664-3.5664-3.5586 3.5586zm4.6797 4.6797 3.5586-3.5586-3.5664-3.5664-3.5586 3.5586zm8.2383 1.1211-3.5586-3.5586-3.5586 3.5586 3.5586 3.5586zm4.6875-4.6875-3.5586-3.5586-3.5664 3.5664 3.5586 3.5586zm4.6797-4.6797-3.5586-3.5586-3.5664 3.5664 3.5586 3.5586zm1.1211-8.2461-3.5586 3.5664 3.5586 3.5586 3.5664-3.5664-3.5664-3.5664zm30.695 3.5664c0 0.43359-0.35547 0.78906-0.78906 0.78906h-20.109c-0.19922 5.9844-2.6016 11.414-6.4336 15.504l14.23 14.23c0.30859 0.30859 0.30859 0.80469 0 1.1133-0.15625 0.15625-0.35547 0.23047-0.5625 0.23047s-0.40234-0.078126-0.5625-0.23047l-14.23-14.23c-4.0859 3.8242-9.5195 6.2383-15.504 6.4258v20.117c0 0.43359-0.35547 0.78906-0.78906 0.78906-0.43359 0-0.78906-0.35547-0.78906-0.78906v-20.117c-5.9844-0.19922-11.414-2.6016-15.504-6.4258l-14.23 14.23c-0.15625 0.15625-0.35547 0.23047-0.5625 0.23047s-0.40234-0.078126-0.5625-0.23047c-0.30859-0.30859-0.30859-0.80469 0-1.1133l14.23-14.23c-3.8242-4.0859-6.2383-9.5195-6.4336-15.504h-20.094c-0.43359 0-0.78906-0.35547-0.78906-0.78906s0.35547-0.78906 0.78906-0.78906h20.109c0.19922-5.9844 2.6016-11.414 6.4258-15.504l-14.23-14.23c-0.30859-0.30859-0.30859-0.80469 0-1.1133 0.30859-0.30859 0.80469-0.30859 1.1133 0l14.23 14.23c4.0859-3.8242 9.5195-6.2383 15.504-6.4336l0.003906-20.113c0-0.43359 0.35547-0.78906 0.78906-0.78906 0.43359 0 0.78906 0.35547 0.78906 0.78906v20.109c5.9844 0.19922 11.414 2.6016 15.504 6.4336l14.23-14.23c0.30859-0.30859 0.80469-0.30859 1.1133 0s0.30859 0.80469 0 1.1133l-14.23 14.23c3.8242 4.0859 6.2383 9.5195 6.4258 15.504h20.109c0.43359 0 0.78906 0.35547 0.78906 0.78906zm-22.457 0c0-12.285-9.9922-22.285-22.285-22.285s-22.285 9.9922-22.285 22.285 9.9922 22.285 22.285 22.285 22.285-9.9922 22.285-22.285zm-31.883 25.227c0.28516-0.91016-1.0195-1.4453-1.4531-0.60156-1.2109 2.4727-3.2734 4.3711-6.125 5.6367-0.39453 0.17578-0.57812 0.64062-0.40234 1.043 0.13281 0.29297 0.41797 0.47266 0.72656 0.47266 0.10156 0 0.21484-0.023438 0.31641-0.070313 1.9141-0.84766 3.5117-1.9609 4.7812-3.3203-0.0625 1.8672 0.27734 3.7773 1.0352 5.7227 0.11719 0.31641 0.41797 0.50781 0.73438 0.50781 0.09375 0 0.19141-0.015626 0.28516-0.054688 0.40234-0.15625 0.60938-0.61719 0.44922-1.0195-1.1211-2.8945-1.2422-5.6836-0.34766-8.3086zm49.414-16.539c5.668 4.8281 7.7695 10.238 7.8672 10.48 0.14844 0.39453-0.03125 0.82812-0.41797 1.0039-0.23828 0.10156-5.543 2.4336-12.973 1.8516 2.3398 6.6094 1.3281 12.648 1.2812 12.918-0.054688 0.33203-0.31641 0.58594-0.64062 0.64062-0.26953 0.046875-6.3086 1.0586-12.918-1.2812 0.58594 7.4219-1.7461 12.734-1.8516 12.973-0.17578 0.37891-0.60937 0.5625-1.0039 0.41797-0.23828-0.09375-5.6445-2.1992-10.48-7.8672-3.0195 6.332-8.0078 9.8828-8.2305 10.039-0.13281 0.09375-0.29297 0.14062-0.44922 0.14062s-0.31641-0.046875-0.44922-0.14062c-0.22266-0.15625-5.2109-3.707-8.2305-10.039-4.8398 5.668-10.238 7.7695-10.48 7.8672-0.38672 0.14844-0.82812-0.03125-1.0039-0.41797-0.10156-0.23828-2.4336-5.5508-1.8516-12.973-6.6094 2.3398-12.648 1.3281-12.918 1.2812-0.33203-0.054687-0.58594-0.31641-0.64062-0.64062-0.046875-0.26953-1.0586-6.3086 1.2812-12.918-7.4297 0.58594-12.734-1.7461-12.973-1.8516-0.37891-0.17578-0.5625-0.60938-0.41797-1.0039 0.09375-0.23828 2.1992-5.6445 7.8672-10.48-6.332-3.0195-9.8828-8.0078-10.043-8.2383-0.19141-0.26953-0.19141-0.63281 0-0.91016 0.15625-0.22266 3.707-5.2109 10.039-8.2305-5.668-4.8281-7.7695-10.238-7.8672-10.48-0.14844-0.39453 0.03125-0.82812 0.41797-1.0039 0.23828-0.10156 5.5508-2.4336 12.973-1.8516-2.3398-6.6094-1.3281-12.648-1.2812-12.918 0.054687-0.33203 0.31641-0.58594 0.64062-0.64063 0.26953-0.046874 6.3086-1.0586 12.918 1.2812-0.58594-7.4219 1.7461-12.734 1.8516-12.973 0.17578-0.37891 0.61719-0.5625 1.0039-0.41797 0.23828 0.09375 5.6445 2.1992 10.48 7.8672 3.0156-6.3203 8.0039-9.8711 8.2344-10.031 0.26953-0.19141 0.63281-0.19141 0.91016 0 0.22266 0.15625 5.2109 3.707 8.2305 10.039 4.8398-5.668 10.238-7.7695 10.48-7.8672 0.39453-0.14844 0.82812 0.03125 1.0039 0.41797 0.10156 0.23828 2.4336 5.5508 1.8516 12.973 6.6094-2.3398 12.648-1.3281 12.918-1.2812 0.33203 0.054687 0.58594 0.31641 0.64063 0.64062 0.046874 0.26953 1.0586 6.3086-1.2812 12.918 7.4219-0.59375 12.734 1.7461 12.973 1.8516 0.37891 0.17578 0.5625 0.60938 0.41797 1.0039-0.09375 0.23828-2.1992 5.6445-7.8672 10.48 6.3242 3.0195 9.8828 8.0078 10.039 8.2305 0.19141 0.26953 0.19141 0.63281 0 0.91016-0.15625 0.22266-3.707 5.2109-10.039 8.2305zm8.3984-8.6875c-1.0898-1.3672-4.6875-5.4766-10.191-7.7539-0.26172-0.10938-0.44141-0.34766-0.48047-0.625-0.039063-0.27734 0.070312-0.55469 0.30078-0.72656 4.8047-3.7539 7.2344-8.1914 8.0469-9.8984-1.7852-0.63281-6.6406-2.0547-12.688-1.3125-0.28516 0.03125-0.55469-0.078125-0.72656-0.30859-0.17578-0.22266-0.20703-0.52344-0.10156-0.78125 2.2852-5.5039 1.9219-10.957 1.7227-12.688-1.7383-0.19922-7.1953-0.5625-12.688 1.7227-0.26172 0.10938-0.55469 0.070313-0.78125-0.10156-0.22266-0.17578-0.33984-0.44141-0.30859-0.72656 0.74219-6.0469-0.67187-10.91-1.3125-12.688-1.707 0.8125-6.1406 3.2422-9.8984 8.0469-0.17578 0.22266-0.44922 0.33203-0.72656 0.30078-0.27734-0.039063-0.51562-0.22266-0.625-0.48047-2.2773-5.5039-6.3867-9.1055-7.7539-10.191-1.3672 1.0898-5.4766 4.6875-7.7539 10.191-0.10938 0.26172-0.34766 0.44141-0.625 0.48047-0.28516 0.039062-0.55469-0.070313-0.72656-0.30078-3.7617-4.8125-8.1914-7.2422-9.8984-8.0469-0.63281 1.7852-2.0469 6.6406-1.3125 12.688 0.03125 0.27734-0.078125 0.55469-0.30859 0.72656-0.22266 0.17578-0.52344 0.20703-0.78125 0.10156-5.5117-2.293-10.957-1.9219-12.688-1.7227-0.19922 1.7383-0.5625 7.1953 1.7227 12.688 0.10938 0.26172 0.070313 0.5625-0.10156 0.78125-0.16406 0.22266-0.44141 0.33984-0.72656 0.30859-6.0469-0.74219-10.91 0.67188-12.688 1.3125 0.8125 1.707 3.25 6.1406 8.0469 9.8984 0.22266 0.17578 0.33203 0.44922 0.30078 0.72656-0.039063 0.27734-0.22266 0.51562-0.48047 0.625-5.5195 2.2773-9.1055 6.3867-10.191 7.7539 1.0898 1.3672 4.6875 5.4766 10.191 7.7539 0.26172 0.10938 0.44141 0.34766 0.48047 0.625 0.039062 0.27734-0.070313 0.55469-0.30078 0.72656-4.8047 3.7539-7.2344 8.1914-8.0469 9.8984 1.7852 0.63281 6.6406 2.0469 12.688 1.3125 0.28516-0.03125 0.55469 0.078125 0.72656 0.30859 0.17578 0.22266 0.20703 0.52344 0.10156 0.78125-2.2852 5.5039-1.9219 10.957-1.7227 12.688 1.7383 0.19922 7.1953 0.5625 12.688-1.7227 0.26172-0.10938 0.5625-0.070313 0.78125 0.10156 0.22266 0.17578 0.33984 0.44141 0.30859 0.72656-0.74219 6.0469 0.67188 10.91 1.3125 12.688 1.707-0.8125 6.1406-3.2422 9.8984-8.0469 0.14844-0.19141 0.37891-0.30078 0.625-0.30078h0.10937c0.27734 0.039063 0.51563 0.22266 0.625 0.48047 2.2773 5.5039 6.3867 9.1055 7.7539 10.191 1.3672-1.0898 5.4766-4.6875 7.7539-10.191 0.10938-0.26172 0.34766-0.44141 0.625-0.48047 0.28516-0.039062 0.5625 0.070313 0.72656 0.30078 3.7539 4.8047 8.1914 7.2344 9.8984 8.0469 0.63281-1.7852 2.0469-6.6406 1.3125-12.688-0.03125-0.27734 0.078125-0.55469 0.30859-0.72656 0.22266-0.17578 0.52344-0.20703 0.78125-0.10156 5.5039 2.2852 10.957 1.9219 12.688 1.7227 0.19922-1.7383 0.5625-7.1953-1.7227-12.688-0.10937-0.26172-0.070312-0.5625 0.10156-0.78125 0.16406-0.22266 0.44141-0.33984 0.72656-0.30859 6.0469 0.74219 10.91-0.67188 12.688-1.3125-0.8125-1.707-3.25-6.1406-8.0469-9.8984-0.22266-0.17578-0.33203-0.44922-0.30078-0.72656 0.039063-0.27734 0.22266-0.51562 0.48047-0.625 5.5195-2.2773 9.1055-6.3867 10.191-7.7539zm-14.68 9.25c-2.8945 1.1211-5.6914 1.2422-8.3086 0.34766-0.91016-0.28516-1.4453 1.0195-0.60156 1.4531 2.4727 1.2109 4.3711 3.2734 5.6289 6.125 0.13281 0.29297 0.41797 0.47266 0.72656 0.47266 0.10156 0 0.21484-0.023438 0.31641-0.070313 0.39453-0.17578 0.57812-0.64062 0.40234-1.043-0.84766-1.9219-1.9609-3.5117-3.3203-4.7812 0.14062 0 0.27734 0.015625 0.41797 0.015625 1.7305 0 3.5039-0.34766 5.3047-1.0508 0.40234-0.15625 0.60938-0.61719 0.44922-1.0195-0.15625-0.41016-0.61719-0.60938-1.0195-0.44922zm-16.363 21.004c-2.8398-1.25-4.9023-3.1445-6.1172-5.6289-0.44141-0.84766-1.7461-0.30859-1.4531 0.60938 0.89453 2.6094 0.77344 5.4062-0.34766 8.3164-0.15625 0.41016 0.046875 0.86328 0.44922 1.0195 0.09375 0.039063 0.19141 0.054688 0.28516 0.054688 0.31641 0 0.61719-0.19141 0.73438-0.50781 0.75781-1.9531 1.0977-3.875 1.0352-5.7305 1.2734 1.3594 2.8711 2.4727 4.7812 3.3125 0.10156 0.046875 0.21484 0.070312 0.31641 0.070312 0.30078 0 0.59375-0.17578 0.72656-0.47266 0.17578-0.40234 0-0.87109-0.40234-1.043z"/>
<text x="0.0" y="117.5" font-size="5.0" font-weight="bold" font-family="Arbeit Regular, Helvetica, Arial-Unicode, Arial, Sans-serif" fill="#000000">Created by aditvest</text><text x="0.0" y="122.5" font-size="5.0" font-weight="bold" font-family="Arbeit Regular, Helvetica, Arial-Unicode, Arial, Sans-serif" fill="#000000">from Noun Project</text></svg>