<svg xmlns="http://www.w3.org/2000/svg" version="1.1" viewBox="-5.0 -10.0 110.0 135.0">
 <path d="m50 47.16 2.8594 2.8398-2.8594 2.8789-2.8594-2.8789zm3.7812 1.9414 2.8711-2.8594-2.8711-2.8711-2.8594 2.8711zm40.871 0.82031v0.16016l-0.003906-0.003906c0.003906 0.20312-0.085938 0.39844-0.25 0.52344-0.16016 0.12109-0.37109 0.16406-0.57031 0.10938 0 0-4.2305-1-9.8984 5.3203-0.26172 0.28906-0.51953 0.55078-0.78906 0.80078 0.14844 0.32812 0.28906 0.67188 0.42188 1 2.7188 8 7 8.7891 7 8.8008l-0.003906-0.003906c0.19531 0.050782 0.35938 0.1875 0.44141 0.37109 0.089844 0.17969 0.089844 0.39062 0 0.57031l-0.070312 0.16016c-0.078126 0.17969-0.23828 0.31641-0.42969 0.37109-0.17188 0.035157-0.35547 0-0.5-0.10156 0 0-3.5-2.5586-11.191 1l-0.51953 0.21094v0.57031c-0.44141 8.4609 3.1992 10.738 3.2383 10.762l0.003906-0.003907c0.16797 0.10156 0.28125 0.27344 0.30859 0.46875 0.023437 0.19531-0.042969 0.39063-0.17969 0.53125l-0.12109 0.12109c-0.12109 0.12109-0.28516 0.1875-0.46094 0.19141h-0.078125c-0.19922-0.03125-0.375-0.14844-0.48047-0.32031 0 0-2.2891-3.6797-10.762-3.2383l0.003907-0.003907c-0.375 0.019532-0.75 0.019532-1.1211 0-0.12891 0.33984-0.26953 0.67969-0.44141 1-3.75 7.5898-1.3008 11.129-1.2812 11.172h0.003906c0.10547 0.15625 0.13672 0.35547 0.078125 0.53906-0.054688 0.19531-0.19531 0.35156-0.37891 0.42969l-0.16016 0.058593c-0.082032 0.015625-0.16016 0.015625-0.24219 0-0.11328 0.003907-0.23047-0.027343-0.32812-0.089843-0.17578-0.097657-0.29297-0.27734-0.3125-0.47656 0 0-0.67969-4.2305-8.5781-7.1602l-0.51953-0.21875-0.39844 0.39062c-6.3008 5.6719-5.3398 9.8594-5.3281 9.9102l-0.003906-0.003906c0.050781 0.19531 0.007812 0.39844-0.10938 0.55859-0.12891 0.15625-0.32031 0.25-0.51953 0.25h-0.16016c-0.20313 0.003906-0.39844-0.085938-0.51953-0.25-0.125-0.16016-0.16797-0.37109-0.11328-0.57031 0 0 1-4.2305-5.3281-9.8984-0.28125-0.26172-0.53906-0.51953-0.78125-0.78906-0.32812 0.14844-0.67188 0.28906-1 0.42188-8 2.7188-8.8008 7-8.8008 7l0.003906-0.003906c-0.058594 0.20703-0.21875 0.375-0.42188 0.44141-0.097656 0.054688-0.20703 0.082031-0.32031 0.078125-0.082032 0.023437-0.16797 0.023437-0.25 0l-0.14844-0.078125c-0.18359-0.082031-0.32031-0.23828-0.37109-0.42969-0.0625-0.19531-0.027344-0.40625 0.089844-0.57031 0 0 2.5586-3.5-1-11.191-0.078125-0.17969-0.14844-0.35156-0.21094-0.51953h-0.57031c-8.4609-0.44141-10.738 3.1992-10.762 3.2383l0.003907 0.003906c-0.10547 0.17188-0.28125 0.28906-0.48047 0.32031h0.019531c-0.17188-0.003906-0.33594-0.070312-0.46094-0.19141l-0.12109-0.12109h0.003906c-0.14844-0.14062-0.21875-0.33984-0.19141-0.53906 0.03125-0.19922 0.14844-0.375 0.32031-0.48047 0 0 3.6797-2.3008 3.2383-10.762v0.003907c-0.019531-0.375-0.019531-0.75 0-1.1211-0.33984-0.12891-0.67969-0.26953-1-0.44141-7.5898-3.75-11.129-1.3008-11.172-1.2812l0.003906 0.003906c-0.17969 0.13281-0.41406 0.16406-0.62109 0.078125-0.19141-0.058594-0.35156-0.19531-0.42969-0.37891l-0.058593-0.16016c-0.089844-0.17969-0.089844-0.39063 0-0.57031 0.097656-0.18359 0.28125-0.30469 0.48828-0.32031 0 0 4.2891-0.67187 7.2305-8.6094 0.058593-0.19141 0.14062-0.35938 0.21094-0.53125-0.12891-0.12891-0.26172-0.25-0.39062-0.39844-5.6719-6.2812-9.8594-5.3281-9.9102-5.3203-0.19531 0.050781-0.39844 0.007812-0.5625-0.10938-0.15234-0.12891-0.24609-0.32031-0.25-0.52344v-0.16016 0.003906c-0.003906-0.20312 0.089844-0.39844 0.25-0.52344 0.16406-0.12109 0.375-0.16406 0.57031-0.10938 0 0 4.2305 1 9.8984-5.3203h0.003906c0.24609-0.27734 0.51172-0.53906 0.78906-0.78906-0.14844-0.32813-0.28906-0.67188-0.42188-1-2.7188-8-7-8.7891-7-8.8008h0.003906c-0.19141-0.058594-0.34375-0.19531-0.42188-0.37891-0.089844-0.17969-0.089844-0.39062 0-0.57031v-0.14844c0.082031-0.18359 0.23828-0.32031 0.42969-0.37109 0.19531-0.0625 0.40625-0.027344 0.57031 0.089844 0 0 3.5 2.5586 11.191-1l0.51953-0.21094v-0.57031c0.44141-8.4609-3.1992-10.738-3.2383-10.762l-0.003906 0.003907c-0.16797-0.10156-0.28125-0.27344-0.30859-0.46875-0.023437-0.19531 0.042969-0.39063 0.17969-0.53125l0.12109-0.12109c0.14062-0.14453 0.33984-0.21484 0.53906-0.19141 0.19922 0.03125 0.375 0.14844 0.48047 0.32031 0 0 2.2891 3.6797 10.762 3.2383l-0.003907 0.003907c0.375-0.019532 0.75-0.019532 1.1211 0 0.12891-0.33984 0.26953-0.67969 0.44141-1 3.75-7.5898 1.3008-11.129 1.2812-11.172h-0.003906c-0.10547-0.15625-0.13672-0.35547-0.078125-0.53906 0.054688-0.19531 0.19531-0.35156 0.37891-0.42969l0.16016-0.058593c0.17969-0.089844 0.39063-0.089844 0.57031 0 0.17578 0.097656 0.29297 0.27734 0.3125 0.47656 0 0 0.67188 4.2891 8.6094 7.2188l0.51953 0.21875 0.39844-0.39062c6.3008-5.6719 5.3398-9.8594 5.3281-9.9102l0.003906 0.003906c-0.050781-0.19141-0.011719-0.39844 0.10938-0.55859 0.12891-0.15625 0.31641-0.24609 0.51953-0.25h0.16016c0.20313-0.003906 0.39453 0.089844 0.51953 0.25 0.125 0.16016 0.16406 0.37109 0.10938 0.57031 0 0-1 4.2305 5.3281 9.8984 0.28125 0.26172 0.53906 0.51953 0.78125 0.78906 0.32812-0.14844 0.67188-0.28906 1-0.42188 8-2.7188 8.8008-7 8.8008-7v0.003906c0.0625-0.1875 0.20312-0.33984 0.39062-0.41016 0.17969-0.089844 0.39062-0.089844 0.57031 0l0.16016 0.070312c0.17969 0.078126 0.31641 0.23828 0.37109 0.42969 0.035157 0.17188 0 0.35547-0.10156 0.5 0 0-2.5586 3.5 1 11.191l0.21875 0.51953h0.55859c8.4492 0.44141 10.738-3.1992 10.762-3.2383v-0.003906c0.10156-0.16797 0.27344-0.28125 0.46875-0.30859 0.19531-0.023437 0.39063 0.042969 0.53125 0.17969l0.12109 0.12109c0.14453 0.14062 0.21484 0.33984 0.19141 0.53906-0.03125 0.19922-0.14844 0.375-0.32031 0.48047 0 0-3.6797 2.3008-3.2383 10.762l-0.003907-0.003907c0.019532 0.375 0.019532 0.75 0 1.1211 0.33984 0.12891 0.67969 0.26953 1 0.44141 7.5898 3.75 11.129 1.3008 11.172 1.2812v-0.003906c0.15625-0.10547 0.35547-0.13672 0.53906-0.078125 0.19141 0.058594 0.35156 0.19531 0.42969 0.37891l0.058593 0.16016c0.074219 0.1875 0.058594 0.39844-0.046875 0.57031-0.10156 0.17578-0.28125 0.29297-0.48047 0.3125 0 0-4.2891 0.67188-7.2305 8.6094-0.058594 0.17969-0.14062 0.35156-0.21094 0.51953 0.12891 0.12891 0.26172 0.26172 0.39062 0.41016 5.6719 6.2812 9.8594 5.3281 9.9102 5.3203 0.19531-0.050781 0.39844-0.011719 0.55859 0.10938 0.16797 0.125 0.26562 0.32031 0.26953 0.53125zm-16.531-17.191c-1.0508 5.8984-7.1094 7.5586-9.4297 8 0.42188 0.85547 0.78906 1.7383 1.0977 2.6406 2-1.3906 7.7188-4.6211 12.719-0.71094h0.003907c0.90625-2.7773 2.4609-5.2969 4.5273-7.3594-2.918-0.10547-5.7695-0.89453-8.3281-2.3008-0.19922-0.10156-0.39063-0.19141-0.58984-0.26953zm-7.3906 14.758c1.6602 0.51172 8.2695 1.8906 11.27-3.6172-4.8086-4-10.43-0.23828-11.781 0.78906 0.24219 0.92969 0.41406 1.875 0.51172 2.8281zm-0.078125 5.5781-0.003906 0.003906c-0.10547 0.76563-0.25781 1.5234-0.45703 2.2695 1.3203 1 6.6211 4.5781 11.32 1.1484-2.9727-5.0078-9.25-3.8164-10.863-3.418zm-4.2109 9.8203c0.83984 1.5 4.5 7.1719 10.5 5.3711-0.55078-6.2305-7.1719-7.5312-8.8789-7.7617l-0.003906 0.003906c-0.48828 0.83203-1.0273 1.6289-1.6172 2.3906zm1.5586-23.375c1.6094-0.21875 7.9297-1.4297 8.8281-7.1992-5.6719-1.4492-9.2812 3.8906-10.109 5.2812v-0.003906c0.46484 0.61328 0.89453 1.2539 1.2812 1.9219zm-4.1289-5c0.70703 0.62109 1.375 1.2891 2 2 1.3008-2 5.2188-6.8789 11-5.5195v-0.64844-0.003906c-0.25781-2.9141 0.17578-5.8438 1.2578-8.5586-2.6875 1.0625-5.5898 1.4805-8.4688 1.2188h-0.058594c1.6172 6.2109-3.6016 10.18-5.6914 11.461zm-1.6016 15.488 2-2c0.25391-0.25391 0.25391-0.66406 0-0.92188-0.25391-0.25391-0.66406-0.25391-0.91797 0l-2 2-2.8594-2.8594 0.91016-0.92188 1.0586-1.0586c0.25391-0.25391 0.25391-0.66406 0-0.91797-0.25391-0.25391-0.66797-0.25391-0.92188 0l-2 2-2.8398-2.8711 2-2c0.25391-0.25391 0.25391-0.66406 0-0.91797-0.25391-0.25391-0.66406-0.25391-0.91797 0l-2 2-2.8594-2.8594 2-2c0.25391-0.25781 0.25391-0.66797 0-0.92188-0.25781-0.25391-0.66797-0.25391-0.92188 0l-2 2-2-2c-0.25391-0.25391-0.66406-0.25391-0.92188 0-0.25391 0.25391-0.25391 0.66406 0 0.92188l2 2-2.8594 2.8594-2-2c-0.25391-0.25391-0.66406-0.25391-0.91797 0-0.25391 0.25391-0.25391 0.66406 0 0.91797l2 2-2.8711 2.8711-2-2c-0.25391-0.25391-0.66406-0.25391-0.91797 0-0.25391 0.25391-0.25391 0.66406 0 0.91797l1.0586 1.0586 0.91016 0.92188-2.832 2.8828-2-2c-0.25391-0.25391-0.66406-0.25391-0.91797 0-0.25391 0.25391-0.25391 0.66406 0 0.91797l2 2-2 2c-0.125 0.12109-0.19531 0.28516-0.19531 0.45703 0 0.17188 0.070313 0.33594 0.19531 0.45313 0.12109 0.125 0.28516 0.19531 0.46094 0.19141 0.17188 0 0.33594-0.070313 0.45703-0.19141l2-2 2.8594 2.8594-2 2h0.003907c-0.25 0.25781-0.25 0.66406 0 0.92188 0.12109 0.12109 0.28516 0.19141 0.45703 0.19141s0.33984-0.070313 0.46094-0.19141l2-2 2.8711 2.8711-2 2v-0.003906c-0.25 0.25781-0.25 0.66406 0 0.92188 0.12109 0.12109 0.28516 0.19141 0.46094 0.19141 0.17188 0.003906 0.33984-0.066406 0.45703-0.19141l1.0586-1.0586 0.92188-0.91016 2.8594 2.8594-2 2c-0.125 0.12109-0.19531 0.28516-0.19531 0.46094 0 0.17188 0.070313 0.33594 0.19531 0.45703s0.28906 0.19141 0.46094 0.19141c0.17188-0.003906 0.33594-0.074219 0.46094-0.19141l2-2 2 2c0.125 0.11719 0.28906 0.1875 0.46094 0.19141 0.17188 0 0.33594-0.070312 0.45703-0.19141 0.125-0.12109 0.19531-0.28516 0.19531-0.45703 0-0.17578-0.070312-0.33984-0.19531-0.46094l-2-2 2.8594-2.8594 0.92188 0.91016 1.0586 1.0586c0.12109 0.125 0.28906 0.19531 0.46094 0.19141 0.17188 0 0.33984-0.070312 0.46094-0.19141 0.25-0.25781 0.25-0.66406 0-0.92188l-2-2 2.8711-2.8711 2 2v0.003907c0.12109 0.12109 0.28516 0.19141 0.45703 0.19141 0.17578 0 0.33984-0.070313 0.46094-0.19141 0.25-0.25781 0.25-0.66406 0-0.92188l-2-2 2.8594-2.8594 2 2c0.125 0.12109 0.28906 0.19141 0.46094 0.19141 0.17188 0.003906 0.33984-0.066406 0.46094-0.19141 0.125-0.11719 0.19531-0.28125 0.19531-0.45313 0-0.17187-0.070312-0.33594-0.19531-0.45703zm6-27c-6.3086 0.57031-7.5508 7.25-7.7695 8.9102 0.82422 0.48438 1.6172 1.0195 2.3711 1.6094 1.4492-0.75781 7.1992-4.418 5.3906-10.461zm-10.598-5.1016c3.4297 4.9219 0.32031 10.379-1 12.32 0.90625 0.30859 1.793 0.67969 2.6484 1.1094 0.44141-2.3906 2.1914-8.7383 8.5-9.5195v-0.058594c-1.3203-2.6055-2.0039-5.4883-2-8.4102-2.1172 2.0156-4.6797 3.4961-7.4805 4.332zm-4.6016 11.469v0.003906c0.76172 0.10938 1.5156 0.26562 2.2578 0.45703 1-1.2812 4.6094-6.6094 1.1602-11.34-5.0391 2.9805-3.8086 9.3125-3.418 10.883zm-8.2695-12.297c5.5 3.2188 4.5898 9.75 4 12.109 0.39062 0 0.76953-0.058594 1.1602-0.058594 0.57812 0 1.1484 0 1.7109 0.089844-0.46094-2.3203-1.1719-8.5586 3.9219-11.73-0.14844-0.14844-0.30078-0.30078-0.46875-0.44922h-0.003906c-2.2305-1.875-3.9844-4.25-5.1211-6.9297-1.1523 2.6719-2.9219 5.0352-5.1602 6.8984zm-0.12891 12.762v-0.003906c0.92578-0.24609 1.8672-0.42578 2.8164-0.53906 0.45312-1.6289 1.9102-8.2891-3.6172-11.289-4.0508 4.8711-0.21094 10.512 0.80078 11.828zm-11.941-8c5.9219 1.0508 7.5703 7.1289 8 9.4492 0.85938-0.42578 1.7422-0.79297 2.6484-1.1016-1.3789-2-4.6289-7.7188-0.71875-12.73-2.7773-0.91016-5.2969-2.4609-7.3594-4.5273-0.097656 2.9297-0.88672 5.7969-2.3008 8.3672-0.10156 0.19922-0.19141 0.39063-0.26953 0.58203zm4.8594 11.371v-0.003906c0.61719-0.43359 1.2578-0.83203 1.9219-1.1992-0.21875-1.6016-1.4219-7.9297-7.1992-8.8281-1.4727 5.6484 3.8867 9.25 5.2773 10.066zm-15.809-11.422c1.0703 2.7188 1.4883 5.6484 1.2188 8.5586v0.058594c6.1719-1.6211 10.141 3.6406 11.422 5.6914 0.61719-0.71094 1.2852-1.3789 2-2-2-1.3086-6.8906-5.2305-5.5195-11.059h-0.65234c-2.8828 0.24609-5.7812-0.18359-8.4688-1.25zm11.801 15.352c-0.82812-1.4609-4.4883-7.1992-10.52-5.3906 0.55859 6.2617 7.2305 7.5391 8.8984 7.7695 0.48828-0.82812 1.0273-1.625 1.6172-2.3828zm-1.6406 23.367c-1.6484 0.21875-7.9102 1.4492-8.8086 7.1914 5.6406 1.4492 9.2383-3.8281 10.09-5.25h-0.003906c-0.46094-0.625-0.88672-1.2734-1.2773-1.9414zm-14.27-18.781c0.078125 0.21094 0.14844 0.41016 0.23828 0.60938 4.8984-3.4219 10.352-0.32812 12.301 1 0.30859-0.90234 0.67578-1.7812 1.0977-2.6367-2.3906-0.44141-8.7188-2.1797-9.5-8.5h-0.058594c-2.6055 1.3203-5.4883 2.0039-8.4102 2 2.0195 2.1289 3.5039 4.7109 4.332 7.5273zm12.148 2.9414c-1.3086-1-6.6211-4.5781-11.328-1.1484 3 5 9.2695 3.8203 10.859 3.4219v-0.003906c0.11328-0.76563 0.26953-1.5234 0.46875-2.2695zm-0.55859 7.8516c-1.6602-0.46094-8.2617-1.8828-11.262 3.6172 4.8008 4 10.41 0.25 11.77-0.78906-0.23047-0.92969-0.40234-1.875-0.50781-2.8281zm-12.262 2.6484v0.050782c3.2109-5.4883 9.7109-4.6016 12.078-4.0586v-1.1289c0-0.57813 0-1.1602 0.089844-1.7305l0.003906-0.003907c-1.0508 0.21094-2.1211 0.32031-3.1914 0.32031-2.7891 0-6.3594-0.78906-8.5117-4.25-0.14844 0.14844-0.30859 0.30859-0.46094 0.48047h0.003907c-1.8672 2.2383-4.2344 4.0078-6.9102 5.1602 2.6719 1.1523 5.0352 2.9219 6.8984 5.1602zm4.8516 12.109c1.0508-5.8789 7.0781-7.5508 9.4102-8-0.42578-0.84766-0.78906-1.7266-1.0898-2.6289-2.1602 1.5508-4.7188 2.4414-7.3711 2.5703-1.9414 0-3.8281-0.66406-5.3398-1.8828v0.0625c-0.91016 2.7734-2.4609 5.2969-4.5312 7.3594 2.9258 0.082031 5.7891 0.85547 8.3594 2.25 0.19922 0.10156 0.39063 0.19141 0.58984 0.26953zm14.191-1.7109h-0.003907c-0.71094-0.61719-1.3789-1.2852-2-2-1.1602 1.7383-4.3281 5.7305-9 5.7305-0.6875-0.015624-1.3711-0.11328-2.0391-0.28906v0.64844c0.25781 2.9141-0.17578 5.8477-1.2617 8.5625 2.7305-1.082 5.6797-1.4961 8.6016-1.2109h0.058594c-1.6094-6.1797 3.6016-10.141 5.6719-11.441zm-4.3125 11.363c6.2383-0.57031 7.5391-7.1602 7.7695-8.8516-0.83594-0.48437-1.6328-1.0273-2.3906-1.6289-1.5078 0.84766-7.1094 4.5-5.3789 10.48zm10.602 5.1797c-3.4102-4.8906-0.35156-10.32 1-12.289l-0.003906-0.003906c-0.90234-0.30078-1.7812-0.66797-2.6289-1.0977-0.44922 2.4219-2.2188 8.7188-8.4883 9.4883 1.3203 2.6094 2.0039 5.4883 2 8.4102 2.1172-2.0117 4.6797-3.4961 7.4805-4.3281zm4.6094-11.43c-0.77344-0.11328-1.5391-0.26953-2.293-0.47266-1 1.3398-4.5586 6.6211-1.1406 11.309 4.9922-2.9492 3.832-9.1992 3.4336-10.836zm8.2578 12.258c-5.4688-3.1992-4.6016-9.6719-4.0508-12.059h-1.1484c-0.57812 0-1.1406 0-1.6992-0.078125 0.46094 2.3398 1.1289 8.5312-3.9297 11.68 0.14844 0.14844 0.30078 0.30078 0.46875 0.44922 2.25 1.8828 4.0156 4.2773 5.1602 6.9766 1.1523-2.6719 2.9219-5.0352 5.1602-6.8984zm0.14844-12.73h0.003906c-0.9375 0.25391-1.8906 0.44141-2.8516 0.5625-0.5 1.6875-1.8516 8.2383 3.6289 11.238 4.0117-4.8281 0.28125-10.41-0.77734-11.801zm11.922 7.9219c-5.8984-1-7.5508-7.0586-8-9.3984v-0.003906c-0.84766 0.42578-1.7227 0.78906-2.6211 1.0898 1.3906 2 4.5781 7.7109 0.69141 12.699v0.003907c2.7773 0.90625 5.2969 2.4609 7.3594 4.5273 0.10547-2.918 0.89062-5.7695 2.3008-8.3281 0.10156-0.19922 0.19141-0.39063 0.26953-0.58984zm-4.8281-11.34c-0.62109 0.46094-1.2695 0.89062-1.9414 1.2891 0.21875 1.6602 1.4414 7.8906 7.1914 8.7891 1.457-5.6406-3.8203-9.2305-5.25-10.078zm15.777 11.438c-1.0703-2.7188-1.4883-5.6484-1.2188-8.5586v-0.058594c-0.74609 0.19922-1.5156 0.30469-2.2891 0.30859-4.8516 0-8-4.1797-9.1094-6-0.625 0.71094-1.293 1.3789-2 2 2 1.3281 6.8516 5.2383 5.4883 11h0.64844c2.8906-0.23047 5.7969 0.21875 8.4805 1.3086zm4.1094-19.941-0.23828-0.62109v0.003906c-1.4336 1.0234-3.1562 1.5742-4.918 1.5703-2.6562-0.12891-5.2148-1.0195-7.3711-2.5703-0.30078 0.90234-0.66797 1.7812-1.0898 2.6289 2.3984 0.44141 8.7109 2.1992 9.4805 8.5h0.058594c2.6055-1.3203 5.4883-2.0039 8.4102-2-2.0195-2.125-3.5039-4.6992-4.332-7.5078zm7.5703-8.2773c-2.6719-1.1523-5.0352-2.9219-6.8984-5.1602-2.1094 3.6211-5.6602 4.4609-8.5117 4.4609-1.2031-0.007812-2.4023-0.14453-3.5781-0.41016 0 0.39062 0.058594 0.78125 0.058594 1.1719 0 0.57031 0 1.1289-0.078125 1.6914 2.3281-0.46875 8.5391-1.1484 11.699 3.9219 0.14844-0.14844 0.30078-0.30078 0.44922-0.46875v-0.007812c1.8477-2.2461 4.1992-4.0273 6.8594-5.1992zm-39 3.8008 2.8594 2.8711 2.8711-2.8711-2.8711-2.8594zm-3.7812 3.7891 2.8828 2.8594 2.8594-2.8594-2.8594-2.8711zm7.582-7.5898 2.8711 2.8711 2.8594-2.8711-2.8594-2.8594zm-1.8398-7.5703-2.8594-2.8398-2.8594 2.8594 2.8594 2.8711zm-6.6406 8.4883-2.8672 2.8828 2.8711 2.8711 2.8594-2.8711zm-3.7891-3.7812-2.8594 2.8633 2.8594 2.8711 2.8711-2.8711zm6.6484-0.92188-2.8594-2.8711-2.8711 2.8711 2.8711 2.8594z"/>
<text x="0.0" y="117.5" font-size="5.0" font-weight="bold" font-family="Arbeit Regular, Helvetica, Arial-Unicode, Arial, Sans-serif" fill="#000000">Created by Dierys Design</text><text x="0.0" y="122.5" font-size="5.0" font-weight="bold" font-family="Arbeit Regular, Helvetica, Arial-Unicode, Arial, Sans-serif" fill="#000000">from Noun Project</text></svg>