<svg xmlns="http://www.w3.org/2000/svg" version="1.1" viewBox="-5.0 -10.0 110.0 135.0">
 <path d="m50.094 32.395c-0.55469 0-1-0.44531-1-1v-21.152c0-0.55469 0.44531-1 1-1s1 0.44531 1 1v21.156c0 0.54687-0.44531 0.99609-1 0.99609zm0.90625 57.363v-21.055c0-0.55469-0.44531-1-1-1s-1 0.44531-1 1v21.059c0 0.55469 0.44531 1 1 1 0.55469-0.003907 1-0.44922 1-1.0039zm6.6914-12.309c0.53125-0.15625 0.82812-0.71484 0.67188-1.2422l-2.5-8.3672c-0.16016-0.53125-0.71484-0.82812-1.2422-0.67188-0.53125 0.15625-0.82812 0.71484-0.67188 1.2422l2.5 8.3672c0.12891 0.43359 0.52734 0.71484 0.95703 0.71484 0.09375 0 0.1875-0.015626 0.28516-0.042969zm13.129 7.6758c0.46875-0.29297 0.60938-0.91406 0.3125-1.3789l-11.25-17.883c-0.29687-0.46875-0.91406-0.60938-1.3789-0.3125-0.46875 0.29297-0.60938 0.91406-0.3125 1.3789l11.25 17.883c0.19141 0.30469 0.51562 0.46875 0.84766 0.46875 0.17969 0 0.36719-0.050781 0.53125-0.15625zm-0.21875-14.551c0.39844-0.38281 0.40625-1.0156 0.023438-1.4141l-6.3477-6.5391c-0.38672-0.39844-1.0156-0.40625-1.4141-0.023438-0.39844 0.38281-0.40625 1.0156-0.023437 1.4141l6.3477 6.5391c0.19531 0.20312 0.45703 0.30469 0.71875 0.30469 0.25 0 0.5-0.09375 0.69531-0.28125zm14.875 0.078125c0.28125-0.47656 0.125-1.0898-0.35156-1.3711l-18.559-10.961c-0.47656-0.27734-1.0898-0.12109-1.3711 0.35156-0.28125 0.47656-0.125 1.0898 0.35156 1.3711l18.559 10.961c0.16016 0.09375 0.33594 0.14062 0.50781 0.14062 0.34375 0 0.67578-0.17578 0.86328-0.49219zm-7.6094-12.492c0.17969-0.52344-0.10156-1.0898-0.625-1.2695-8.9062-3.0352-9.1562-3.0352-9.3594-3.0352-0.55469 0-1 0.44531-1 1 0 0.50391 0.37109 0.91797 0.85156 0.98828 0.63281 0.15625 5.7461 1.875 8.8633 2.9375 0.10547 0.039062 0.21484 0.054688 0.32031 0.054688 0.42188 0 0.80859-0.26172 0.94922-0.67578zm13.133-7.918c0-0.55469-0.44531-1-1-1h-20.961c-0.55469 0-1 0.44531-1 1 0 0.55469 0.44531 1 1 1h20.961c0.55469 0 1-0.44922 1-1zm-22.566-4.2266 8.5586-2.3086c0.53125-0.14453 0.84766-0.69531 0.70312-1.2266-0.14453-0.53125-0.69141-0.84766-1.2266-0.70312l-8.5586 2.3086c-0.53125 0.14453-0.84766 0.69531-0.70312 1.2266 0.12109 0.44531 0.52344 0.73828 0.96484 0.73828 0.085937-0.003906 0.17188-0.011719 0.26172-0.035156zm-1.9922-4.7031 18.652-10.191c0.48438-0.26562 0.66406-0.875 0.39844-1.3594-0.26563-0.48438-0.875-0.66406-1.3594-0.39844l-18.648 10.191c-0.48438 0.26562-0.66406 0.875-0.39844 1.3594 0.17969 0.33203 0.52344 0.51953 0.87891 0.51953 0.16016 0 0.32422-0.039063 0.47656-0.12109zm-2.5-3.8906 6.3438-5.7695c0.40625-0.37109 0.4375-1.0039 0.066406-1.4141-0.37109-0.40625-1.0039-0.4375-1.4141-0.066406l-6.3438 5.7695c-0.40625 0.37109-0.4375 1.0039-0.066406 1.4141 0.19531 0.21875 0.46875 0.32812 0.74219 0.32812 0.23828 0 0.48047-0.085938 0.67188-0.26172zm-3.7617-3.3906 11.152-18.27c0.28906-0.47266 0.14062-1.0859-0.33203-1.375-0.47266-0.28906-1.0859-0.14062-1.375 0.33203l-11.152 18.27c-0.28906 0.47266-0.14062 1.0859 0.33203 1.375 0.16406 0.10156 0.34375 0.14844 0.51953 0.14844 0.33984-0.003907 0.66797-0.17188 0.85547-0.48047zm-4.3008-2.125 1.9219-8.4609c0.12109-0.53906-0.21484-1.0742-0.75391-1.1953-0.53516-0.12109-1.0742 0.21484-1.1953 0.75391l-1.9219 8.4609c-0.125 0.53516 0.21484 1.0703 0.75391 1.1914 0.074218 0.015625 0.14844 0.023438 0.22266 0.023438 0.45312 0.003906 0.86719-0.3125 0.97266-0.77344zm-12.324 44.871 2.5-8.3672c0.15625-0.53125-0.14063-1.0859-0.67188-1.2422s-1.0859 0.14062-1.2422 0.67188l-2.5 8.3672c-0.15625 0.53125 0.14062 1.0859 0.67188 1.2422 0.09375 0.027343 0.19141 0.042969 0.28516 0.042969 0.42969 0 0.82422-0.28125 0.95703-0.71484zm-12.996 8.0352 11.25-17.883c0.29297-0.46875 0.15234-1.0859-0.3125-1.3789s-1.0859-0.15234-1.3789 0.3125l-11.25 17.883c-0.29297 0.46875-0.15234 1.0859 0.3125 1.3789 0.16406 0.10156 0.35156 0.15234 0.53125 0.15234 0.33203 0.003906 0.65625-0.16406 0.84766-0.46484zm0.25391-14.262 6.3477-6.5391c0.38281-0.39844 0.375-1.0312-0.023437-1.4141-0.39844-0.38281-1.0312-0.375-1.4141 0.023438l-6.3477 6.5391c-0.38281 0.39844-0.375 1.0312 0.023438 1.4141 0.19531 0.1875 0.44531 0.28125 0.69531 0.28125 0.26172 0 0.52344-0.10156 0.71875-0.30469zm-14.918 0.45703 18.559-10.961c0.47656-0.28125 0.63281-0.89453 0.35156-1.3711-0.28125-0.47656-0.89063-0.63281-1.3711-0.35156l-18.559 10.957c-0.47656 0.28125-0.63281 0.89453-0.35156 1.3711 0.1875 0.31641 0.51953 0.49219 0.86328 0.49219 0.17188 0 0.34766-0.042969 0.50781-0.13672zm7.5039-12.227c3.1172-1.0625 8.2266-2.7812 8.8633-2.9375 0.48438-0.070312 0.85156-0.48438 0.85156-0.98828 0-0.55469-0.44531-1-1-1-0.20312 0-0.45312 0-9.3594 3.0352-0.52344 0.17969-0.80469 0.74609-0.625 1.2695 0.14062 0.41406 0.53125 0.67969 0.94531 0.67969 0.10938-0.003906 0.21875-0.019532 0.32422-0.058594zm8.5625-8.5391c0-0.55469-0.44531-1-1-1h-20.961c-0.55469 0-1 0.44531-1 1 0 0.55469 0.44531 1 1 1h20.961c0.55469 0 1-0.44922 1-1zm0.83203-4.9336c0.14453-0.53125-0.17188-1.082-0.70312-1.2266l-8.5586-2.3086c-0.53516-0.14453-1.082 0.17187-1.2266 0.70312-0.14453 0.53125 0.17187 1.082 0.70312 1.2266l8.5586 2.3086c0.085938 0.023437 0.17578 0.035156 0.26172 0.035156 0.44141 0 0.84375-0.29297 0.96484-0.73828zm2.1211-4.3945c0.26563-0.48437 0.085938-1.0938-0.39844-1.3594l-18.652-10.191c-0.48438-0.26562-1.0938-0.085937-1.3594 0.39844s-0.085937 1.0938 0.39844 1.3594l18.652 10.191c0.15234 0.082031 0.31641 0.12109 0.47656 0.12109 0.35938 0 0.70312-0.19141 0.88281-0.51953zm2.5547-3.5586c0.37109-0.41016 0.33984-1.0391-0.066406-1.4141l-6.3438-5.7695c-0.40625-0.37109-1.0391-0.33984-1.4141 0.066406-0.37109 0.41016-0.33984 1.0391 0.066407 1.4141l6.3438 5.7695c0.19141 0.17188 0.43359 0.25781 0.67187 0.25781 0.27344 0.003906 0.54688-0.10938 0.74219-0.32422zm3.7266-2.9922c0.46875-0.28906 0.62109-0.90234 0.33203-1.375l-11.152-18.27c-0.28906-0.47266-0.90234-0.62109-1.375-0.33203-0.46875 0.28906-0.62109 0.90234-0.33203 1.375l11.152 18.27c0.1875 0.30859 0.51563 0.47656 0.85547 0.47656 0.17578 0 0.35547-0.046874 0.51953-0.14453zm4.1211-1.707c0.53906-0.12109 0.87891-0.65625 0.75391-1.1953l-1.9219-8.4609c-0.125-0.53906-0.66406-0.875-1.1953-0.75391-0.53906 0.125-0.875 0.65625-0.75391 1.1953l1.9219 8.4609c0.10547 0.46484 0.51953 0.77734 0.97656 0.77734 0.070313 0.003906 0.14453-0.003907 0.21875-0.023438zm18.777 17.68c0-7.8789-6.4102-14.289-14.289-14.289-7.8789 0-14.289 6.4102-14.289 14.289 0.003906 7.8789 6.4141 14.289 14.293 14.289s14.285-6.4102 14.285-14.289z"/>
<text x="0.0" y="117.5" font-size="5.0" font-weight="bold" font-family="Arbeit Regular, Helvetica, Arial-Unicode, Arial, Sans-serif" fill="#000000">Created by Pong Pong</text><text x="0.0" y="122.5" font-size="5.0" font-weight="bold" font-family="Arbeit Regular, Helvetica, Arial-Unicode, Arial, Sans-serif" fill="#000000">from Noun Project</text></svg>