<svg xmlns="http://www.w3.org/2000/svg" version="1.1" viewBox="-5.0 -10.0 110.0 135.0">
 <path d="m85.953 37.695c0.26562 3.0781 0.45703 6.1797 0.42969 9.2031-0.007812 0.58594-0.48828 1.0664-1.0742 1.0547-6.5078-0.11328-15.801-1.8945-16.746 3.4062-0.75781 4.2266 7.6484 5.4961 14.387 5.8438 1.0586 0.054687 1.7539 1.125 1.3594 2.1094-0.80469 2.0273-2.1602 5.1914-3.6758 7.9844-0.71094 1.3125-2.207 2.0039-3.6719 1.707-7.5273-1.5195-16.531-4.8359-18.312-1.8828-2.2617 3.7461 2.2812 9.3281 10.492 11.031 0.95312 0.19922 1.2461 1.4336 0.44531 1.9844-3.9922 2.7422-8.6797 4.3828-14.188 4.4141-9.9961 0.0625-15.648-5.6055-18.598-10.191-2.2852 5.4258-4.3555 10.941-6.2266 16.516-0.27344 0.82031-1.0312 1.3711-1.8984 1.375h-0.0625c-1.3906 0.003906-2.3828-1.3633-1.9336-2.6758 4.8633-14.262 11.016-28.133 18.918-40.934 8.3594-13.426 18.898-26.047 32.742-33.973 1.7031-1.0195 0.24219-3.5156-1.4648-2.6211-22.227 12.785-36.773 34.961-47.242 58.27-4.7305 1.2305-10.094-0.80469-12.707-3.9766-2.1328-2.5898-3.7539-7.8047-3.8984-14.086-0.023438-0.98438 1.1523-1.4961 1.8867-0.83984 7.6016 6.8086 14.977 6.4766 15.84 3.2227 1.125-4.25-2.4961-5.0352-7.1133-7.5469-2.7227-1.4805-5.1328-3.6211-7.0781-5.7188-1.1328-1.2188-1.5078-2.9648-0.92188-4.5195 1.6484-4.375 4.1562-8.7109 7.7578-12.621 1.1328-1.2305 2.3398-2.3789 3.6055-3.4531 1.0234-0.87109 2.5977-0.35547 2.9453 0.94141 2.2812 8.4375 6.5 14.715 10.797 12.535 4.1562-2.1094-0.53125-10.559-2.7734-17.977-0.38281-1.2656 0.23438-2.6406 1.4453-3.1641 3.4219-1.4805 7.0195-2.6328 10.711-3.5 0.71094-0.16797 1.375 0.42188 1.3008 1.1523-0.46094 4.5352-0.4375 11.312 3.8555 10.965 4.2969-0.34766 5.8242-7.9844 6.3672-13.012 0.058594-0.53125 0.48047-0.94922 1.0117-0.98438 7.3281-0.50781 14.656-0.066406 21.367 1.0898 1.4805 0.25391 2.3438 1.8125 1.7695 3.1992-1.6328 3.9297-1.3867 9.6797-0.78125 16.098 0.054688 0.57812-0.35156 1.1094-0.92969 1.1797-4.3945 0.54297-10.926 2.043-10.996 6.1914-0.070312 3.9961 6.6445 2.7227 11.504 1.2812 0.64844-0.19141 1.3086 0.25781 1.3633 0.93359z"/>
<text x="0.0" y="117.5" font-size="5.0" font-weight="bold" font-family="Arbeit Regular, Helvetica, Arial-Unicode, Arial, Sans-serif" fill="#000000">Created by Ayub Irawan</text><text x="0.0" y="122.5" font-size="5.0" font-weight="bold" font-family="Arbeit Regular, Helvetica, Arial-Unicode, Arial, Sans-serif" fill="#000000">from Noun Project</text></svg>