<?xml version="1.0" encoding="UTF-8"?>
<svg id="Layer_1" xmlns="http://www.w3.org/2000/svg" version="1.1" viewBox="0 0 344.69 279">
  <!-- Generator: Adobe Illustrator 30.6.0, SVG Export Plug-In . SVG Version: 2.1.4 Build 109)  -->
  <defs>
    <style>
      .st0 {
        fill-rule: evenodd;
      }

      .st0, .st1 {
        fill: #6b1831;
        stroke: #6b1831;
        stroke-linecap: round;
        stroke-linejoin: round;
      }
    </style>
  </defs>
  <path class="st0" d="M65.5,188.5l-8-10h0c1,2,1,4,1,6l1,2c1,1,3,1,4,2,0,0,2,1,3,1l-1-1h0ZM47.5,159.5s-1,0-2,1v-1h0l2-1v1ZM41.5,164.5l-1,1c-1-1-5-2-6-1,0,0-2-1-3-1l-2-1c1-1,1-2,1-3,0,0-1,2-2,3h-3c0-3-1-4-1-4v4l-5-1c0-1-1-2-1-2,0,0,0,1,1,2l-3-1h-1l4-4c2-2,3-3,3-4,0,0-2,3-4,5-1,0-2,1-3,1,0-1,1-3,1-4,1-3,1-4,1-5v-1h1c3,1,5,3,8,5-2,1-3,2-4,2,0,0,3-1,5-2l2,2c-1,2-3,4-3,4,0,0,2-2,3-4h0l3,2c1,2,1,4,1,4v-4l1,1c1,1,5,5,7,6ZM40.5,167.5c0,1-1,1-1,2h-13l2-2,6-2s-2,0-4,1-3,1-4,2c0-1,1-3,2-4v-1l6,1c1,1,4,2,6,3ZM39.5,169.5v1c-1,0-2,0-4,1,0-1-4-1-6-1l-1-1h11ZM40.5,172.5v1h0l-1-1h1ZM41.5,175.5c0,1,1,1,1,1l-1,1v-2h0ZM42.5,177.5l1,1h-1v-1h0ZM45.5,179.5h0v1h-1l1-1ZM58.5,178.5v-1c2,1,4,3,5,4l3,1,1,1v5c-1-1-2-2-3-4s-2-3-3-4c0,0,3,4,3,6,1,0,1,1,1,1-3-3-5-6-7-9ZM60.5,175.5s0-1,1-1,2,1,3,1c-1,0-1,1-1,1,1,0,1-1,1-1h3l1,1h-2,4l3,1-1,1c-1,2-2,3-3,4l5-5h0l2,1-1,2v5s0-4,1-7h2l1,2,2,4-2-6,6,2h1-1c-1,1-2,3-3,4-2,2-4,3-4,3,0,1,3-2,5-4,1,0,2-1,3-1-1,1-1,2-2,4v5l-1,1h-1c-2-1-5-3-7-5,1-1,2-1,2-1,0,0-1,0-3,1l-3-2,3-3-3,3-3-2c0-2,0-4-1-4v3h0c-2-3-5-5-7-7ZM61.5,172.5h3v1c-1-1-2-1-3-1ZM61.5,171.5v-2h3v2h-3ZM61.5,167.5v-1l2-1h2l-2,2h-2ZM61.5,165.5h-1,2-1ZM59.5,162.5h-1l1-1h1l-1,1ZM56.5,160.5h0ZM55.5,159.5h0l1,1c0-1-1-1-1-1ZM52.5,159.5v-1h0v-1h1l-1,2ZM51.5,158.5h-1v-1h0l1,1ZM46.5,180.5l-1,1h1v-1ZM45.5,182.5h0ZM55.5,190.5c1-1,1-2,1-2,0,0,0,1-1,2v5c2-1,4,0,4,0h-4v3c2,1,4,1,4,1h-4c1,3,1,6,2,9h3c1-1,2-1,3-2s2-1,4-2c-1,0-3-1-3-1h-7c1,0,2-1,5,0h5c-1-1-3-2-4-3v1-1l-3-3s2,1,3,3c1-1,1-2,1-4l-1-2c-2,1-5,3-5,3,0,0,2-2,4-3v-1l-1-2h-5s2,0,5-1h0l-2-2-1-2c0-1-1-1-1-1h1v-1s-1,0-2-2c0-1-1-1-1-2v10ZM47.5,184.5h0l-1,1,1,1v-2ZM47.5,187.5l-1-1h-1c1,2,1,3,2,5v-4ZM45.5,185.5l-1-1v3l1-2h0ZM45.5,189.5v4l2,1v-2c-1,0-1-1-1-2s-1-2-1-3v2ZM46.5,194.5h-1l-1-1v-1l-1,3h4l-1-1ZM45.5,192.5s0-1-1-2v2h1ZM44.5,189.5c0-2-1-3-1-5l-1,3h-1c0,1,0,2-1,2,1,1,2,1,3,2l1-2h0ZM40.5,190.5c0,1-1,2-1,3l1,1s-1,0-1-1v1-1c-1-1-2-2-4-3l-1,3,2,4-2-4-6,9h1c1,1,3,2,4,3l2,2c1-1,3-1,4-2-1,0-9-3-9-2,2-1,7,1,9,1,0-1-6-7-6-7,2,1,6,5,7,7h1l1-5-4,2c1,0,2-1,4-2v-4h-5,6v-3c-1-1-2-2-3-2ZM39.5,193.5c0-1,0-2,1-4h-1,1l1-2h-4l-1,3h0l3,3ZM41.5,187.5c0-1,1-2,1-3-1,0-2,1-3,1h0l-1,1v1h3ZM37.5,187.5h0ZM36.5,187.5l-2,2h1l1-1v-1h0ZM34.5,189.5l-1,1v-1h-1c1,1,1,2,1,2l1,1,1-2h0l-1-1ZM34.5,189.5c0-1,1-1,1-1h-2s1,0,1,1ZM36.5,187.5l1-1,1-1h0l1-3h0c-1,1-2,1-2,2-2,1-3,2-4,3h3ZM38.5,182.5h-1l-3,3,1-1c1,0,2-1,3-2ZM36.5,182.5h-3v1s-1,2-1,3l1-1h0l3-3ZM33.5,182.5h-2,2v-1c1-2,2-3,2-4v1l-5,2v1c1,1,1,3,1,4,1-1,1-2,2-3ZM33.5,182.5h4l2-3h0c-1,0-2-1-3-2h-1c0,1-1,3-2,5ZM37.5,182.5l2-1h1l-1-1-2,2ZM39.5,181.5h1-1ZM35.5,177.5l-2-2s1,1,2,1c0,0,1,0,2-1l2-2v-1c-3,1-6,1-9,1h-1c1,2,4,3,4,3-1,0-2-1-4-2l-1-1-3,1,1,1v5s0-4-1-6h-2l-2,6c0-1,0-2,1-5v-1l-5,2c-1,0-1,1-1,1v-1l-4,1h0v1c0,1,1,3,1,5h0v1c1,1,2,2,3,4v-4c1-2,0-6,0-6,0,1,1,2,1,5v4c1-1,1-2,2-3,2-2,3-4,4-4,0,0-3,3-4,5,0,1-1,2-1,3h0c1,0,1-1,1-1l4-2c-2-1-3-1-3-1,0,0,1,0,3,1l4-3c-2-2-4-3-4-3,1,0,2,1,4,3l3-2c0-2-1-4-1-4,0,0,1,2,1,4l2-1c0-1,3-2,3-2h0ZM36.5,177.5l2,1,1,1,2-2h0s0-1-1-2c-1,1-2,2-4,2ZM40.5,179.5l1,1,1-1-1-1-1,1ZM61.5,164.5c1,0,2,0,3-1h-1l-2,1ZM60.5,161.5h-1,1ZM59.5,160.5l1,1h1c1,0,1-1,2-1l-1-2v-1l-3,3ZM64.5,162.5h1-1ZM61.5,155.5c-1-1-1-2-1-2,0,0,0,1,1,2l2-2,4-5h0c2-3,4-7,7-10h-1v-1c-1,0-2-1-3-2-1,0-3,0-5-1-2,0-3,0-5-1,1,1,2,2,2,3,2,2,5,4,5,4-1,0-2-1-4-3-1-1-3-2-4-3v-1,1l-1,5,4-2c-1,0-2,1-4,3l-1,3h6s-2,1-5,0h-1v3c1,1,3,2,4,3,0-.67.33-1,1-1-1,0-1,1-1,1h0c-1,1-3,1-4,3h-1v1h0v2h5ZM62.5,157.5l2,2v1h0c.67-.67,1.33-1,2-1v-1c0-1,0-2-1-4h-2v1h0s-1,1-1,2ZM65.5,161.5h1-1ZM66.5,159.5h-1,1ZM65.5,154.5v-2l-2,2h2ZM65.5,152.5s1,1,1,2h2c1,1,2,1,3,1v-1c0-1-1-2-2-2-1-2-1-3-2-3l-1,2-1,1ZM66.5,155.5v4l2-1s1-1,2-1v-1l-1-1h-3ZM66.5,159.5h1-1ZM67.5,160.5h0v-1,1ZM67.5,161.5v1l1-2-1,1ZM72.5,153.5v-1,1l1,1c0-1-1-2-1-3,0-2-1-6-1-6,0,0,1,2,2,5,0,1,0,3,1,4,0-1,1-2,1-3,1-1,1-3,2-4-2,0-3-1-3-1,0,0,1,0,3,1v-2,2h2c2,0,4,0,5,1-1-1-2-3-3-4s-2-2-2-3c-2-1-3-2-4-2h-1v-1h0l-7,10c1,2,3,3,4,4l1,1ZM71.5,154.5v1h1l-1-1ZM71.5,156.5l-1,1h1l1-1h-1ZM69.5,159.5c0,1-1,2-1,3l2-1,1-1c0-1,1-2,1-3h-1v1l-2,1ZM71.5,161.5c.67-.67,1.33-1,2-1v-2c-1,1-1,2-2,3ZM74.5,159.5h1l-1-1v1ZM75.5,158.5h1l-1-1v1ZM77.5,157.5h0l1,1c2,2,6,3,6,3-1,0-2,0-5-2-1,0-2-1-3-1h0v2c1,1,1,3,2,4h1-1l1,1h2v-2,2c3-1,5-1,8-2h0v-6c-1-1-1-2-1-2v-1c-1-1-2-3-2-4,0,1-1,3-1,3v7c0-1-1-2-1-5h0s-2,0-4,1l-1,1,1-1h-5l2,1ZM75.5,159.5l-1,1v1c-1,1-1,2-1,3h3c0-1,1-1,1-2v2h1l-2-2c0-1-1-2-1-3ZM73.5,160.5h0c-1,1-2,2-3,2l-1,1c1,0,2,1,3,1h1v-4ZM69.5,163.5h-1,1ZM78.5,164.5h-1v2l2-1s-1,0-1-1ZM76.5,164.5h-3v2h3v-2ZM73.5,164.5h-5l3,3h0l-2-2c1,0,2,1,3,2l1-1v-2ZM71.5,167.5c1,1,1,2,2,2,0-1-1-1-1-2h-1ZM75.5,171.5h1v1-5h-4l1,1c1,1,2,2,2,3ZM74.5,170.5c-1-1-2-1-3-2h-3v1s0,1,1,2c2,0,4,1,6,1l-1-2ZM69.5,167.5c0-1-1-1-2-2l1,2h1ZM69.5,171.5v1l4,1c-1-1-3-2-4-2ZM69.5,173.5c1,1,1,2,1,2h2c1-1,2-1,3-2h-6ZM70.5,175.5s0-1-1-2l-5-1v1c1,0,2,1,3,2h3ZM69.5,172.5l-1-1c-1-1-2-1-2-1,0,0,1,0,2,1v-1l-1-1h-2c0,.67-.33,1.33-1,2l5,1ZM67.5,167.5l-1-1v1h1ZM65.5,167.5v-1l-1,1h1ZM42.5,162.5l1-1-4-4h-2l2,2-2-2h-1,1l-1-2-3-3v4l1,1s1,0,3,2c2,0,3,2,5,3ZM45.5,159.5c0-1,1-2,2-3h-4c1,1,1,2,2,3ZM41.5,157.5h-2l4,3c-1-1-2-2-2-3ZM37.5,157.5l1-1-3-3v1c1,1,1,2,2,3ZM39.5,156.5h1c0-1,0-2-1-3v-1h-2c-1,0-2-1-3-1v1h1l4,4ZM43.5,156.5s1,0,1-1h3c-1-1-3-1-3-2-2,0-3-1-5-1h0c2,1,3,2,4,2,0,0-2,0-3-1h0l2,2,1,1ZM38.5,152.5h0ZM37.5,151.5h1l-2-1h-2c1,0,2,1,3,1ZM39.5,151.5c1,1,2,1,3,1,2,1,3,1,5,1v-1l-1-1-1-1c0,1-1,1-1,1l1-1c-1-1-1-2-2-2,0,0-2,1-4,1l-2,1h1l1,1ZM43.5,148.5c-1-2-2-3-2-3,0,1,2,2,4,4h0c1,0,1-1,2-1l-1-4h-5,5l-1-4c-2,0-4-1-4-1,0,0,2,0,4,1l-3-9h0c-2,0-4,1-6,1h-4c-2,1-3,2-4,3,2,1,9,0,9,0-2,1-7,1-9,1,1,1,2,2,4,3,1,0,2,1,3,2v-2,2h1-1v3l-1,2,1,1,1-1c2-1,5-4,5-4l-4,4-1,2,1,1h0c2,0,5-1,6-1ZM46.5,149.5l1,2v-3l-1,1ZM49.5,152.5v-3c0-1,0-2-1-3,0,.67-.33,1.33-1,2l1,1s0,1,1,3ZM48.5,146.5v-2h-2l1,2v1h0l1-1ZM48.5,143.5v-1,1h2c-1-1-2-1-3-2h-2l1,2h2ZM48.5,144.5l1,1s1-1,1-2c0,1-1,1-2,1ZM49.5,146.5v2c0,1,1,3,1,5h0v-4c0-2,1-3,1-5l-2,2ZM50.5,152.5l1-1v-4,1c0,1-1,3-1,4ZM52.5,150.5h0c0-1,1-2,1-3l-1-3v6ZM54.5,146.5v-1l-1-1c0,1,1,1,1,2ZM55.5,144.5v-1h-1l1,1ZM55.5,143.5v1l1,1v1l1-3h-2ZM55.5,145.5l-1,2,1,1v3l1-5-1-1ZM54.5,148.5h-1c0,1-1,3-1,4v1c1-1,2-1,3-1h0v-1c0-1-1-2-1-3ZM51.5,153.5h0ZM56.5,151.5c2,0,3-1,4-2,0,0-2-1-3-2h0l-1,2v2ZM55.5,153.5c-1,0-2,1-3,1h0l2,1c0-1,0-2,1-2ZM61.5,155.5h-6v3c0,1,1,1,2,2,1-2,2-3,4-5ZM53.5,155.5h-1l1,1v-1ZM51.5,156.5h0v1-1ZM77.5,166.5v5c2-2,3-3,3-5h-3ZM81.5,166.5l-3,6c1-1,8-5,8-5l-2,2c0,1,0,3,1,4h2c0-2,0-4,1-4,0,0-1,2-1,4h1-1v5l2-2c1-1,2-3,2-4,0-2-1-5-2-7v-1h0l-8,2ZM84.5,169.5l-1,1c-2,1-3,2-4,3h5v-4ZM87.5,173.5c-.67.67-1.33,1-2,1v1c1,1,1,2,1,2,0-1,1-2,1-4ZM84.5,174.5h-5c2,2,4,3,7,5-1-2-1-3-1-5h-1ZM86.5,179.5c-3-1-6-3-8-4,0,1,1,2,1,3,2,0,4,1,7,2v-1h0ZM78.5,178.5c0-1-1-2-1-3v2l1,1ZM76.5,177.5v-2l-2,2h2ZM74.5,176.5l1-1c-1,0-3,0-4,1h3ZM55.5,209.5l1-1h1l-2-9v10ZM47.5,200.5h-1c0,1-1,2-2,4l2-1h1v-3ZM44.5,205.5h3v-2c-1,1-2,1-3,2ZM43.5,206.5c1,1,2,2,4,3v-3h-4ZM44.5,205.5h-1,1ZM44.5,204.5c0-1,1-2,1-3,1-1,1-2,2-3v-1l-3,1c-1,0-1,1-2,1,0,2-1,4-1,5v1c1-1,2-1,3-1ZM42.5,198.5h1c1-1,2-1,4-2-1,0-3,0-3-1h-1l-1,3ZM33.5,192.5c0-1-1-2-2-3v3c-1,2-1,4-1,5l3-5ZM30.5,198.5v-9c0,1-2,2-2,2-2,2-4,5-4,5,0,0,1-2,3-4,1-1,2-3,2-4-1,1-2,1-3,1s-2,1-3,1c2,1,5,1,5,1h-8,1c-1-1-2-1-3-1l3,3c2,3,3,4,3,4,0,0-3-3-5-4,0-1-1-1-2-2,1,1,1,3,1,3,0,1,0,2,1,3,0,0,2,1,3,2,2,0,4,1,5,2h1l2-3ZM22.5,190.5c1,0,2-1,3-1,1-1,3-1,4-2-1,0-2-1-3-1l-1-1c-1,1-2,1-3,2s-3,2-4,2c1,0,3,1,3,1h1ZM25.5,185.5h-2c-1,1-2,2-3,2h1c1,0,3-1,4-2ZM24.5,185.5h1c1,0,1-1,1-1v1c1,0,2,1,3,1,0-1-1-2-1-2l-1-1-3,2ZM27.5,182.5l3,3v-4l-3,1ZM35.5,171.5c-1,0-2,0-5-1h-4c0,1,1,2,2,2h2s1,0,3-1h2ZM27.5,173.5c-1-1-1-2-2-3v3h2ZM25.5,173.5l-1-2-1,3,2-1ZM22.5,174.5c0-1,1-2,1-3-1,0-2,1-3,1,0,1-2,2-3,3l5-1ZM17.5,175.5l2-2,3-3h-5v1-1c-1,0-2,1-3,1h-1,1v-6h0v-3l-2,2c-1,2-2,4-2,5v2c1,1,1,3,1,5h1l5-1ZM14.5,171.5c1-1,2-1,3-1,0-1,0-3-1-4l-2-1v6ZM17.5,170.5h1c1-1,3-1,4-1-1-1-2-2-3-2,0,0-1-1-2-1v4ZM14.5,165.5h2v-1c-1,0-1-1-1-2,0,1,0,2-1,3ZM16.5,165.5l2,1c2,1,3,1,5,2-1-1-1-3-2-3,0-1-1-3-2-4-1,0-2,0-4-1v1c0,1,1,3,1,4ZM20.5,161.5c0,1,1,1,1,2,1,2,2,3,3,4v-5l-4-1ZM25.5,162.5v5c0-1,1-2,2-2,0-1,1-1,1-2l-3-1ZM32.5,156.5v-5c-1,1-1,2-2,3l1,1,1,1ZM29.5,154.5h1c0-1,0-2,1-3-1,1-2,1-3,1,0,0,0,1-1,1l2,1ZM27.5,152.5c1,0,2-1,4-2h-4c-2-1-5-1-6-1l6,3ZM21.5,149.5h10c-1-1-2-2-3-2,0-1-2-2-2-2-1,1,0,2,0,2-1,0-1-1-1-2l-2-2c1,0,1,1,2,1v-6l-3,3c0,1-1,1-1,2-1,1-2,2-3,4h0l3,2ZM26.5,144.5c0,1,1,1,2,2s2,2,3,2v-3c-1,0-1-1-1-1,0-1-1-1-1-2-1-2-2-3-3-4v6ZM30.5,142.5c-1-1-1-2-2-2v-1,1c1,1,1,2,2,2ZM29.5,140.5c0,1,1,2,2,4v1l1,1s-1,0-1-1c1,1,1,2,1,3l1-2c-1-2-3-4-4-6ZM34.5,145.5h0c0-1,0-3,1-4-1-1-3-2-5-3-1,0-2,0-3-1l1,1v1l6,6ZM34.5,146.5c0,1,0,2-1,2l2-1-1-1ZM35.5,148.5l-1,1h2l-1-1ZM45.5,140.5h1c1,1,3,1,4,2,0-1-1-3-1-3l-5-5c1,0,2,1,4,3,1,2,2,3,3,4v-5h-3s1,0,3-1c0-1,0-2-1-2-1-1-2-1-2-1h2v-1c0,.67.33,1,1,1h6c-1-1-2-1-3-2-1,0-2-1-3-2-1,1-2,1-2,1-2,1-4,1-5,2h-1l2,9ZM51.5,133.5v2c1,0,2-1,3-1l2-1h-5ZM51.5,135.5v1c1,2,1,3,1,5,1-1,1-2,2-3s1-3,2-4c-1,0-2,1-3,1h-2ZM56.5,134.5c0,1-1,2-1,3-1,2-1,3-2,4,1,0,3-1,3-1h1c1-3,1-5,2-7h-1c-1,0-1,1-2,1ZM57.5,140.5c-1,1-2,2-3,2,1,0,2,1,3,1h0v-3ZM77.5,147.5c0,1-1,2-1,3l-1,2c1,0,2-1,4-2,1,0,2,0,3-1h1c-1-1-2-1-3-1-1-1-2-1-3-1ZM75.5,152.5v2l3-2c1,0,2-1,2-2-1,1-4,2-5,2ZM81.5,150.5l-1,1,2-1h-1ZM78.5,153.5c-1,1-2,2-3,2h5c1-1,2-2,2-3,1,0,1-2,2-2h-2l-4,3ZM81.5,155.5c1,0,3,0,3-1,1-1,1-2,1-4-1,1-2,3-3,4l-1,1ZM79.5,141.5c1,1,2,3,3,4,1,0,2,1,2,2v-3c0-2-1-4-1-5-1,0-2,0-3-1h-4l2,2c2,2,6,3,6,3-1,0-2,0-5-2h0ZM83.5,138.5c-1,0-1-1-1-1,0,1,1,1,1,1h2s-1,1-2,1c0,0,1,2,1,3,1,2,1,3,1,5,1-1,1-3,2-3l2-6s-1,2-1,4c-1,2-1,4-2,5,1-1,3-2,3-2,2-1,5-4,5-4,0,0-1,2-3,4-2,1-3,2-4,3h3c3,0,7-1,7-1-1,0-3,1-5,1s-4,1-5,1c1,0,2,1,3,2s3,2,4,2h0l1,1-1-1c0,2-1,3-2,5,0,2-1,3-1,4,2-2,6-5,8-6-1,0-7,5-7,6,1,0,2,0,2-1,3,0,6-2,6-2,0,1-2,1-4,2-1,1-3,1-4,2,1,1,9,1,9,0-2,1-7,1-9,1,1,1,8,4,8,4-2,0-7-2-8-3,0,1,5,7,5,7-2-1-5-5-6-7,0,2,0,4,1,7v-2,4-2c-1,1-1,2-2,3,0,1-1,3-2,4,1-1,3-2,4-2,3-1,5-2,5-2,0,0-4,1-6,3l-2,2h3c2,1,6,1,6,1h-10c1,0,2,1,3,2,1,2,5,4,5,4-1,0-2-1-5-3l-3-3v4h0c.67-.67,1.33-1,2-1,1,0-1,1-2,1,0,1,1,2,1,3,1-1,2-2,3-2,0,0-2,1-3,2l1,2c1-1,3-1,3-1-1,0-2,0-3,1v1s0-1-1-1l-1,1c-1,0-2,1-3,1,1,0,3,1,4,1,3,0,5,1,5,1,0,0-4-1-6-1h-3c1,1,2,1,2,1,2,2,6,3,6,3,0,0-2,0-5-1-1-1-2-1-3-2,0,1,1,2,1,2l5,5c-1-1-2-2-4-3l-3-3c0,1,0,2,1,2,0,3,2,6,2,6-1,0-1-2-3-4,0-1-1-3-1-4,0,1,0,2-1,3v6-9c-1,0-1,1-2,2s-2,4-3,5c2-1,3-1,3-1-1,0-2,1-3,1h0c-.67,0-1.33.33-2,1-2,0-3,1-5,1,1,0,3,1,3,1,2,1,6,2,6,2,0,0-2,0-5-1-1,0-3-1-4-1,1,1,1,2,2,2,1,3,4,5,4,6l-4-4c-1-1-2-2-3-4v4c0,2,1,6,1,6,0-1-1-2-1-5-1-2-1-3-1-5l-1,2h1-1l-1,1s-1,1-1,2h3-3l-1,1c2,1,3,2,3,2-1,0-2-1-3-1-1,1-1,2-1,1,0,0,0-1,1-2h-2c-1,0-2-1-3-1,1,1,2,2,3,4s2,3,2,4c0,0-2-4-4-5,0-1-1-1-1-2v2l2,6-2-4c0-1-1-3-1-4-1,1-1,2-1,3v6-9c-1,1-1,2-2,2h0c1,13,3,25,6,38l9,27h-8c-3-8-6-17-8-25-4-15-6-31-7-44-2,0-3-1-5-2,1,2,4,7,4,9,0-1-4-8-5-9-1,2-1,10-1,10-1-2,0-8,0-10-2,1-6,8-6,8,1-2,4-7,5-9-1,1-2,1-3,1h-1c1,1,1,2,2,2l-2-2c-1,0-2,1-2,1,1,2,1,3,1,3,0,0-1-1-2-3l-1,1c0,2,1,3,1,4-1-1-1-3-2-4h0v-2c-1-1-1-2-2-3v5c-1,2-1,4-2,5,0,0,1-4,1-7v-2c0,1-1,1-1,2l-3,6c0-1,1-3,2-5,0-1,1-3,1-4,0,1-1,1-2,2-2,1-4,4-4,4,0,0,1-2,3-4l3-3c-1,1-2,1-3,1-2,1-6,2-6,2,1,0,2-1,5-2,1-1,2-1,3-2h-9c1-1,3-1,5-1h5c-1,0-2-1-3-1-1-1-3-2-4-3,0,2,1,3,1,3,0,0-1-1-2-3h0v-1c-1-2-1-3-2-5,0,1-1,3-1,3-1,2-1,6-1,6v-5c1-1,1-3,1-4l-2,2c-2,1-5,4-5,4,0,0,1-2,3-4,1-1,3-2,4-3h-4c-2,1-6,2-6,2,1-1,2-1,5-2,1,0,3-1,5-1-1,0-3-1-3-2-.67,0-1.33-.33-2-1v2-2c-.67,0-1.33-.33-2-1-1,1-1,2-1,2,0-.67.33-1.33,1-2h-2,2c0-1,1-2,1-3s1-2,1-4l-3,3c-3,2-4,3-5,3,0,0,4-2,5-4,1,0,1-1,2-2-1,1-2,1-2,1-3,0-6,2-6,2l4-2c1-1,3-1,4-2H.5s2,0,5-1h4c-1,0-2-1-2-1l-6-3s2,1,5,2c1,0,2,1,3,1,0,0-1-1-1-2-1-2-4-4-4-4l3,3,3,3v-3c0-1,0-2-1-3v1-1c0-2-1-3-1-3,0,0,1,1,1,2,1,0,1-1,2-3,0-1,1-3,2-4-1,1-3,2-4,3-3,1-5,1-5,1,0,0,4-1,6-3l2-2h-3c-2-1-6,0-6,0,0-1,2-1,5-1h4c-1,0-2-1-2-2-2-1-5-3-5-3,0,0,2,0,4,2,1,1,3,2,4,3,0-1-1-3-1-4h0c0,1-1,1-1,1,0,0,0-1,1-2,0,0,0-1-1-2-1,1-2,2-3,2,0,0,2-1,3-2v-2c-2,1-4,1-4,1,1,0,2,0,4-1-1,0-1-1-1-1l1,1s1,0,1-1c1,0,2-1,3-1-2,0-7-1-9-2,0,0,7,1,9,1-1-1-8-4-8-4,2,0,6,2,8,3,0-2-6-7-6-6,2,0,6,4,7,5,0-1,0-2-1-2,0-3-2-6-2-6l2,4c1,1,2,3,2,4v-3c1,0,1-1,1-2-2,0-3,1-3,1,.67-.67,1.67-1.33,3-2v-3,3l6-3c-1-1-9-2-9-2,2,0,7,1,9,1,0-1-6-6-7-6,2,0,6,4,8,5,0,0-2-8-2-9,1,2,2,7,3,9,1,0,4-8,4-9,0,2-2,8-3,10,3-2,5-3,7-5-1-1-2-1-3-1h4l-1,1h5l-1-1c-3-1-6-3-6-3,1,1,2,2,5,2,2,1,3,1,4,1l-3-3c-2-2-3-4-3-4,0,0,2,3,4,5,0,0,1,0,2,1,0-1-1-2-1-2,0-2-2-6-2-6l2,4c1,2,1,3,2,4v-9c0,1,0,2,1,5v4c0-1,1-2,1-2l3-6c0,1-1,2-2,5,0,1-1,2-1,4,1-1,1-2,2-2,2-1,5-4,5-4-1,0-2,1-4,3-1,1-2,3-3,3h3c1,0,2,0,3-1-1,0-1-1-1-1,0,0,1,1,2,1s2-1,2-1c0,0-1,1-2,1,1,0,2,1,2,1,2,1,3,1,4,2,0-1-1-3-2-4-1-3-2-4-2-5l3,6c1,0,2,2,2,2,0-1,1-2,1-3v-6,10c1-1,2-2,2-3,2-2,4-5,4-5l-2,4c-1,2-2,3-3,4h3c2-1,4-2,5-2v-1,1l1-1s0,1-1,1c1,1,2,3,4,5h0v-1c-1-2-2-6-2-6,1,1,1,3,2,5,1,1,1,2,2,4,0-2,0-4,1-5,0-3,1-4,1-5,0,0-1,4-1,6v3c0-1,1-2,1-2l3-6c0,1-1,2-2,5,0,1-1,2-1,3,0,0,1-1,2-1,2-1,4-4,4-4l-3,3-3,3h3c2-1,6-2,6-2-1,0-2,1-5,2-1,0-2,1-4,1,1,0,3,1,3,1h4ZM94.5,153.5c-1,0-2,0-3-1-2-1-3-2-4-2,0,1,1,2,1,3v1-2s1,1,1,2,1,3,1,3h0c1-3,1-4,2-5,0,0-1,3-1,6h0v2-1c1-2,3-5,3-6ZM90.5,157.5s-1-1-1-2v4l1,1v-3ZM61.5,208.5c.67-.67,1.33-1,2-1h3c0-1,1-1,1-2-1,0-2,1-3,1s-2,1-3,2ZM66.5,207.5c-2,1-3,1-4,1,0,0-1,0-2,1h5l1-2ZM64.5,210.5h-2s-1,0-1-1c0,1,1,1,1,1,1,0,1,1,2,1v-1ZM77.5,202.5c0-1,1-2,2-4s2-3,3-5h0v-1l-8-4h-1c-1,1-3,1-4,2,1,0,2,1,3,1,2,1,6,1,6,1h-5c-1,0-3-1-4-1l2,2h0l5,5c-1-1-2-1-4-3l-1-1c0,1,0,2-1,4v3-1c0,1,0,2-1,2,1-1,3-2,4-3l4-2s-3,2-5,4l-2,2c1,0,3,0,3-1h4ZM71.5,194.5c-1-1-2-1-3-2,0,1,0,2,1,3,0,1,0,3,1,4,0-2,0-4,1-5ZM69.5,199.5c0-.67-.33-1.67-1-3,0-1-1-3-1-4l-1,3s0,1,1,3c0,1,1,2,1,4l1-3ZM65.5,195.5v1l2,4v-1c-1-1-1-3-2-4ZM65.5,197.5c-1,1-1,2-1,3l1,1,2,1v-1h0l-2-4ZM65.5,196.5v-3,1c0-1,1-2,1-2-1,0-2,1-3,1l2,3ZM63.5,193.5l2-2h-3l1,2ZM62.5,190.5h3c-1-1-2-2-4-2l-1-1,2,3ZM13.5,184.5v3c.67.67,1.33,1,2,1-1-1-1-2-1-3-1,0-1-1-1-1ZM13.5,187.5c0-1,0-2-1-4,0-.67-.33-1.33-1-2v2c0,1-1,2-1,3h1l2,1ZM12.5,182.5v-1s0-1-1-1v1l1,1ZM10.5,186.5c0-1,1-3,1-5v-1h-1v2c-1,1-1,2-2,3,1,0,1,1,2,1ZM18.5,139.5v6l1-1h0l1-1c1-2,2-4,3-5-2,0-3,1-5,1ZM23.5,138.5l-2,4c1-1,1-2,2-2,0-1,1-2,1-3l-1,1ZM32.5,132.5s4,0,6-1h1c-1-1-2-1-3-1h-2l-2,2ZM84.5,191.5c0-1,1-3,2-4,1,0,1-1,2-1-1-2-1-3-1-4-1,1-1,2-2,3,0,2-1,5-1,6ZM88.5,186.5c-1,1-2,2-2,3,0,0-1,1-1,2l2-2,2-1c-.67-.67-1-1.33-1-2h0ZM89.5,188.5c-1,1-2,1-2,2-.67,0-1,.33-1,1l1-1h2v-2ZM34.5,207.5c-1-1-2-1-3-2l-1-1c0,1,1,2,2,3v1c1-1,2-1,2-1ZM32.5,208.5l-2-2v-1,2l1,1h1ZM11.5,150.5c0,.67.33,1.33,1,2,0-1,1-1,2-2v-1l-1,1h-2ZM12.5,152.5v2h1c0-1,1-2,2-3v-2c0,1-1,2-2,2l-1,1ZM13.5,154.5c0,2,1,3,1,4,0-1,1-2,1-3,1-2,1-5,2-6-1,1-2,2-3,4l-1,1ZM68.5,129.5c-1,0-2,1-3,2-1,0-3,1-4,1,1,1,2,1,3,1,2,1,5,1,6,2l-1-1-4-4c1,0,3,3,5,4,.67.67,1.33,1,2,1-1,0-1-1-2-2-1-2-1-3-2-4ZM68.5,183.5v6c0-1,2-3,3-4l-2-1-1-1ZM71.5,186.5s-1,0-1,1c0,0-1,1-1,2,1,0,2-1,3-1,0,0,1,0,2-1l-3-1ZM55.5,210.5h0ZM55.5,211.5v1l1-1h-1Z"/>
  <path class="st0" d="M193.19,91.5l-9-13h-1c1,3,2,5,2,8l1,2c2,1,3,2,5,3,0,0,2,1,3,2v-2h-1ZM173.19,52.5c-1,0-2,1-3,1l-1-1h1l2-2,1,2ZM164.19,58.5l-1,1c-1,0-7-2-8-2,0,0-3,0-4-1l-3-1c1-1,2-3,2-3,0,0-1,1-2,3l-5-1c0-3,0-5-1-5v5l-6-2c-.67-.67-1.33-1-2-1-1,0,1,0,1,1l-4-1h-1,1l5-5c2-2,4-4,4-5l-6,6c-1,0-2,1-4,2,1-1,1-4,2-6,1-3,1-5,1-6l1-1h1c3,2,7,4,10,7-3,1-4,2-5,3,0,0,3-2,6-3l3,2c-2,3-5,5-5,6,1-1,3-2,5-5h0l4,2c0,3,1,6,1,6v-5h1c1,2,7,8,9,9ZM162.19,62.5c0,1-1,1-1,2h-16l-1-1c1,0,3-1,3-1,3-2,8-3,8-3-1,0-3,0-6,1-2,1-4,1-6,2,2-1,3-3,4-5l1-1,6,2c3,2,5,3,8,4ZM161.19,65.5v1h-5c-1,0-5,0-8-1-.67,0-1-.33-1-1,4,0,9,1,14,1ZM162.19,69.5v1h-1v-1h1ZM163.19,73.5s1,1,1,2h0l-1-2h0ZM165.19,75.5v1l-1,1v-1l1-1ZM168.19,78.5h0v1l-1,1v-1l1-1ZM184.19,77.5h2c1,1,4,3,6,5l3,2,2,1c0,1,0,2-1,3,0,1,0,2-1,4,0-2-1-4-2-5-2-4-3-5-4-6,0,0,3,4,4,8v1c-3-4-6-8-9-13ZM188.19,74.5s0-1,1-2c1,1,2,2,3,2v1l1-1c3,1,4,1,4,1h1c-1,1-2,1-2,1h5l4,1-1,2c-3,2-4,4-4,5,0,0,3-4,5-6h3l-1,3v7s1-6,2-9h0l2,1,1,1c2,4,3,5,3,6,0,0-2-4-3-7l8,2h1v1c-2,1-4,2-6,4l-4,4s3-3,6-5c1,0,3-1,4-2-1,2-2,4-2,6-1,3-1,5-2,6v1h-1v1c-4-2-7-5-10-7,2-1,3-2,4-2l-4,2-4-3,4-4c-1,0-2,1-4,3l-5-3v-5,5l-1-1c-2-3-5-6-8-9ZM190.19,70.5v-1l3,1v1c-1,0-2-1-3-1ZM190.19,69.5v-2c1,0,3,0,4-1l-1,2v1h-3ZM190.19,64.5v-2l2-1h2l-2,2-2,1ZM189.19,61.5h2-2ZM187.19,57.5l-1-1h2l-1,1ZM184.19,54.5h-1,1ZM182.19,53.5h0v-1l1,1,1,1c-.67-.67-1.33-1-2-1ZM179.19,52.5h-1v-2l1,1v1ZM177.19,52.5h-1l-1-2,1-1,1,3ZM169.19,80.5l-1,1h1v-1ZM168.19,82.5h0ZM180.19,93.5c1-2,2-3,2-3,0,1-1,2-2,3,0,2-1,4-1,6h7c0,1-4,0-7,1h0l1,4c2,1,5,2,5,2-1,0-2-1-5-2,0,4,1,9,2,13v-1l1,1c1,0,2,0,3-1,1,0,2-1,3-1l6-3c-2,0-4-1-4-1-4-1-9-1-9-1h7c2,0,4,1,6,1-2-1-3-3-5-4v1-1c-2-3-4-4-4-5,0,0,2,2,5,4,0-1,0-2,1-4l-2-4c-3,2-6,5-6,5,0-1,2-2,5-5h1l-2-4c-3,0-7,1-7,1,1,0,3-1,7-1h0l-2-4-1-2c-.67-.67-1-1.33-1-2,0-1,0,1,1,1l-1-1-2-4s-1-1-1-2c-1,4-1,8-1,13ZM170.19,84.5h0l-1,2,1,1v-3ZM170.19,88.5l-2-1h0v1c0,1,1,4,1,5l1-5ZM167.19,85.5h0v3-3ZM167.19,91.5v5l2,1v-1c0-1,0-2-1-4v-4l-1,3ZM168.19,98.5h0v-1l-2-1v-1l-1,3c1,1,3,1,4,1h0l-1-1ZM167.19,96.5c0-1,0-2-1-3v2l1,1ZM166.19,91.5c0-2-1-4-1-6l-2,3h1-1v1c-1,0-1,1-2,2,1,1,2,2,4,3l1-3h0ZM161.19,91.5c-1,2-1,4-2,5,1,0,1,1,1,1l-1-1v1-1l-4-4-2,3,2,6s-1-2-3-5c-2,3-5,7-8,10h1v1c2,2,4,3,5,5,1,0,2,1,2,2,2-1,4-2,6-2-1-1-11-5-12-4,3,0,10,2,13,3-1-2-8-10-8-10,2,1,7,7,9,10h1v-1l1-6-4,2s2-1,4-3l2-4c-3-1-7-1-7-1h7l1-3c-1-2-3-3-4-4ZM159.19,96.5c0-1,1-3,2-5h-1,1v-1l1-2h-5v1l-2,3h1c1,2,2,3,3,4ZM162.19,88.5c1-1,1-3,2-4l-4,2h0l-1,1-1,1h4ZM157.19,88.5h0ZM155.19,89.5s-1,1-2,1l1,1,1-1,1-1h-1ZM152.19,91.5h0l-1-1c0,1,1,3,1,4h0l2-2h0l-2-1ZM153.19,90.5s1-1,2-1c-2,0-3,0-4-1l2,2ZM156.19,88.5l1-1,1-1h0s0-1,2-4h-1c0,1-1,1-2,2-2,1-4,2-5,3,1,0,3,1,4,1h0ZM159.19,82.5h-2l-4,3c1,0,1-1,2-1s2-1,4-2ZM156.19,81.5h-4v1c0,1-1,3-1,4h1c0-.67.33-1,1-1l3-4ZM152.19,81.5h-3,3v-1c2-2,3-4,4-5l-1,1-6,3h0c0,2,0,4,1,6,0-1,1-2,2-4ZM153.19,81.5h4l3-3h0c-1-1-3-2-4-3h0c-1,1-2,4-3,6ZM158.19,81.5h2l2-1-2-1-2,2ZM161.19,81.5h0l1-1h0l-1,1ZM155.19,74.5c-2-1-3-1-3-1,1,0,2,0,3,1,0,0,1-1,3-2,1-1,2-1,3-2l-1-1c-3,0-7,1-11,0h-2l5,5c0-1-2-2-5-4l-1-1-3,1v8s0-5-1-8l-3,1c-1,2-2,7-2,7,0-1,0-3,1-7h0l-7,1c0,1-1,1-1,1,0,0,0-1,1-1l-6,1h0v1c0,2,1,5,1,7h0v1c1,2,2,4,3,5,1-1,1-3,1-4,1-3,0-8,1-8v12c1-1,2-3,3-4,3-3,4-5,5-5,0,0-4,4-5,7-1,0-2,2-2,3h1l1-1,5-3c-2-1-4-1-4-1,1,0,2,0,4,1l5-3c-2-2-4-5-4-5,0,1,2,2,4,5l4-3c0-2-1-5-1-5,1,1,1,2,2,5l1-1c2-1,5-2,5-2v-1ZM157.19,75.5l1,1,3,2,2-2v-1s-1-1-1-2c-2,1-3,2-5,2ZM161.19,78.5l2,1v-2l-2,1ZM189.19,60.5c2,0,4-1,5-1l-2-1-3,2ZM189.19,56.5l-2-1,1,1h1ZM188.19,55.5h0l2,1c1-1,2-1,3-1l-1-3-1-1c-1,1-2,2-3,4ZM194.19,57.5l1,1v-1h-1ZM190.19,48.5c0-1-1-2-1-3,0,0,1,1,2,3,0-1,1-2,2-2l5-7h1l9-12h0l-1-1c-1-1-2-3-4-4-1,0-3,0-6-1-2,0-4-1-6-1l3,3c1,3,5,6,5,6,0,0-2-2-5-4-1-2-3-4-4-5h-1v1l-1,6c2-1,5-2,5-2-1,0-3,1-5,3l-1,4c3,1,7,1,7,1h-8v3c1,2,3,3,4,4,1-1,2-1,2-1-1,0-1,1-1,1h-1c-1,1-3,2-5,3l-1,1h0v1h0s0,1-1,2c2,1,5,1,7,1ZM192.19,50.5c0,1,1,3,2,3v1h0c1,0,2,0,2-1v-5c-1-1-2-1-2-1l-1,1h0c0,1-1,1-1,2ZM196.19,56.5v1-1h0ZM196.19,54.5h0ZM196.19,47.5v-3l-2,3h2ZM196.19,44.5s1,2,1,3l2,1h4l1-1c-1-1-2-2-2-3-2-2-3-3-3-4l-2,3-1,1ZM197.19,48.5v5l2-1c1,0,2,0,3-1l1-1-2-1c-1-1-3-1-4-1ZM197.19,53.5v1l2-1h-2ZM197.19,55.5h0l1-1-1,1ZM197.19,56.5v1l2-2-2,1ZM204.19,46.5l1-1s0,1-1,1l2,2v-4c-1-3-2-8-2-8,0,0,1,2,2,6,0,2,1,4,1,6,1-2,2-3,2-4,1-2,2-4,2-6h-3,3c1-1,1-2,1-2v2c1,0,2,0,3,1,2,0,4,0,6,1-1-1-3-3-4-5s-2-3-3-4-3-2-4-4h-2l-9,13c1,1,3,4,4,5l1,1ZM204.19,48.5v1h1l-1-1ZM203.19,50.5l-1,1h1l1-1h-1ZM201.19,54.5c-1,1-2,2-2,4l3-2,1-1c0-1,1-2,2-3h-2l-2,2ZM203.19,56.5c1,0,2-1,3-1v-2l-3,3ZM207.19,54.5h1l-1-1v1ZM209.19,53.5h1l-1-1v1ZM211.19,52.5h0l2,1c2,2,7,5,7,5-1,0-3-1-6-3-1-1-3-1-4-2h-1l1,3c0,1,1,3,2,5h1-1l1,2,2-1,2-2s-1,1-1,2c3,0,7-1,10-1v-1h1c-1-2-1-5-1-7v-4l-3-6c0,2-1,4-1,4-1,4-1,9-1,9v-7h0c-1,0-3,1-5,1-2,1-2,2-3,2l2-2c-2,0-4,1-6,1l2,1ZM208.19,54.5l-1,1-1,2v3c1,0,3,1,4,1v-2,2h2c-1-1-1-2-2-3s-1-3-2-4ZM206.19,56.5h-1c-1,1-2,1-4,2l-1,1c2,0,3,1,4,1h1v-2l1-2ZM200.19,59.5h-1,1ZM212.19,61.5h-2v2h3c0-1-1-1-1-2ZM210.19,61.5h-4v3l4-1v-2ZM205.19,61.5c-2,0-4,0-6-1,1,2,3,3,3,4h1c-1-1-2-3-2-3,0,1,1,2,2,3h2v-3ZM203.19,65.5l2,2c0-1-1-1-1-2h-1ZM208.19,69.5l1,1h-1l1,1v-6l1-1h-3l-1,1h-2l1,1,3,3ZM206.19,68.5c-1,0-2-1-3-2l-1-1s-1,1-3,1h0v3l9,3-2-4ZM200.19,64.5c0-1-1-2-2-2v1c1,0,2,1,2,1ZM200.19,69.5v2l5,1c-2-1-3-2-5-3ZM200.19,71.5c1,2,1,3,1,4,1,0,2,0,3-1,0,0,2-1,4-1l-1-1h-2l-5-1ZM201.19,75.5c0-1-1-2-1-4l-6-1-1,1c2,1,3,2,4,3l3,1h1ZM199.19,71.5v-2c-2,0-3-1-3-1,0,0,1,0,3,1h0l-1-3h-3c-1,1-1,2-1,3l5,2ZM197.19,63.5v-1l-1,1h1ZM195.19,63.5v-1l-1,1h1ZM165.19,56.5l1-2-5-5h-2c2,1,3,3,3,3l-3-3-1-1h1l-1-1c-2-2-3-4-4-5v5l2,2,3,2c2,1,4,3,6,5ZM169.19,52.5l3-3v-1h-5c1,1,1,3,2,4ZM164.19,49.5h-2l4,4c-1-1-1-3-2-4ZM159.19,48.5h2c-2-1-3-3-4-4v1c1,1,1,2,2,3ZM162.19,48.5h2c-1-1-1-2-2-4l-1-1s-1-1-2-1-2-1-4-1l1,1,1,1,5,5ZM166.19,48.5c1,0,2,0,2-1h4v-1c-1,0-3-1-4-1l-6-3,1,1c2,1,3,2,4,3l-4-2h0s1,0,3,3v1ZM161.19,42.5h-1,1ZM160.19,41.5v1l-1-3c-1,1-2,1-3,1,1,0,3,1,4,1ZM162.19,42.5c1,0,3,1,4,1,2,1,4,1,6,2v-2l-1-2-1-1c-1,1-1,2-1,2,0-.67.33-1.33,1-2-1-1-1-2-2-3-1,1-3,1-6,2h-2l1,1,1,2ZM168.19,37.5c-2-1-3-3-3-3l5,5h0c1,0,1-1,2-1l-1-5h-6c0-1,3-1,6-1l-1-4c-2-1-5-2-5-2,1,0,3,1,5,1-1-4-1-8-2-11h-8c-3,1-6,0-6,0-2,2-4,3-6,4,4,1,13,0,13,0-3,1-10,1-12,1,1,1,3,2,4,4,2,1,4,2,4,3,1-2,1-3,1-3v4-1c-1,1-1,2-1,4l-1,2,1,2,1-1c3-2,7-5,7-5,0,0-2,2-5,4l-2,3,1,1h1c3,0,7,0,8-1ZM171.19,40.5l1,1v-3l-1,2ZM175.19,43.5v-7c-1,0-1,1-2,1v3s1,0,2,3ZM175.19,35.5l-1-3-2,1,1,2v2h0l2-2ZM174.19,32.5v-2,1h3c-2-1-3-2-4-2,0,0-1-1-2-1l1,4h2ZM175.19,32.5v2c1,0,2-1,2-2h-2ZM175.19,36.5l1,2v6h0c0-1,0-3,1-5,0-2,1-4,1-6l-3,3ZM176.19,44.5l2-3,1-5c-.67.67-1,1.33-1,2-1,1-1,4-2,6ZM179.19,41.5v-1c1-1,2-2,2-3l-1-3-1,1v6ZM182.19,36.5v-1l-1-2c0,1,0,2,1,3ZM183.19,34.5l1-2h-2l1,2ZM184.19,32.5c0,1-1,1-1,2l1,1,1,1,1-3-2-1ZM183.19,35.5l-1,2,1,2v3l2-6-2-1ZM181.19,38.5v1c-1,1-2,3-2,4v2c1-1,3-1,3-2h1c0-2-1-4-2-5ZM178.19,44.5l-1,1h1v-1ZM184.19,43.5c2-1,5-2,6-3-1-1-2-2-4-3h-1v3l-1,3ZM182.19,44.5c-1,1-2,2-3,2h0l2,1c0-1,1-2,1-3ZM190.19,48.5h-7v1s0,1-1,3c1,0,2,1,3,2,1-2,3-4,5-6ZM180.19,48.5h-2l2,1v-1ZM177.19,49.5h0ZM210.19,64.5c0,2,0,4,1,6,1-2,3-4,4-7l-5,1ZM215.19,63.5c-1,3-2,6-3,8,1,0,11-6,11-6-1,1-2,2-4,3,0,1,1,3,1,5h3c0-3,1-5,1-5,0,0,0,3-1,5h2c-1,0-1,1-2,1v6c1-1,2-3,3-3,1-2,2-3,3-5-1-3-2-6-2-10h-1v-1h0l-11,2ZM219.19,68.5l-2,1c-1,1-3,3-5,3,2,1,4,1,4,1h4c-1-2-1-4-1-5ZM223.19,74.5h-3c0,1,1,2,1,2,0,1,1,2,1,3,0-2,0-4,1-5ZM220.19,74.5h-8c3,3,5,4,9,7,0-2-1-4-1-7h0ZM221.19,81.5c-3-2-7-4-10-6,1,1,1,3,1,4l9,3v-1h0ZM211.19,79.5c0-1-1-3-1-3l-1,2,2,1ZM208.19,78.5c0-1,1-2,1-3l-3,2,2,1ZM205.19,77.5l3-3c-2,1-4,1-6,1h0l3,2ZM179.19,117.5h1l1-1v1-1l-2-11v12ZM169.19,105.5l-1,1c-1,1-2,3-2,4h3v-5ZM165.19,111.5v1h3l1-2c-2,0-3,1-4,1ZM163.19,113.5c2,2,4,3,5,4v-4h-5ZM164.19,112.5h1-1ZM165.19,110.5c0-1,1-2,2-3,0-1,1-3,2-4v-1l-4,1s-1,0-2,1c-1,2-1,5-2,7h1c1,0,2,0,3-1ZM163.19,103.5h0l6-3c-1,0-3,0-4-1h-1l-1,4ZM152.19,95.5c-1-2-2-3-2-5-1,2-1,3-2,4,0,2,0,5-1,7l5-6ZM147.19,101.5v-5c1-2,1-4,1-6l-3,3c-2,2-5,6-5,6,0-1,1-2,3-5,2-2,3-4,4-5-1,0-3,1-4,1s-3,1-5,1c3,1,6,1,6,1h-9,1c-1-1-3-1-4-1,1,1,2,3,4,4,2,3,3,5,3,6,0,0-3-5-5-7-1,0-2-1-3-2,0,1,1,3,1,4v3c1,1,3,2,5,3s4,3,6,4h1l3-5ZM138.19,91.5s2-1,3-1c2-1,4-2,6-2-1-1-3-2-4-2l-1-1c-1,1-3,1-4,2-2,1-4,2-6,2,2,1,4,1,4,2h2ZM141.19,85.5l-1-1c-2,1-4,2-5,3h1c1,0,4-1,5-2ZM140.19,84.5h1l1,1c.67-.67,1.33-1,2-1-.67,0-1.33.33-2,1,2,0,4,1,5,1-1-1-2-3-2-3,0-.67-.33-1-1-1l-4,2ZM145.19,81.5c1,2,2,3,3,4v-6l-3,2ZM155.19,66.5h-6c-2,0-4-1-5-1,0,1,2,2,2,3h3s1-1,4-1c1,0,2,0,2-1ZM145.19,68.5c-1-1-2-2-3-2,1,1,1,2,1,3h2v-1ZM142.19,69.5l-1-3-1,4,2-1ZM139.19,70.5c0-2,1-3,1-4-1,0-3,1-4,2s-2,2-4,3l7-1ZM132.19,71.5c1-1,1-2,3-3,1-1,3-2,4-3h-11v1-1l-1,1c0-.67.33-1,1-1v-8h0v-3c-1,1-2,2-2,3-1,1-3,4-4,5,1,1,1,2,1,3,1,2,1,4,2,6v1h0l7-1ZM128.19,65.5c1,0,2-1,4-1,0-1,0-3-1-5l-2-1v1c0,3-1,5-1,6ZM133.19,64.5h0c2,0,4-1,6-1-1-1-3-2-3-2-2-1-3-1-4-2,0,2,1,4,1,5ZM129.19,58.5h2v-1c-1,0-1-1-2-2v3ZM132.19,59.5h2l6,3c-1-1-2-3-2-4,0-2-1-3-2-5-2,0-4-1-6-1h0c1,2,1,4,2,7ZM136.19,53.5c1,1,1,2,2,3,1,2,2,4,3,5,0-1,1-3,1-4v-2l-6-2ZM143.19,55.5h0c0,2-1,5-1,6,1-1,3-2,3-3,1,0,1-1,2-2l-4-1ZM153.19,47.5v-6c-1,1-2,3-3,4l2,1,1,1ZM149.19,45.5l1-1c0-1,1-2,1-3-1,0-3,1-3,1-.67,0-1,.33-1,1l2,2ZM146.19,42.5c2-1,4-2,5-2-1-1-3-1-4-1-2-1-7-1-8-1l7,4ZM139.19,38.5c1,0,3-1,6,0h6c-1-1-2-2-2-3-1-1-3-2-4-3v4-4c-2-1-3-2-3-2,0,0,1,1,3,1v-8l-4,4-2,2c-1,2-3,4-3,5v1h-1l4,3ZM145.19,32.5c1,0,2,1,3,2s3,2,4,3c0-1,0-3-1-4v-2c-1,0-1-1-2-2l-3-6c0,3-1,6-1,9ZM150.19,29.5c0-1-1-3-1-3v-1,2s1,1,1,2ZM149.19,26.5c1,1,2,3,3,5v1c1,1,1,2,1,2l-1-1c1,2,1,3,2,4l1-3c-2-2-4-5-6-8ZM155.19,33.5h0c1-1,2-3,2-5-1-1-4-3-6-4,0,0-2-1-3-1v1h1l6,9ZM156.19,35.5c-1,1-1,2-1,2l2-1-1-1ZM157.19,37.5l-1,1h2l-1-1ZM171.19,28.5h1c2,0,4,1,5,2,0-1-1-3-2-4-1-3-5-6-5-6,1,0,3,1,5,4,1,2,2,3,3,5,1-1,1-3,1-4v-3h-4s2,0,4-1c-1-1-1-2-1-3-2,0-3-1-3-1,0,0,1,0,3,1v-1,1h9c-2-1-3-2-4-3s-3-2-4-2h-3c-2,1-5,2-6,2s-1,1-1,1h0l2,12ZM178.19,18.5c1,1,1,2,1,3,1,0,3,0,4-1l3-1h0c-2,0-3,0-5-1h-3ZM179.19,22.5v1c1,2,1,4,1,6,1-1,2-3,2-4,1-1,2-3,3-5-1,1-2,1-3,1l-3,1ZM185.19,20.5c0,1,0,3-1,4l-3,6c1-1,3-1,4-2h2c1-3,1-6,2-8-1,0-1-1-1-1-1,1-2,1-3,1ZM187.19,28.5c-2,1-4,2-5,3,1,0,3,1,4,1h0l1-4ZM212.19,38.5c-1,1-1,3-2,5v2l4-2c2,0,3-1,4-1l1-1-1,1,2-1c-1,0-3-1-4-1-1-1-3-1-4-2ZM209.19,46.5v2l4-2,3-3c-2,1-5,2-7,3ZM217.19,43.5l-1,1,2-1h-1ZM213.19,46.5c-1,1-3,2-4,3h4c1,1,2,0,3,0l3-3c0-1,1-2,2-4l-1,1h-1l-6,3ZM216.19,49.5h5c0-2,0-4,1-5-1,1-3,2-4,4l-2,1ZM215.19,31.5c1,2,3,4,4,5,0,1,1,2,2,3v-4c0-2-1-5-1-7h-3c-2,0-4-1-6-1,1,1,3,2,3,3,2,2,7,4,7,4-1,0-3-1-6-3h0ZM220.19,28.5l-1-1c.67,0,1,.33,1,1h3-3c0,1,1,3,1,5,1,2,1,4,2,6,0-2,1-3,2-4,1-3,3-8,3-8,0,1-1,3-2,6-1,2-1,4-2,6,1-1,3-2,4-2,2-2,6-5,6-5,0,1-2,2-4,5-2,1-4,2-5,3h4c3,1,8,0,8,0,0,0-2,1-6,1-2,0-4,0-6,1,1,0,3,2,3,2,2,2,5,3,6,4h0c1,0,1,1,1,1l-1-1c-1,2-2,3-3,6-1,2-1,3-2,5,2-2,8-6,11-7-1,0-9,6-10,7h3c4-1,8-3,8-3,0,1-2,2-6,3-1,0-3,1-4,1,1,1,11,2,11,2h-12c1,1,10,6,10,6l-10-5c0,1,6,9,6,9-2-1-6-6-8-9,1,3,1,6,1,9,1-1,1-2,1-2,0,0,0,1-1,2,1,2,1,3,1,3,0,0-1-1-1-2,0,0-1,1-2,3-1,1-2,3-3,5l6-3c3-1,5-1,6-1,0,0-5,1-8,3,0,0-2,1-3,2,1,0,3,1,4,1,3,1,8,1,8,1h-7c-2,0-4,0-6-1l3,3c2,3,7,6,7,6-1-1-3-2-6-4-2-1-3-3-5-4,1,1,1,4,1,4v1c.67-.67,1.33-1,2-1,1,0-1,0-2,1,0,1,0,2,1,4,2-2,3-2,3-2,0,0-1,1-3,2v2c3-1,5-1,5-1-1,1-3,1-5,1,1,1,1,2,1,2,0-1-1-1-1-2,0,1-1,1-2,1-1,1-3,2-4,2,2,0,4,1,6,1,3,1,5,2,6,2,0,0-5-1-8-1h-3c1,0,2,1,2,1,3,2,7,4,7,4,0,0-2-1-6-2-1-1-3-2-4-2,0,1,1,2,2,2,1,3,5,6,5,6-1,0-2-1-5-4-1-1-2-3-3-4v4c1,3,3,7,3,7-1,0-2-2-3-5-1-2-1-4-2-5v3c-1,3-1,8-2,8,0-1,0-3,1-6v-6c-1,1-2,2-2,3-2,2-4,4-4,6,1-1,2-1,2-1,0,0-1,1-3,1v1-1c-1,1-2,1-3,1-2,0-4,1-6,1,2,1,3,2,4,2,3,2,8,3,8,3-1,0-3,0-7-1-1-1-4-2-5-3,1,2,1,3,2,4,1,3,5,7,5,7-1-1-3-2-5-5-1-2-2-3-3-5,0,2-1,4-1,4,0,3,1,9,1,9,0-1-1-3-1-7,0-2-1-4-1-6l-2,2h2s-1,0-2,1h0c-1,1-1,2-2,2,2,1,4,1,4,2,0,0-2-1-4-1l-1,1c2,2,4,3,4,3-2,0-3-1-5-2,0,1-1,2-1,2,0,0,0-1,1-2,0-1-1-1-2-1-1-1-3-1-4-2,1,2,2,3,3,5,2,3,3,5,3,6,0,0-2-5-4-7-1,0-2-1-3-2,1,1,1,2,1,3,1,3,3,7,3,7-1,0-2-2-3-5-1-2-1-4-2-5v3c-1,3-1,8-1,8v-12c-1,2-2,3-2,3h0c5,59,0,112,23,155h-10c-19-43-14-77-24-160-2-1-4-3-6-4,1,3,4,9,5,12,0,0-5-10-6-11-1,1-3,12-2,12-1-3,0-10,1-13-3,2-9,10-9,10,1-3,6-8,8-11-2,1-4,1-5,1h-1l2,2-2-2c-1,0-2,1-3,1l2,4s-1-2-3-4l-2,1c1,2,1,5,1,5,0-1,0-3-1-5h-1,1c0-.67-.33-1.33-1-2-1-2-1-3-2-4,0,1,0,4-1,6-1,3-1,5-2,6,0,0,2-5,2-8v-4c-1,1-1,2-2,3-2,3-3,7-3,7,0,0,0-2,2-6,0-1,1-3,2-4-1,0-2,1-3,1l-6,6c0-1,2-2,4-5,2-1,3-2,4-3h-3c-3,1-8,3-8,3,0-1,2-2,6-3,1-1,3-1,5-2-1,0-3,0-3-1h-9c1-1,3-1,7,0h5l-2-2c-2-2-5-3-6-4,0,2,1,4,1,4,0-1-1-2-2-5h0l-1-1c0-2-1-4-1-6-1,1-2,3-2,4-1,3-2,8-2,8,0-1,0-3,1-7,0-2,1-4,2-5-2,0-3,2-4,2-3,2-6,5-6,5,0,0,1-2,4-4,2-2,3-3,5-4h-4c-4,0-9,1-9,1,1,0,3-1,7-2,2,0,4-1,6-1-1-1-3-2-4-2,0-1-1-1-2-2,0,1,0,2-1,2,0,0,1-1,1-2-1,0-2-1-3-1-1,1-1,2-1,2,0-.67.33-1.33,1-2-1-1-2-1-2-1,0,0,1,0,2,1,1-1,1-3,2-4,1-2,1-4,2-5-2,1-4,2-5,4-3,2-5,3-6,3,0,0,4-3,7-5,0-1,1-1,2-2h-3c-3,1-8,3-8,3,1,0,3-1,6-3,2,0,3-1,5-2h-3c-3-1-8,0-8,0,0-1,2-1,6-1h5c-1-1-2-1-3-2-2-2-7-3-7-4,1,1,3,1,6,3,2,0,3,1,5,2-1-1-2-2-2-3-2-3-5-6-5-6,0,0,2,1,4,4l4,4v-3c0-1-1-3-1-4v1-1c0-3-1-4-1-4,0,0,1,1,1,3,1-1,1-2,2-4s2-4,3-5c-1,1-3,2-5,3-4,1-6,2-7,2,0,0,5-2,8-4,1,0,2-2,3-2-1-1-3-1-3-1-4-1-9-1-9-1h13c-1-1-3-2-3-3-2-2-7-5-7-5,1,1,3,2,6,4,2,1,3,2,5,3,0-1-1-3-1-4v-1l-2,2,2-2c0-1-1-2-1-3-2,1-3,2-4,2l4-2-1-2c-2,0-5,1-5,1,2-1,3-1,5-2v-1,1c.67,0,1.33-.33,2-1,2,0,3-1,5-2-3,0-10-1-13-2,0,0,9,1,12,1-1-1-10-5-10-5,2,0,8,3,10,4,0-2-7-9-7-9,2,1,7,6,9,8-1-1-1-2-1-3-1-3-3-8-3-8,1,1,2,3,3,6,1,2,1,3,2,5,0-1,0-3,1-3v-4c-2,1-3,1-3,1,0,0,1-1,3-2v-4c0,1,1,2,1,4,2-1,5-2,8-3-2-1-12-3-13-3,3,0,10,1,13,2,0-2-8-9-9-9,3,1,8,6,10,8,0-1-2-12-3-12,2,2,4,9,4,12,1-1,6-11,6-12,0,3-3,9-4,12,3-2,6-3,9-6-2,0-3-1-3-1,0,0,1,1,3,1l1-1v1c1,0,3,0,4,1h1c0-1-1-1-1-1-3-2-7-4-7-5,2,1,3,2,6,4,2,0,3,1,5,1-1-1-3-3-4-5-2-3-3-5-3-5,0,0,3,4,5,6,0,1,1,2,2,3v-3c-1-3-3-8-3-8l3,6c0,1,1,3,1,4,1-1,1-2,1-3V.5c0,1,1,3,1,6v6c0-1,1-3,2-3,1-3,3-8,3-8,0,1-1,3-2,7-1,1-1,3-2,4,1,0,2-1,3-1l6-6c0,1-2,2-4,5-2,1-3,2-5,4,2-1,3-1,4-1s3,0,5-1c-2,0-3-1-3-1,1,0,2,1,3,1,2,0,3-1,3-1,0,1-1,1-2,1,0,1,1,1,2,2l6,3-3-6c-2-3-2-6-3-6,1,0,2,5,4,7,1,1,2,3,3,4v-4c1-3,1-8,1-8v12l3-3c2-2,5-7,5-7,0,1-1,3-3,6-2,2-3,4-4,5,1,0,3-1,4-1,2,0,5-1,6-2h2s-1,0-1,1c1,1,2,4,4,6l1,1c-1-1-1-2-1-2-1-3-1-8-1-8,0,2,0,4,2,7,0,2,1,3,1,5,1-2,1-4,2-7s1-5,2-6c0,0-2,5-2,9v3c1-1,1-2,2-3,1-2,3-7,3-7,0,1,0,3-2,6-1,1-1,3-2,4,1,0,2-1,2-1,3-2,7-6,7-6,0,1-2,3-5,5-1,1-2,3-4,4,2-1,3-1,4-1,3,0,8-2,8-2-1,0-3,1-6,2-2,1-4,1-5,2,1,0,2,1,3,1s3,0,5,1ZM234.19,48.5c-1,0-3-1-5-2-1-1-3-2-5-3,1,1,1,3,2,4v1-2,3c1,2,2,3,2,4h0c1-4,2-6,3-6,0,0-2,4-2,7h0v2s0-1,1-1c1-3,3-6,4-7ZM228.19,53.5s-1-1-1-3v7c1-1,1-3,1-4ZM187.19,116.5h6c1-1,1-2,2-3-1,1-3,1-4,2-1,0-3,1-4,1ZM193.19,117.5h-5c-.67,0-1.33.33-2,1,1,0,2,0,4,1h1l1-1,1-1ZM191.19,119.5h-5c1,0,2,1,2,1,1,0,1,1,2,1l1-2ZM208.19,110.5c1-1,2-3,3-5s3-4,4-6v-1h0l-10-7-1,1c-2,1-4,1-6,2,2,0,4,1,4,1,3,2,8,2,8,2h-6c-2-1-4-1-6-2l3,4v-1,1c2,2,6,5,6,5-1,0-3-1-6-4h0c-1,1-1,2-1,4,0,1-1,2-1,3v2-1s-1,1-1,2c2-1,3-2,5-3,3-2,5-3,6-4,0,1-5,3-7,5l-3,3h4c2,0,4-1,5-1ZM200.19,99.5l-3-3v4c1,2,1,4,2,6,0-2,1-5,1-7ZM198.19,106.5c0-1,0-2-1-4,0-2-1-4-1-6l-2,4c0,1,1,2,1,4,1,2,1,4,2,5l1-3ZM193.19,100.5v2l2,5v-1c0-2-1-4-2-6ZM192.19,103.5c0,1-1,2-1,3s1,1,1,2c1,0,2,1,4,2l-1-1v-1l-3-5ZM192.19,101.5l1-2c0-1-1-1-1-1,.67,0,1,.33,1,1,1-1,1-2,1-3-1,1-3,2-3,2l1,3ZM190.19,97.5c1-1,3-1,4-2h-5l1,2ZM189.19,94.5h4c-1-1-3-2-4-3l-2-2,2,5ZM126.19,82.5v5c1,0,1,1,2,1,0-1-1-3-1-4-1,0-1-1-1-2ZM126.19,87.5c-1-2-1-4-1-6,0-1-1-2-1-2l-1,2c0,2,0,3-1,4h1l3,2ZM125.19,80.5v-1s-1-1-1-2v1l1,2ZM122.19,85.5c0-2,1-4,1-6v-2l-1,2c-1,2-2,3-3,5,1,0,2,0,3,1ZM136.19,25.5v2c-1,2-1,4-1,5l1-1h0l1-2c2-2,4-5,5-6-3,0-4,1-6,2ZM142.19,23.5c0,1-1,2-3,5l3-3s1-2,2-3l-2,1ZM154.19,16.5c1,0,5,0,8-1h2c-1,0-3-1-4-1s-2,0-3-1c0,1-2,2-3,3ZM218.19,96.5c1-1,2-3,3-4l2-2c0-2-1-4-1-5-1,1-1,3-2,3-1,3-2,6-2,8ZM223.19,90.5c-1,1-2,3-3,4,0,0,0,1-1,2,1-1,2-2,4-2l1-1c0-1,0-2-1-3h0ZM224.19,93.5c-1,1-2,2-3,2,0,0,0,1-1,1h2c1,0,2-1,3-1l-1-2ZM152.19,114.5l-3-3c-1,0-2-1-2-1,0,1,1,2,2,3l1,2c0-1,1-1,2-1ZM149.19,115.5c-1-1-1-2-2-3l-1-1c0,1,0,2,1,2v2h2ZM126.19,39.5v1c1,0,2-1,3-2,0,0,1,0,1-1-1,0-1,1-2,1,0,0-1,0-2,1ZM127.19,41.5v2h0l3-3c0-1,1-2,1-2-1,0-2,1-3,2l-1,1ZM128.19,44.5c0,1,1,3,1,5,1-1,1-3,2-4,1-2,2-6,2-8-1,2-2,3-3,5-1,0-2,1-2,2ZM202.19,15.5c-1,0-3,1-5,1-2,1-4,2-5,2,1,1,3,2,3,2,3,1,7,2,8,2l-1-1c-2-2-4-4-4-5l6,6c1,0,1,1,2,1-1-1-1-2-2-3-1-3-2-4-2-5ZM197.19,85.5v7c1-1,2-3,4-4l-2-1-2-2ZM201.19,88.5c0,.67-.33,1.33-1,2-1,1-1,2-2,3,1-1,3-1,4-1s2-1,3-1l-4-3ZM179.19,119.5h0ZM179.19,120.5v2l1-2h-1Z"/>
  <g>
    <path class="st0" d="M283.19,176.5l5-11h1c-1,2-1,5-1,6v2l-3,3c-1,0-2,1-3,2v-1l1-1ZM294.19,144.5s1,0,2,1v-1h-1l-1-1v1ZM301.19,148.5s1,0,1,1c1-1,5-3,6-3,0,0,2-1,3-1l2-1-3-3c1,0,2,1,3,3l3-2v-4s0,2,1,4l4-2c.67-.67,1-1.33,1-2v2l3-1v-1h0c-1-1-3-2-4-3-3-1-4-2-4-3,0,0,3,3,5,4,1,0,2,0,3,1,0-1-1-3-2-4-1-3-1-4-1-5h-1l-1-1h0c-2,2-5,4-7,7,2,1,4,1,4,1,0,1-2,0-4-1l-2,2c1,2,4,4,4,4-1-1-2-2-4-3h-1l-2,2v4s0-2-1-4v1c-1,1-5,7-6,8ZM303.19,151.5v1l12-2h1l1-1c-1,0-3-1-3-1-3,0-6-1-6-1h5c1,1,2,1,4,1l-3-3-1-1-5,3c-1,1-3,2-5,4ZM304.19,153.5h4s4-1,6-2l1-1c-4,1-8,2-11,3ZM304.19,156.5h0v1l1-1h-1ZM303.19,159.5v2l1-2h-1ZM302.19,161.5h0l1,1v-1h-1ZM300.19,163.5h0l1,1h0l-1-1ZM288.19,165.5c-.67,0-1-.33-1-1-1,2-3,4-4,5-2,2-3,2-3,2l-1,1c0,1,1,2,1,2,0,1,1,2,1,3,1-1,1-3,2-4,1-3,1-4,2-5,0,0-2,4-2,6v1c1-3,3-7,5-10ZM285.19,163.5c0-1-1-1-1-1-1,0-2,1-3,1v1-1c-2,2-3,1-3,1l-1,1h2-3l-1,1-3,1,1,1c3,2,4,3,4,3,0,0-3-2-5-3h0l-2,1,1,2c1,2,1,4,1,4l-2-6h-1l-2,1v1c0,3-1,4-1,5,0,0,1-3,1-6l-6,3h0c1,1,3,2,5,3s3,2,4,3l-6-3c-1-1-2-1-3-1,1,1,1,2,2,4s2,3,2,4l1,1h1l6-6c-2-1-3-1-3-1,0,0,1,0,3,1l3-3c-2-1-4-3-4-3,1,1,2,1,4,3l3-3c-1-2-1-4-1-4,0,0,1,2,1,3h1c1-3,3-6,5-8ZM283.19,160.5h-3l1,1s1-1,2-1ZM283.19,159.5c-.67-.67-1-1.33-1-2-1,1-2,1-3,1l1,1v1l3-1ZM282.19,155.5v-1h-2s0-1-1-1h-1l2,2h2ZM282.19,153.5h-1,1ZM283.19,150.5l1-1h-2l1,1ZM285.19,147.5h1-1ZM286.19,146.5h1-1l-1,1c1,0,1-1,1-1ZM289.19,145.5h0v-2l-1,1,1,1ZM290.19,144.5h1v-1h0l-1,1ZM300.19,165.5h1-1ZM301.19,166.5h0v1-1h0ZM293.19,176.5l-2-2c0,1,1,1,2,2,1,2,1,3,1,5-2,0-4,1-5,1,0,0,3-1,5-1v1l1,2-4,2s2,0,4-1v9h-1v1h-2c-1-1-2-1-3-1-2-1-3-1-5-2,1,0,3-1,3-1,2-1,6-2,6-2,0,0-2,0-5,1-1,1-3,1-4,1l3-3v1-1l2-4s-1,2-2,3c-1,0-1-1-2-3l1-3c2,1,5,3,5,3,0,0-1-1-4-3h-1l1-3h5-5l1-3,1-2v-1h0v-1l1-3,1-1c1,3,1,6,2,9ZM299.19,168.5h1v2l-1-2ZM300.19,171.5l1-1h0l1,1c-1,1-1,3-1,4l-1-4ZM302.19,169.5v-1l1,3-1-1v-1ZM303.19,173.5v4l-1,1v-7l1,2ZM303.19,178.5v1-1l1-1v-1l1,2c-1,1-2,1-3,1h0l1-1ZM303.19,176.5v-2l1,2h-1ZM303.19,173.5v-5l2,2h-1,1l1,1s0,1,1,2c-1,0-2,1-3,2l-1-2h0ZM307.19,173.5c1,1,2,2,2,3,0,0,0,1-1,1l1-1v1-1c1-1,2-2,3-4l2,2c0,3-1,5-1,5,0,0,1-2,1-4,3,2,5,5,8,7h-1v1c-1,1-2,2-3,4-1,0-1,1-2,1h-4c1-1,8-5,8-5-2,0-7,3-9,4,1-1,5-8,5-8-2,1-5,6-6,8h0v-1l-2-4c2,1,3,1,3,1,0,0-1,0-3-1l-2-3c2-1,5-2,5-2,0,0-2,0-5,1h0l-1-3c0-1,1-2,2-2ZM309.19,176.5c0-1-1-2-2-4h1-1l-1-2h4l2,2-1,1c-1,1-1,2-2,3ZM306.19,170.5c-1-1-1-2-2-3,1,1,3,1,4,1h0v1l1,1h-3ZM310.19,169.5h0ZM311.19,170.5c.67,0,1.33.33,2,1l-1,1-1-2h-1,1ZM314.19,171.5h0l1-1c0,1-1,3-1,3v1l-1-2h0l1-1ZM313.19,170.5h-1c.67-.67,1.33-1,2-1,0,1-1,1-1,1ZM311.19,169.5l-2-1h0l-2-3h0c1,1,2,1,3,1,1,1,3,2,4,2-1,0-3,1-3,1h0ZM308.19,165.5h1l3,2-1-1c-1,0-2,0-3-1ZM310.19,164.5h2l1,1s1,1,1,2h-1v-1l-3-2ZM313.19,164.5c1,0,2-1,2-1,0,0-1,0-2,1l-1-1c-1-2-2-3-3-3h1l5,2h0v4c-1,0-1-1-2-2ZM312.19,164.5h-3l-3-2h0c1-1,2-1,3-2h0c1,0,2,2,3,4ZM308.19,164.5l-2,1-1-1,1-1,2,1ZM306.19,165.5h0l-1-1h0s1,0,1,1ZM310.19,159.5l2-2c-1,0-1,1-2,2-1-1-2-1-3-2h-2v-1c3-1,6-1,8-2h2c-1,2-3,4-3,4l3-3v-1h3v1c0,3,1,5,1,5v-6h2c1,2,3,5,3,5l-2-4v-1h5l1,1s0-1-1-1h5v1c0,2,0,3,1,5h0l-1,1c0,2-1,3-1,5-1-1-1-3-1-3-1-3-2-7-2-7,0,1,0,3,1,5,0,2,0,3,1,5-1-1-3-2-4-3-2-2-3-3-4-3,0,0,3,2,5,4,0,1,1,2,2,3l-1-1h-1l-4-2c2,0,3-1,3-1-1,0-2,0-3,1l-4-1,2-4s-1,1-2,3l-4-1v-4,4l-2-1c-1,0-3-1-3-1h0ZM308.19,160.5l-1,1-1,1-2-1h0v-2c2,0,3,1,4,1ZM305.19,163.5h-1v-1l1,1ZM282.19,152.5h-4l1-1,3,1ZM282.19,149.5h1-1ZM282.19,148.5v1h-4l1-2v-1c1,0,2,1,3,2ZM278.19,151.5h-1,1ZM280.19,143.5v-2s0,1-1,2c0,0-1-1-2-1l-5-4v-1,1l-9-9h1c1-1,2-3,3-4,0,0,2,0,4-1s3-1,4-2c0,1-1,2-1,3-1,2-4,5-3,5,0,0,1-1,3-4,1-1,2-3,3-4h0v1l2,4c-2,0-4-1-4-1l4,2,1,3c-2,1-5,1-5,1,0,0,2,0,5-1h1l1,3-3,3h-1v1l1-1c0,1,2,1,4,2h1v1h0s0,1,1,2c-2,1-4,1-5,1ZM279.19,145.5c0,1-1,2-1,3l-1,1h0c0-1-1-1-1-1v-1c-1-1-1-2-1-3,.67-.67,1.33-1,2-1l1,1h-1,1s0,1,1,1ZM277.19,150.5l-1,1v-1h1ZM276.19,149.5h0ZM275.19,143.5v-2l2,2h-2ZM275.19,141.5v3h-2c-1,1-2,1-3,1l-1-1c1,0,1-1,2-2,0-2,1-3,1-4l2,3h1ZM275.19,144.5v4h-1c-1,0-2-1-2-1l-1-1,1-1c1,0,2-1,3-1ZM275.19,148.5v1l-1-1h1ZM275.19,149.5h-1,1ZM275.19,150.5v1l-1-2,1,1ZM269.19,144.5l-1-1s0,1,1,1l-1,1v-3c-1-2,0-6,0-6,0,0-1,2-1,5v4l-2-2c-1-1-2-3-3-4,2-1,3-1,3-1h-3v-1,1c0,1-1,1-2,1-2,1-3,1-4,2,0-1,1-3,2-4,0-2,1-3,1-4,1-1,3-2,3-3h1l9,8c-1,2-2,4-3,5v1ZM269.19,145.5h1l-2,1,1-1ZM270.19,146.5l1,1h-2l1-1ZM272.19,149.5c1,1,2,2,2,3l-2-1-1-1-2-2h1l2,1ZM271.19,151.5c-1,0-2,0-2-1l-1-1c1,0,2,1,3,2ZM268.19,150.5h-1v-1l1,1ZM266.19,150.5l-1-1h1v1ZM265.19,149.5h-1l-1,1c-1,2-4,4-4,4l4-2c1-1,1-2,2-3l1,1v2c0,1-1,2-1,4h-1,1l-1,1h-2c0-1-1-1-1-1,0,0,1,0,1,1h-8c0-2-1-4-1-6v-3c0-1,1-3,1-4,1,1,1,2,2,3,1,2,1,6,1,6,0,0,0-2-1-5h5c1,1,2,1,2,1,0,0-1,0-2-1h5l-1,1ZM267.19,150.5l1,1v1c1,1,1,2,1,3h-3v-1,1l-1,1c0-1,1-2,1-3s1-2,1-3ZM269.19,151.5h0c1,1,3,1,4,1l1,1c-1,0-3,1-3,1h-1l-1-1v-2ZM274.19,153.5h0ZM265.19,156.5h1l1,1h-3l1-1ZM266.19,156.5c1,0,2-1,3-1h0c1,1,1,2,1,2h-3s0-1-1-1ZM270.19,155.5c1,0,3-1,5-1-1,1-2,2-2,3h-1c1-1,1-2,1-2,0,0-1,1-1,2h-2v-2ZM272.19,158.5s-1,1-1,2c0-1,0-2,1-2h0ZM269.19,162.5h-1,1l-1,1c0-1,0-3-1-4v-1h4l-1,1c0,1-1,2-1,3ZM270.19,161.5c1-1,1-2,2-2l1-1h2v2l-6,3,1-2ZM274.19,156.5l1-1v1h-1ZM275.19,161.5v1l-4,1c2-1,3-2,4-2ZM275.19,162.5v3h-2c-1,0-2,0-3-1h1l4-2ZM275.19,165.5v-3l5-1h0c-1,1-2,2-2,3l-3,1h0ZM276.19,162.5v-2c1,0,2-1,2-1-1,0-1,1-2,1h0v-2h2c1,0,1,1,2,2l-4,2ZM276.19,156.5l1-1v1h-1ZM278.19,156.5v-1h1l-1,1ZM300.19,146.5l-1-1,3-5h1c-1,1-1,3-1,3,0-1,1-2,1-3h1v-2c1-1,2-3,2-4,0,1,1,3,1,3v1l-1,2-3,2c-1,1-2,2-3,4ZM296.19,143.5c-1,0-2-1-3-1v-1h4c0,1,0,2-1,2ZM300.19,141.5l1-1-3,4c1-1,1-2,2-3ZM303.19,140.5h-1c1-1,2-3,3-4-1,0-1,1-1,1,0,1,0,2-1,3ZM301.19,140.5h-1v-3l1-1,1-1c1,0,2-1,3-1h0c0,1-1,1-1,1l-3,5ZM298.19,140.5h-5c1-1,2-2,3-2,1-1,3-2,4-2h0l-3,3s1-1,3-2h0s-1,0-2,3h0ZM301.19,135.5h0ZM302.19,135.5h-1l1-2h2l-2,2ZM300.19,135.5c0,1-2,1-3,2-1,0-3,1-4,2v-1l1-2v-1l1,1s0-1-1-1c0-1,1-2,1-2h7l-1,1-1,1ZM295.19,133.5c1-2,2-3,2-3,0,0-2,1-3,4h0c-.67,0-1.33-.33-2-1v-4h5c0-1-3,0-5,0v-3l4-2c-1,0-2,0-4,1,0-3,0-6,1-9h6c2-1,4-1,4-1,2,1,3,1,5,2-3,1-9,2-9,2,1,0,7-1,9-1l-3,3c-2,1-2,2-3,3,0-1-1-2-1-2,0,0,0,1,1,2l-1,1,1-1c0,1,1,2,1,3l1,2-1,1h-1c-2-1-5-4-5-4,0,1,1,2,4,3l2,2-1,1h-1c-2,1-5,1-6,1ZM293.19,135.5v1c-1,0-1-1-1-1v-1l1,1ZM291.19,138.5c0-1-1-2-1-3v-3c0,1,1,1,1,1v5ZM290.19,132.5v-2l1-1v4h0l-1-1ZM290.19,129.5v-1,1h-2l2-2c1,0,1-1,2-1l-1,3h-1ZM290.19,130.5c-1,0-1,1-1,1,0,0-1-1-2-1h3ZM289.19,132.5v2c1,1,1,3,1,5h0c0-1-1-2-1-4-1-1-1-3-2-4l2,1ZM290.19,138.5l-2-1-1-4s0,1,1,1c0,1,1,3,2,4ZM287.19,136.5h0l-2-2,1-3v1l1,1v3ZM285.19,133.5l-1-1,1-1v2ZM283.19,132.5v-1l1-1-1,2ZM283.19,131.5v1l-1,1h0l-1-2h2ZM284.19,133.5l1,1-1,1v3l-2-4,2-1ZM285.19,134.5l1,1c0,1,1,2,2,3v1h-3l-1-1c1-1,1-2,1-4ZM289.19,139.5v1-1h0ZM284.19,139.5c-2-1-4-1-5-2l3-3h0l1,3,1,2ZM285.19,140.5c1,0,2,0,3,1h-2s0-1-1-1ZM280.19,144.5c1-1,2-1,3-1h2c0,1,1,1,1,2s-1,1-1,2c-2-1-3-2-5-3ZM287.19,142.5h2l-1,1-1-1ZM289.19,143.5h1-1ZM267.19,158.5v5c-2-2-3-3-4-5h4ZM262.19,158.5c2,2,3,4,4,6-1-1-9-3-9-3,1,0,2,0,3,1v4c-1,0-1,1-2,1-1-3-1-4-2-4l2,4h-1,1v2s1,1,1,2c-1,0-2-1-3-2-1,0-2-2-3-3,1-2,1-5,1-7v-1h8ZM260.19,162.5l2,1c1,1,3,1,4,2-1,0-2,0-3,1h-2c0-2-1-3-1-4ZM258.19,167.5h2v4c-1-2-1-3-2-4ZM261.19,167.5l1-1h4c-2,2-3,4-6,6,1-2,1-3,1-5h0ZM260.19,172.5c3-2,5-4,7-6v3c-2,2-4,3-6,4l-1-1h0ZM268.19,169.5v-2l1,1-1,1ZM270.19,168.5c0-1-1-1-1-2l2,1-1,1ZM272.19,167.5c-1-1-2-1-2-2,1,1,3,1,4,1h0l-2,1ZM297.19,194.5h-2v-9c1,4,1,6,2,9ZM303.19,184.5h0l3,3h-2l-1-3ZM307.19,188.5v1h-3v-1h3ZM308.19,189.5c-1,2-2,3-3,4l-1-3c2,0,3-1,4-1ZM307.19,188.5h1-1ZM306.19,187.5s-1-1-1-2c-1-1-2-2-2-3v-1l2,1h2c1,2,2,4,3,5-1,0-1,1-1,1-1-1-2-1-3-1ZM307.19,182.5h0c-2-1-3-1-5-2,1,0,3-1,3-1h1l1,3ZM315.19,174.5c0-1,0-3,1-4,0,1,1,3,1,3,1,2,1,4,2,5l-4-4ZM319.19,178.5s0-2-1-4c0-1-1-3-1-4,1,1,2,1,2,2,2,1,5,4,5,4,0-1-1-2-3-4-1-1-3-2-4-3h4c1,0,2,0,3,1-2,0-4,1-4,1,0,0,2,0,5-1h2-1c1-1,2-1,3-2-1,2-1,3-2,4-1,3-2,4-2,5l3-6,2-2v6c-1,1-2,1-4,3l-3,3h-1v1-1l-3-3ZM325.19,169.5h-3c-2-1-3-1-5-1,1-1,3-2,3-2,0,0,1,0,1-1,1,1,2,1,3,1,2,1,3,1,5,2-1,0-3,1-3,1h-1ZM321.19,165.5h2c1,0,2,1,4,1h-1c-2,0-3,0-5-1ZM322.19,164.5l-1,1h-2,1c-1,1-2,1-3,2,0-1,1-2,1-3,0,0,0-1,1-1l3,1ZM318.19,163.5c-1,1-1,2-2,4v-4c-1,0-1-1-1-1l3,1ZM308.19,153.5c1,0,3,0,5-1,1-1,3-1,4-2,0,1-1,3-1,3h-8ZM316.19,153.5l2-2v2h-2ZM319.19,153.5v-2l2,2h-2ZM321.19,153.5c0-1-1-2-1-3,1,1,2,1,3,2,1,0,2,1,3,2l-5-1ZM327.19,154.5c-1-1-2-1-3-2s-2-2-4-2c1-1,3-1,4-1h6-1c0-1-1-4-1-6h0c0-1-1-2-1-3,1,1,2,2,3,2,1,1,2,3,3,4v2c-1,1-1,3-1,5v1h-5ZM329.19,149.5c-1-1-2-1-4-1,0-1,1-2,1-4l1-1v1c1,2,2,4,2,5ZM325.19,148.5h0c-2,0-3,0-5,1l3-3,2-2v4ZM327.19,143.5s-1,0-1,1v-3c.67.67,1,1.33,1,2ZM325.19,144.5l-1,1c-2,1-3,2-4,3v-3c1-2,1-3,2-5,1,0,2-1,3-1h1c-1,2-1,3-1,5ZM321.19,141.5s0,1-1,2c0,1-1,3-1,4-1-1-1-2-1-3-1,0-1-1-1-1l4-2ZM317.19,143.5h0c0,2,0,3,1,5-1-1-2-2-3-2,0-1-1-1-2-2l4-1ZM308.19,138.5c0-2-1-3-1-4,1,0,2,1,3,2l-2,1v1ZM310.19,136.5v-1l-2-2c1,0,3,1,3,1h1l-2,2ZM312.19,134.5c-1-1-2-1-4-2,1,0,3-1,3-1,2-1,5-2,6-2l-5,5ZM317.19,129.5c-1,0-2,0-5,1-1,0-3,1-4,1,1-1,1-2,2-2,0-1,1-2,2-3,0,1,1,2,1,2,0,0,0-1-1-2l2-2s-1,0-2,1c0-2-1-4-1-6,1,1,2,2,3,2,1,1,2,1,2,2l3,3v1h1l-3,2ZM312.19,125.5l-2,2c-1,1-2,2-3,4v-5c1-1,1-2,1-2,1-2,1-3,2-5,1,2,1,4,2,6ZM308.19,124.5v-3h0v3ZM308.19,122.5c0,1-1,2-1,4v1l-1,1h1c-1,1-1,2-1,3l-1-3,3-6ZM304.19,128.5h0c-1-1-1-3-2-4l4-4c1,0,2-1,3-1v1h-1l-4,8ZM304.19,129.5c0,1,1,1,1,2l-1-1v-1ZM303.19,131.5l2,1h-2v-1ZM292.19,125.5l-1,1c-1,0-3,1-4,2,0-1,1-2,1-3l3-6c0,1-1,2-3,4,0,2-1,3-2,4v-3c-1,0-1-1-1-2h3-3v-3c1,0,2-1,3-1,0,0-2,1-3,1v-1,1c-1,0-3,1-4,1h-2c0-1,1-2,2-2l3-3h2c2,1,4,1,5,1h1v9ZM285.19,119.5v3c-1,0-3,0-4-1h-2c2-1,3-1,4-1l2-1ZM285.19,122.5v6c-1-1-2-2-2-3l-3-3h5ZM280.19,122.5l2,2c0,2,2,3,2,4h-3s-1,0-1-1c-1-1-2-3-3-5l1-1c0,1,1,1,2,1ZM280.19,128.5c1,1,3,1,4,1-1,1-2,1-3,2h0l-1-3ZM262.19,139.5c1,1,1,2,2,3l1,2c-1,0-2-1-4-1-1,0-2-1-3-1h-1,1-2c1-1,2-1,3-2,1,0,2-1,3-1ZM265.19,144.5l1,2-4-2s-1,0-2-1c1,0,4,1,5,1ZM259.19,143.5l1,1-2-1h1ZM262.19,145.5c1,1,2,1,3,2h-3l-1,1-3-3-2-2h2l4,2ZM260.19,148.5h-4c0-2,0-3-1-4,1,1,3,2,4,3l1,1ZM259.19,134.5c-1,1-2,3-3,4,0,0-1,1-1,2v-8s1,0,2-1c1,0,3,0,4-1-1,1-1,2-2,2-1,2-4,5-4,5,0,0,2-1,4-3h0ZM255.19,132.5v-1,1h-3,3c-1,1-1,2-1,4v4l-2-2c-2-2-3-6-3-6,0,1,0,2,2,5,0,1,1,3,2,4-1-1-2-1-3-1l-6-3c1,0,2,1,4,3,2,0,3,1,4,2h-3c-2,1-6,1-6,1h10l-2,2c-2,1-3,3-5,4h1c0,1,1,2,3,4,0,1,1,2,2,3-2-1-7-3-9-3,0,0,7,3,8,4h-3c-2,0-6-1-6-1,0,0,2,1,5,1,1,0,2,1,4,1-1,1-9,2-9,2,2,0,7-1,9-1,0,1-6,6-7,5,2,0,6-3,8-5,0,2-4,8-4,8,1-1,4-5,5-7v6l-1-1s0,1,1,1v3-2c1,0,1,1,2,2l3,3c-1,0-3,0-5-1h-5s4,0,7,1c0,0,2,1,3,1-1,1-3,1-3,2-2,1-6,1-6,2,0,0,2-1,5-1,1-1,3-1,4-2,0,1-1,2-2,3-1,2-4,5-4,5,1,0,2-2,4-4l3-3v4c0-1-1-1-1-1l1,1v2c-1,0-3-1-3-1,0,0,2,1,3,2v1h-4c1,1,2,0,4,1h2c1,0,2,1,3,1-1,0-3,1-4,1-3,2-4,2-5,3,0,0,4-2,6-2,1-1,2-1,3-1l-2,2c-2,1-5,3-5,3,1,0,2-1,4-2,1-1,3-2,4-2-1,0-1,1-1,2-1,2-4,5-4,5,1,0,2-1,3-4,1-1,2-2,2-3,0,1,0,2,1,3-1,2-1,6-1,6,0-1,0-2,1-5v-4c1,1,1,2,2,2,1,3,1,7,1,7v-5c-1-2-1-3-2-4,1,0,2,1,3,1,1,1,3,3,3,4h-2s1,1,3,1h7c-1,1-2,2-3,2-2,2-5,3-5,3,0,0,2,0,4-2,2,0,3-1,4-2,0,1-1,2-1,3l-3,6c1-1,2-2,3-5,1-1,2-2,2-4,0,1,1,3,1,3,1,3,1,7,1,7v-5c0-2-1-4-1-5l2,2h-1,2c0,1,1,1,1,1-1,1-2,2-3,2,0,0,2-1,3-1l1,1c-1,1-2,3-2,3,1-1,1-2,3-3,1,1,1,2,1,2,0,0,0-1-1-2,0,0,1,0,1-1,1,0,2-1,3-2,0,2-1,3-2,5s-1,4-1,4c0,0,1-3,2-5,1-1,1-2,2-2v2c0,2-1,6-1,6,0,0,0-2,1-5,0-1,1-2,1-4,0,1,0,2,1,3,0,2,1,6,1,6,0-1,0-2-1-5v-4c0,1,1,2,1,2h1c1,13,2,25,2,38-1,14-3,27-6,41h8c3-14,5-27,5-41,1-15,0-31-2-43,1-2,3-3,4-4-1,2-2,8-2,9,0,0,2-8,3-9,1,1,3,9,3,9,0-2-1-7-2-9,2,0,8,6,8,6-1-2-6-6-7-7h4c-.67.67-1,1.33-1,2,0,1,0-1,1-2h3c-1,2-1,3-1,3,0,0,0-1,1-3h1v4c1-1,0-2,1-4h0v-1c1-1,1-3,1-4,0,2,1,3,2,5s1,4,2,4c0,0-2-3-2-6,0,0-1-1-1-2,1,0,1,1,2,1l3,6c0-1,0-2-2-5-1-1-1-2-2-3,1,0,2,1,2,1,2,1,5,4,5,4,0-1-1-2-3-4-1,0-3-1-4-2h3c2,0,6,1,6,1,0,0-2-1-5-1-1,0-2-1-4-1,1,0,2-1,3-1,2-1,6-2,6-2-1,0-2,1-5,1-1,0-3,1-4,1,1-1,1-2,2-2l4-4c0,2-1,4-1,4,0-1,1-2,1-4h0v-1c1-2,1-3,1-5,0,1,1,2,2,3,1,2,2,6,2,6,0-1,0-3-1-5-1-1-2-3-2-4,1,0,2,1,3,1,2,1,5,3,5,3,0,0-1-1-4-3-1-1-2-1-4-2,1,0,3,0,3-1h7-10c1-1,2-2,2-3,.67,0,1.33-.33,2-1,0,.67.33,1,1,1,1,0-1,0-1-1,1,0,1-1,2-1l1,1s0-1-1-1c1-1,2-1,2-1h-2c-1,0-1-1-2-2-1-2-1-3-2-4,1,1,3,2,4,3,3,1,5,1,5,1,0,0-4-1-6-3,0,0-1,0-2-1h3c2,0,6,1,6,1-1,0-2-1-5-1-1-1-3-1-4-1,1,0,2-1,3-1,2-1,6-1,6-1h-5c-2,1-3,1-4,1l2-2c2-1,5-3,5-3-1,0-2,0-4,2-2,1-3,2-4,2,1-1,1-2,1-2l3-6c0,1-1,2-3,4,0,2-1,3-2,4v-6l1,1-1-1v-3,3c-1-1-1-2-2-3s-2-3-3-4c1,1,3,1,5,2h5s-4,0-7-1c0-1-2-1-3-2,1,0,3-1,3-1,2-1,6-1,6-2,0,0-2,1-5,1-1,0-3,1-4,1l2-2c1-2,4-5,4-5,0,0-2,1-4,3-1,1-2,3-3,4v-4h0c1,0,2,1,2,1l-2-2v-2c2,1,3,1,4,1,0,0-2,0-4-1l1-2h3-3v-1l-1,1h-1c-1-1-2-1-4-1,3-1,8-3,9-4,1,0-6,2-8,2,1-1,7-5,7-5-2,1-6,3-8,5,0-2,5-8,5-8-2,1-4,5-6,7v-2c1-3,2-7,1-7,0,1,0,2-1,5,0,1,0,3-1,4,0-1,0-2-1-2v-3c1,0,2,1,2,1,0-1-1-1-3-1v-3,3c-2-1-4-2-6-2,0-1,8-4,8-4-2,0-7,2-9,3,0-1,5-8,6-8-2,1-5,6-7,8,0-1,0-9,1-10-1,2-2,7-2,10,0-1-5-8-5-8,0,2,3,6,4,8-3-1-5-2-7-3,1-1,2-1,2-1,0,0-1,0-3,1v-1,1c-1,0-2,1-3,1h-1l1-1c2-1,5-4,5-4-2,1-2,2-5,3-1,1-2,1-3,2,1-1,1-3,2-4,1-3,2-4,2-5l-3,6-2,2c0-1,1-2,1-2,0-3,1-7,1-7-1,1-1,2-2,5,0,1,0,3-1,4v-2c-1-3-2-7-2-7,0,1,0,2,1,5,0,2,0,3,1,4-1,0-2-1-2-2-2-1-4-5-4-5,0,1,1,2,2,4s2,3,3,4c-1-1-2-1-3-1-2-1-5-4-5-3,0,0,1,1,4,3,1,0,2,1,3,2h-6c1-1,2-1,2-1-.67,0-1.33.33-2,1h-3,2l-1,1c-2,1-3,2-4,3,0-1,1-3,1-4,1-3,1-5,1-5,0,0-1,4-2,6,0,0-1,2-1,3,0-1-1-3-1-3-1-2-2-6-2-6,0,0,0,2,1,5,0,1,1,3,1,4-1-1-2-1-3-2-2-1-4-4-4-4,0,0,1,2,3,4l3,3h-3c-2,0-4,0-5-1h-1,1c-1,2-1,4-2,6-.67,0-1,.33-1,1v-2c1-2,0-6,0-6v5c-1,2-1,3-1,4-1-1-1-3-2-4-1-3-2-4-2-5,0,0,2,4,2,6,0,1,0,2,1,3l-2-2c-2-2-4-5-4-5,0,0,1,2,3,4,0,1,1,2,2,3-1,0-2,0-2-1l-6-3c1,0,2,2,4,3,1,1,3,2,4,2h-9s2,0,5,1h4c-1,1-2,1-3,1-1,1-2,1-3,2ZM247.19,149.5c0-1,1-1,3-2l3-3v4l-1-1v2c0,1,0,2-1,3h0c-1-3-2-4-2-5,0,0,1,3,2,5v1h0s0,1,1,1c-.67,0-1-.33-1-1-2-1-4-3-4-4ZM251.19,152.5c.67-.67,1-1.33,1-2,1,1,1,2,1,3v2c-1-1-1-2-2-3ZM291.19,195.5h-5c-1,0-1-1-2-2,1,1,3,1,3,1,1,0,3,0,4,1ZM286.19,196.5c1-1,3-1,4-1,0,0,1,0,2,1-1,0-2,0-3,1h-2l-1-1ZM288.19,198.5c1-1,2-1,2-1h1-1c0,1-1,1-1,2l-1-1ZM274.19,192.5c-1,0-2-1-3-3-1-1-2-3-4-4v-1h0l7-6h1c1,1,3,1,4,1-1,1-2,1-3,2-2,1-6,2-6,2,1,0,3,0,5-1s3-1,5-2l-2,3v-1,1c-1,2-4,5-4,5,1,0,2-1,4-4h0c1,1,1,2,1,3,.67.67,1,1.33,1,2v1-1c1,1,1,2,1,2-1,0-2-1-4-2s-4-1-4-1c0,0,3,1,5,2,1,1,2,1,2,2h-6ZM278.19,184.5c1-1,2-2,2-3,1,1,1,2,1,3v4c-1-1-2-3-3-4ZM281.19,188.5v-7l3,2c-1,1-1,2-1,3,0,2-1,3-1,5l-1-3ZM284.19,183.5c0,.67.33,1,1,1l-2,5v-1c0-2,1-3,1-5ZM285.19,185.5c1,1,1,2,2,3-.67,0-1.33.33-2,1l-2,2v-1l1-1,1-4ZM285.19,184.5l-1-2v-1,1c-1,0-1-1-2-2,2,1,3,1,3,1v3ZM286.19,181.5c-1-1-2-1-3-2,1,0,2,0,3-1h0v3ZM286.19,178.5h-3l3-3,2-1-2,4ZM333.19,161.5v4s-1,0-1,1v-3c0-1,1-1,1-2ZM333.19,164.5v-4s1-1,1-2v2c1,1,1,2,2,3h-1l-2,1ZM333.19,159.5h0v-2l1,1-1,1ZM336.19,163.5c-1-2-1-3-2-5v-1h0l1,1c1,1,2,3,3,4-.67,0-1.33.33-2,1ZM318.19,119.5v1c1,2,1,3,1,5v-1h-1l-1-1c-1-2-3-4-4-5,2,0,3,1,5,1ZM313.19,118.5c1,1,1,2,3,4-1-1-2-1-2-2-1,0-2-1-2-2h1ZM303.19,115.5h-8c1,0,2-1,3-1s2-1,2-1c1,0,2,1,3,2ZM265.19,183.5l-3-3c-1,0-2-1-2-1v-4c1,1,2,2,2,3,1,1,2,4,3,5ZM260.19,179.5l3,3s0,1,1,1c-1,0-2-1-3-1l-1-1v-2ZM259.19,182.5c1,0,2,1,3,1l1,1h-2c0-1-1-1-2-1v-1ZM317.19,188.5l2-2,1-1c0,1-1,2-1,3v1c-1,0-2-1-2-1ZM319.19,189.5c0-1,1-2,1-2,0-1,1-1,1-1v1c0,.67-.33,1.33-1,2h-1ZM327.19,128.5v2c-1-1-2-1-2-2h-1,3ZM327.19,130.5v2h0c-1-1-2-2-3-2,0-1-1-1-1-2,1,1,2,1,3,2h1ZM327.19,132.5c-1,2-1,3-1,4,0-1-1-2-2-2-1-2-2-5-2-6l3,3c0,1,1,1,2,1ZM267.19,120.5h3c2,1,4,1,5,1-1,1-2,1-3,2s-4,2-5,2h0c2-3,3-4,3-5,0,0-2,4-4,5,0,1-1,1-1,2,0-1,0-2,1-4,0-1,1-3,1-3ZM279.19,173.5h0c0,2,1,3,1,5l-3-3,1-1,1-1ZM276.19,175.5l1,1,2,2h-5l2-3ZM297.19,195.5v1-1h0ZM297.19,197.5v1l-1-2,1,1Z"/>
    <rect class="st1" x="285.19" y="147.5" width="17" height="14"/>
  </g>
</svg>