<?xml version="1.0" encoding="UTF-8"?>
<svg id="Layer_1" xmlns="http://www.w3.org/2000/svg" version="1.1" viewBox="0 0 122 255">
  <!-- Generator: Adobe Illustrator 30.6.0, SVG Export Plug-In . SVG Version: 2.1.4 Build 109)  -->
  <defs>
    <style>
      .st0 {
        fill: #6b1831;
        fill-rule: evenodd;
        stroke: #6b1831;
        stroke-linecap: round;
        stroke-linejoin: round;
      }
    </style>
  </defs>
  <path class="st0" d="M76.5,83.5l-8-12h-1c1,3,2,5,2,8l1,2c1,0,3,1,4,2,1,0,2,1,3,2v-1c0-1-1-1-1-1ZM58.5,47.5c-1,1-2,1-3,1h0v-1l2-1,1,1ZM49.5,53.5v1c-1,0-7-2-7-1,0,0-3-1-5-2h-2c1-2,2-3,2-4l-2,4-5-2v-4,4l-6-1c-1-1-1-2-1-2,0,0,0,1,1,2l-4-1h-1v-1c2-1,3-2,5-4l4-4s-3,3-6,5c0,0-2,1-3,2,1-2,1-3,2-5,0-3,1-5,1-6v-1h1v-1c3,3,6,5,10,7-3,1-4,2-5,3,0,0,3-2,5-3l3,2c-2,3-4,5-4,5l4-4h0l4,2v5-5l1,1c1,2,7,7,8,8ZM48.5,57.5s-1,1-1,2l-14-1h-2c1-1,3-1,4-2,2-1,7-2,7-2-1,0-3,0-6,1-2,1-4,1-5,2,1-2,2-3,3-5l1-1,6,2c2,2,4,3,7,4ZM47.5,59.5v1c-1,0-3,0-5,1,0,0-5-1-7-2h-1,13ZM48.5,63.5v1h-1v-1h1ZM49.5,66.5c0,1,0,2,1,2l-1,1v-2h0v-1ZM50.5,69.5h1l-1,1v-1h0ZM53.5,71.5h0v1l-1,1v-1l1-1ZM68.5,71.5c1,0,1-1,1-1,2,2,4,3,6,5l3,2,2,1c0,.67-.33,1.33-1,2v4c-1-2-2-3-3-5-2-3-3-4-3-5,0,0,2,4,3,7,0,0,0,1,1,1-3-4-6-7-9-11ZM71.5,68.5c.67-.67,1-1.33,1-2,1,1,3,1,4,1v2-1c3,1,4,0,4,0l1,1h-2,3l2,1,3,1-1,1-4,4s3-3,6-5h0l2,1-1,2v6s1-5,2-7v-1l2,1,1,1c1,3,2,5,2,5l-2-6,7,2h1s-1,0-1,1c-1,1-3,2-4,3l-5,5s4-4,6-5c1-1,3-1,4-2-1,1-2,3-2,5-1,3-1,5-1,6l-1,1h-1l-9-6c2-1,3-1,4-2l-4,2-4-3c2-2,4-3,4-3,0,0-2,1-4,3l-4-3v-4,4l-1-1c-2-3-5-6-8-8ZM73.5,64.5v-1l3,1v1c-1-1-2-1-3-1ZM73.5,63.5c0-1,1-2,1-2h3v1l-1,1h-3ZM73.5,58.5v-1l2-1s1,0,1-1h2l-3,3h-2ZM73.5,56.5h0v-1h2l-2,1ZM71.5,52.5l-1-1h2l-1,1ZM68.5,50.5l-1-1h1v1ZM66.5,49.5v-1h1l1,1h-2ZM63.5,47.5h0v-1h1l-1,1ZM61.5,47.5h-1v-2l1,2ZM54.5,73.5l-1,1h1v-1ZM54.5,75.5h-1,1ZM64.5,85.5c1-2,2-3,2-3,0,1-1,2-2,3v5c3,0,5,1,6,1h-6v4c2,1,5,2,5,2-1,0-2-1-5-2,1,4,1,8,2,12v-1l1,1c1,0,2,0,3-1,0,0,1-1,3-1,1-1,3-2,5-2-2-1-3-1-4-2-3,0-8-1-8-1,1,0,3,0,6,1h6c-2-1-3-2-4-3v1-1c-2-3-4-4-4-5l4,4c0-1,1-2,1-4l-1-3c-3,1-6,4-6,4,0-1,2-2,4-4l1-1-1-3c-3,0-7,1-7,1,1-1,3-1,6-1h0l-1-4-1-2c-1,0-1-1-1-1l1,1-1-1s0-1-2-4c0,0,0-1-1-2,0,4-1,8-1,12ZM55.5,77.5h0l-1,1,1,1v-2ZM55.5,81.5l-1-2v1h-1c1,2,1,4,2,5v-4ZM53.5,78.5l-1-1v4l1-2v-1ZM52.5,83.5c0,2,1,3,1,5l1,1v-5c-1-1-1-2-1-3l-1,2ZM53.5,89.5v1-1l-1-1-1-1-1,3c2,0,3,0,4,1v-1l-1-1ZM53.5,87.5c-1,0-1-1-1-2l-1,1,2,1ZM52.5,83.5c-1-2-1-4-1-6l-2,3h1-1v1c-1,1-1,2-2,2,1,1,2,2,4,3l1-3h0ZM47.5,84.5c-1,1-1,3-2,4,.67,0,1,.33,1,1,0,1,0-1-1-1v1-1c-1-1-2-3-4-4l-2,3c1,3,3,5,3,5-1,0-2-2-3-5-2,4-5,7-7,10h0l1,1,4,4c1,1,2,1,2,2,2-1,4-1,5-2-1-1-10-4-10-4,2,0,8,2,11,3-1-1-7-9-7-9,2,1,7,7,8,9h1v-1l1-5-4,2c1,0,2-1,4-2l1-5h-6c1-1,3-1,6,0h1l1-4c-2-1-3-2-4-2ZM45.5,87.5c1-1,1-2,2-4h-1,1v-1l1-1h-4l-2,3h0l3,3ZM48.5,80.5c1-1,1-2,2-3-2,0-4,1-4,2h-1l-1,1h4ZM43.5,80.5h0ZM42.5,81.5c-1,0-2,1-2,1l1,1,1-1,1-1h-1ZM39.5,83.5h0l-1-1c0,1,1,3,1,3v1l2-2h-1l-1-1ZM40.5,82.5l1-1h-3c1,0,1,1,2,1ZM42.5,80.5l2-1h0l1-1s-1,0,1-3h0c-1,0-2,1-3,2-2,1-3,2-5,3h4ZM45.5,75.5h-2l-3,2h1c1-1,3-1,4-2ZM43.5,74.5h-4v1c0,1-1,2-1,4l1-1v-1l4-3ZM39.5,74.5h-3,3v-1c1-2,2-3,3-4h-1l-5,3v1c0,1,0,3,1,5,0-1,1-3,2-4ZM39.5,74.5h4l3-3h0c-1-1-2-1-3-2h-1c0,1-2,3-3,5ZM44.5,74.5h2l2-1-1-1-3,2ZM47.5,74.5h0l1-1h0l-1,1ZM41.5,68.5l-2-2s1,1,3,2c0-1,1-1,2-2s2-1,3-2l-1-1c-3,0-7,1-10,0h-2c2,2,5,4,5,4-1,0-2-1-5-3v-1l-3,1v7s0-4-1-7h-3c-1,3-2,7-2,7,0-1,0-3,1-6h0l-6,1c-1,0-1,1-1,1,0,0,0-1,1-1l-6,1h1l-1,1c0,2,1,4,1,6h0v1c1,2,2,3,3,5,0-2,1-3,1-4v-8c0,1,1,3,1,6,0,2-1,4-1,6,1-2,2-3,4-4,2-3,3-4,4-5,0,0-4,4-5,6,0,1-1,2-2,4l1-1h1l5-3c-2-1-4-1-4-1,1,0,2,0,4,1l4-3c-1-2-3-4-3-4,0,0,2,1,4,4l3-3v-4s0,2,1,4l1-1,4-2h0ZM43.5,69.5l2,1,2,1,2-2h0c-.67-.67-1-1.33-1-2-2,1-3,1-5,2ZM47.5,71.5l2,1v-2l-2,1ZM73.5,55.5c1-1,3-1,4-1l-1-1-3,2ZM72.5,51.5h-1,1ZM71.5,50.5h1l1,1c1-1,2-1,3-1l-1-3v-1c-1,1-2,3-4,4ZM77.5,52.5l1,1v-1h-1ZM74.5,44.5c-1-1-1-2-1-3,0,0,0,1,1,3,1-1,2-2,3-2l4-6v-1,1l9-12h0s-1,0-1-1c-1,0-2-2-3-3-1,0-3,0-6-1-2,0-4-1-5-1,0,1,1,2,2,3,1,2,5,6,5,6-1-1-2-2-5-4-1-2-3-3-4-5h0v1l-2,6c3-1,5-3,5-3-1,1-2,2-5,4l-1,3c3,1,7,1,7,1h-7v3c1,1,3,3,4,3h1s-1,0-1,1h0c-1,0-3,1-5,2l-1,1h0v1h0s0,1-1,2c2,1,5,1,7,1ZM75.5,46.5c1,1,1,2,2,3v1h1c0-1,1-1,1-1v-6h-2s0,1-1,1h0c0,.67-.33,1.33-1,2ZM79.5,52.5h0v-1,1ZM79.5,49.5h0ZM79.5,43.5v-3l-2,3h2ZM79.5,40.5c0,1,1,2,1,3l2,1h4v-1c-1-1-1-2-2-3s-2-2-2-3l-2,2-1,1ZM80.5,44.5v4h2c0-1,1-1,2-1l1-2h-2c-1-1-2-1-3-1ZM80.5,49.5h0l1-1-1,1ZM80.5,50.5h0l1-1-1,1ZM80.5,51.5v1l2-2-2,1ZM87.5,42.5v-1,1l1,2v-4c-1-3-2-7-2-7,0,0,1,2,2,5,0,2,1,4,1,6,1-2,2-3,2-4,1-1,2-3,2-5-2,0-3,0-3-1,1,0,2,1,3,1,0-1,1-2,1-2,0,0,0,1-1,2h3c2,1,4,1,6,1-1-1-3-2-4-4s-2-3-2-4c-2-1-3-2-5-3h-1l-8,11c1,2,2,4,4,5l1,1ZM86.5,43.5v1l1,1-1-2ZM85.5,45.5v2-1h2l-2-1ZM84.5,49.5c-1,1-2,3-3,4l3-1c.67-.67,1-1.33,1-2,1,0,2-2,2-3h-1c0,1-1,1-1,1l-1,1ZM85.5,51.5c1,0,2,0,3-1v-2l-3,3ZM89.5,49.5h1l-1-1v1ZM91.5,48.5h1l-1-1v1ZM93.5,48.5v-1,1l1,1c2,2,7,4,7,4-1,0-3-1-6-3-1,0-2-1-3-2l-1,1,1,2c0,1,1,3,2,4l1,1h-1l1,1h2c0-1,1-2,1-2,0,0,0,1-1,2,3-1,7-1,10-2h-1l1-1v-6c-1-1-1-2,0-3h-1c-1-2-2-4-2-5-1,1-1,3-1,3-1,3-1,8-1,8v-6h0c-1,0-3,0-5,1-1,1-2,1-2,2,0,0,0-1,1-2h-5l2,2ZM90.5,49.5l-1,1v2c-1,1-1,2-1,3h4v-1,1h1s-1-1-1-2c-1-1-1-2-2-4ZM88.5,51.5h-1c-1,1-2,1-3,2l-1,1c1,0,3,1,3,1h2v-4ZM83.5,54.5h-1,1ZM94.5,56.5h-2v2l3-1c-1,0-1-1-1-1ZM92.5,56.5h-4v2h3c1-1,1-2,1-2ZM88.5,56.5c-2,0-5-1-6-1,1,1,2,3,3,3v1-1l-2-2c1,0,2,1,3,2h2v-2ZM85.5,59.5l2,2s-1-1-1-2h-1ZM90.5,63.5c0,1,1,1,1,1h-1l1,1v-6h-5l2,1c0,1,1,2,2,3ZM88.5,62.5c-1,0-1-1-2-2l-2-1c0,.67-.67,1-2,1v3c3,1,5,1,8,2l-2-3ZM83.5,58.5c-1,0-1-1-2-2v2h2ZM82.5,63.5l1,2h4c-1,0-3-1-5-2ZM83.5,65.5c0,2,1,3,1,3h2c1,0,2-1,4-1l-1-1h-1l-5-1ZM84.5,68.5c-1,0-1-1-2-3l-5-1-1,1c2,1,3,2,4,3l3,1,1-1ZM82.5,64.5v-1c-2,0-3-1-3-1,0,0,1,0,2,1h0v-3c-1,0-2,1-3,1,0,0-1,1-1,2l5,1ZM80.5,58.5v-1l-1,1h1ZM78.5,58.5v-1l-1,1h1ZM51.5,51.5l1-1-5-6h-1c1,2,2,3,2,3-1,0-2-1-3-3h-1,1l-1-1c-1-2-2-4-3-5,0,1-1,3-1,4v1l2,2s1,0,4,2c1,1,3,2,5,4ZM54.5,47.5c1-1,2-2,3-2v-1h-5c1,1,2,2,2,3ZM50.5,44.5h-2l4,5c-1-2-2-3-2-5ZM45.5,44.5h2l-4-4s0,1,1,1c0,1,1,2,1,3ZM48.5,44.5h1c0-1-1-2-1-4l-1-1s-1,0-2-1c0,0-2,0-3-1v1l1,1,5,5ZM52.5,44.5c1,0,1-1,2-1h3v-1c-1,0-3-1-3-1-2-1-4-2-6-2h1l3,3s-1-1-3-2h0s1,0,3,3v1ZM47.5,38.5h-1,1ZM46.5,38.5h0l-1-2h-2c1,1,2,1,3,2ZM48.5,38.5c1,0,2,1,4,1,2,1,3,1,5,2v-1l-1-2-1-1c0,1-1,1-1,1l1-1c0-1-1-2-2-3,0,1-2,1-5,2h-2l1,1,1,1ZM53.5,34.5c-1-2-3-3-3-3,1,0,3,2,5,5h1s1-1,1-2l-1-4h-5s3,0,5-1v-4c-3,0-5-1-5-1,1,0,2,0,4,1,0-4-1-7-2-11v1l-1-1c-1,0-4,1-6,1h-6c-1,1-3,2-5,3,4,1,12,0,12,0-2,1-9,2-11,2,1,0,3,1,4,2,2,2,3,3,4,3v-2,2c0,.67.33,1,1,1h-1c0,1-1,2-1,3l-1,2,2,2,1-1c2-1,6-5,6-5l-5,5-2,1,1,2h1c3,0,6-1,7-1ZM56.5,36.5l1,2v-3l-1,1ZM59.5,40.5c0-2,1-3,1-4v-3c-1,0-1,1-2,1v2s1,1,1,4ZM59.5,32.5v-2h-2l1,2v2-1l1-1ZM59.5,29.5v-1,1l2-1c-1,0-2-1-3-1,0-1-1-1-2-1l1,3h2ZM60.5,30.5v1c1,0,1-1,2-2-1,0-2,1-2,1ZM60.5,32.5v2c1,2,1,4,1,6h0c0-1,0-2,1-4,0-2,0-4,1-6l-3,2ZM61.5,40.5l2-2v-5,1c-1,2-2,4-2,6ZM63.5,37.5h1c0-1,1-2,1-3l-1-3v2l-1,4ZM66.5,33.5l1-1-2-2c1,1,1,2,1,3ZM67.5,31.5l1-1-2-1,1,2ZM68.5,30.5l-1,1,1,1h1l1-2h-2ZM67.5,32.5l-1,2,1,1v3l2-5-2-1ZM66.5,34.5l-1,1c0,2-1,3-2,4v2c1-1,3-1,4-1h0v-1c0-1-1-3-1-5ZM62.5,40.5v1h0v-1ZM68.5,39.5c2-1,4-2,6-2-1-1-3-2-5-3h0v2l-1,3ZM67.5,41.5c-2,0-3,1-4,1h0l2,1c1-1,1-2,2-2ZM73.5,44.5h-6c0,1,0,2-1,3,1,1,2,1,3,2,1-2,3-3,4-5ZM65.5,44.5h-2l1,1,1-1ZM62.5,45.5h0ZM92.5,58.5v6c2-2,3-4,4-6h-4ZM97.5,58.5c-1,2-2,5-4,7,2,0,10-5,10-5,0,0-1,1-3,2,0,1,1,3,1,5h2c1-3,2-4,2-5,0,0-1,3-1,5h1-1v6c1-1,2-2,2-3,1-1,2-3,3-4-1-3-1-6-2-9v-1h0l-10,2ZM100.5,62.5l-1,1c-2,1-4,2-5,3,1,0,3,1,4,1h3c-1-2-1-4-1-5ZM103.5,67.5s-1,0-2,1c0,0,1,1,1,2,0,0,0,1,1,2v-5ZM101.5,68.5h-2c-2,0-3,0-5-1,3,3,5,5,8,7-1-2-1-4-1-6h0ZM102.5,74.5l-9-6c0,2,1,3,1,4,2,1,5,2,8,3v-1h0ZM93.5,72.5c-1-1-1-2-1-3l-1,2,2,1ZM90.5,71.5c0-1,0-2,1-2l-3,1,2,1ZM88.5,70.5c0-1,1-1,2-2-2,0-4,1-5,1h-1l4,1ZM63.5,107.5h2v-1,1-1l-1-10c-1,4-1,7-1,11ZM54.5,96.5v1c-1,1-2,2-3,4l3-1h0v-4ZM51.5,102.5h-1c2,0,3,1,4,1v-2c-1,0-2,0-3,1ZM49.5,103.5c2,2,3,3,5,4v-4h-5ZM50.5,102.5h0ZM51.5,101.5c0-1,1-2,1-3,1-1,1-3,2-4v-1l-3,1c-.67,0-1.33.33-2,1-1,2-1,4-2,6l1,1c0-1,2-1,3-1ZM49.5,94.5h0c2-1,4-2,5-2-1-1-3-1-3-1h-1l-1,3ZM39.5,87.5c-1-2-2-3-2-5-1,2-1,3-1,4-1,2-1,5-1,6l4-5ZM34.5,93.5c0-1,0-3,1-5v-6c-1,1-2,2-2,3-3,2-5,6-5,6,0-1,1-3,3-5,1-2,2-3,3-5-1,1-3,1-3,1-2,0-3,1-5,1,3,1,6,1,6,1h-9,2c-2-1-3-1-5-1l4,4c2,3,3,4,3,5,0,0-3-4-5-6l-2-2v4c0,1,1,2,1,3,1,0,2,1,4,2s4,2,6,4h1l2-4ZM26.5,83.5s2-1,3-1c2-1,4-1,5-2-1,0-3-1-3-2h-2c-1,0-2,1-3,2-2,0-4,1-5,2,1,0,3,1,3,1h2ZM29.5,78.5l-2-1c-1,1-3,2-4,3h1c2-1,4-2,5-2ZM28.5,77.5h3-1c2,1,3,1,4,2,0-1-1-3-2-3v-1l-4,2ZM32.5,74.5c1,2,2,3,3,4v-6l-3,2ZM42.5,61.5c-1,0-3,0-6-1-1,0-3,0-5-1,1,1,2,3,2,3h3s1,0,4-1h2ZM33.5,63.5l-3-3v3h3ZM30.5,63.5l-1-2-2,3,3-1ZM27.5,64.5c0-2,0-3,1-4-1,1-3,2-3,2-2,1-3,2-4,3l6-1ZM20.5,65.5c1-1,2-2,3-2,1-2,3-3,4-4h-6v1-1c-2,0-3,1-4,1h-1,1v-8h0v-3c-1,1-2,2-2,3-1,1-2,4-3,5v2c1,2,2,4,2,6v1h0l6-1ZM17.5,59.5h4c0-2-1-4-1-5l-2-1v1c-1,3-1,5-1,5ZM21.5,59.5v-1h6c-1-1-3-2-3-2-1-1-2-2-4-2,1,2,1,4,1,5ZM18.5,53.5h2l-1-1s0-1-1-2v3ZM20.5,53.5l2,1,6,3c-1-1-2-3-2-4s-1-3-2-4c-2-1-3-1-5-2v1c0,1,1,3,1,5ZM24.5,49.5c1,0,1,1,2,2,1,2,2,3,3,5v-4c1,0,1-1,1-2l-6-1ZM30.5,50.5v6l3-3s1-1,1-2l-4-1ZM40.5,43.5v-5l-3,3,2,1,1,1ZM36.5,41.5l1-1s1-1,1-3c-1,1-2,1-3,2h-1l2,2ZM33.5,39.5c2-1,4-2,5-3-1,0-3,0-4-1-2,0-6,0-7-1l6,5ZM27.5,34.5h6c2,1,4,1,5,1-1-1-2-2-2-3-1-1-3-2-4-3v4-4c-1-1-2-1-2-2,0,1,1,1,2,2,0-3,0-6,1-8-2,1-3,2-4,4-1,0-2,1-2,2-1,1-2,3-3,4v1h-1,1l3,2ZM32.5,29.5c1,0,2,1,3,2s3,2,4,3c0-1-1-3-1-4v-1c-1-1-1-2-2-3s-2-3-2-5c-1,3-1,5-2,8ZM37.5,27.5c0-2-1-3-1-3v-1,1c0,1,1,2,1,3ZM36.5,24.5c1,1,2,3,2,5l1,1,1,1c-.67,0-1-.33-1-1,1,2,1,3,1,4l2-3c-2-2-4-5-6-7ZM42.5,30.5h0c1-1,1-3,2-5-2,0-4-2-6-3,0,0-2-1-3-1v1h1l6,8ZM42.5,32.5c0,.67-.33,1.33-1,2l2-1-1-1ZM44.5,34.5l-2,1h2v-1ZM56.5,25.5h1c2,1,4,2,5,2-1-1-2-2-2-3-1-3-4-6-4-6l4,4c1,2,2,3,3,4v-6h-3,3v-3c-2-1-3-1-3-1h3v-1,1h7l-2-2c-2-1-3-2-4-2h-3c-2,1-4,1-6,2h-1l2,11ZM63.5,17.5s0,1,1,3c1-1,2-1,3-2l3-1h-7ZM64.5,20.5v6c1-1,2-2,2-3,1-1,2-3,3-4h-3l-2,1ZM69.5,19.5s0,2-1,3c-1,2-2,4-3,5,1,0,3-1,4-1s1-1,2-1c0-2,1-5,1-7h0c-1,0-2,0-3,1ZM70.5,26.5c-1,1-3,2-4,2,1,0,3,1,4,1h0v-3ZM93.5,35.5c0,1,0,2-1,4l-1,3c1-1,3-2,5-3,1,0,2,0,3-1h1-1,2c-1-1-3-1-3-2-2,0-3-1-5-1ZM91.5,42.5l-1,2,4-2c1-1,2-2,3-2-2,0-4,1-6,2ZM98.5,40.5h-1l2-1-1,1ZM95.5,42.5c-2,1-3,2-4,3h6l3-3c0-1,1-2,2-3h-2v1l-5,2ZM98.5,45.5h4v-5c-1,1-2,2-3,4l-1,1ZM96.5,29.5l4,4,2,2v-3c0-2-1-5-1-6-1,0-2,0-3-1h-5l2,2c3,2,7,4,7,4-1,0-3-1-6-2h0ZM101.5,25.5c-1,0-1-1-1-1l1,1c2,0,3,1,3,1h-3c0,1,1,2,1,4,1,2,1,4,1,5,1-1,2-2,2-3,2-3,3-7,3-7,0,0-1,2-2,6,0,1-1,3-1,5,1-1,2-2,3-2,2-2,6-5,6-5,0,1-2,2-4,4s-3,3-5,4h4c3,0,8-1,8-1-1,1-3,1-6,1-2,1-4,1-6,1,1,1,3,2,3,2,2,2,4,3,6,4h1-1c-1,2-2,3-3,5s-1,3-2,5c2-2,8-6,10-6-1,0-8,5-8,6h2c3-1,7-3,7-3,0,1-2,2-5,3-1,0-3,1-4,1,1,1,10,2,10,1-2,1-8,1-11,0,1,2,9,6,9,6-2-1-7-3-9-5,0,2,5,9,6,9-2-1-6-6-7-8v7l1-1s0,1-1,2c1,1,1,3,1,3,0-.67-.33-1.67-1-3,0,1-1,2-1,3-1,2-2,3-3,5,1-1,3-2,5-2,3-2,5-2,6-2,0,0-5,1-7,3-1,0-3,1-4,2,2,0,3,1,4,1,3,1,7,1,7,1h-6c-1,0-3-1-5-1,1,1,2,2,2,3,2,2,6,5,6,5,0,0-2-1-5-4-1-1-3-2-4-3v4h0c1,0,2-1,2-1,0,0-1,1-1,2v3c2-2,3-2,4-2l-4,2,1,2c2-1,4-1,4-1-1,1-2,1-4,1v1-1c-1,0-1,1-2,1-2,1-3,1-4,2,1,0,3,0,5,1,3,1,5,1,6,2,0,0-5-2-8-2h-2c0,1,1,1,2,1,2,2,7,4,7,4-1,0-3-1-6-2-1-1-3-1-4-2,0,1,1,2,1,2,2,3,5,6,5,6l-4-4c-1-1-2-2-3-4v3c1,3,3,8,2,8,0-1-1-3-2-6,0-1-1-3-1-4-1,1-1,2-1,3-1,3-1,7-1,7v-6c0-1,0-3,1-5l-3,3c-1,1-3,4-4,5h3s-1,0-3,1h-3c-1,1-3,1-5,1,1,1,3,2,3,2,3,2,7,3,7,3,0,0-2,0-5-1-2-1-4-2-5-2,0,1,1,2,1,3,2,3,5,6,5,6-1,0-2-2-4-4-1-2-3-3-3-5-1,2-1,3-1,4,0,3,1,8,1,8-1-1-1-3-1-6-1-2-1-4-1-6l-1,2h1-2v1l-2,2c2,0,4,1,4,1,0,0-2,0-4-1l-1,2,4,2c-1,0-2-1-4-2-1,2-1,3-1,3,0-1,0-2,1-3h-2c-2-1-3-2-4-2,1,1,2,3,3,4,2,3,3,5,3,6,0,0-3-4-4-7-1,0-2-1-2-2v3c1,3,3,7,2,7,0,0-1-2-2-5-1-2-1-3-2-5v3c-1,3-1,8-1,8v-11c0,1-1,2-2,3h0c5,54,1,102,22,141h-10c-17-40-12-70-21-146-2-1-4-3-6-4,1,2,4,9,4,11,0,0-4-9-5-10-1,1-2,11-2,11,0-2,0-9,1-11-2,1-8,8-8,8,1-2,5-7,7-9h-5c1,1,1,2,2,2-1,0-1-1-3-2-.67.67-1.33,1-2,1,1,2,2,3,2,4,0,0-1-2-3-4l-1,1c0,2,1,4,1,4-1-1-1-2-2-4h0v-2c-1-1-2-3-2-4,0,2-1,4-1,6-1,3-2,5-2,5,0,0,1-4,1-7v-3c0,1-1,2-1,2-2,3-3,7-3,7,0-1,0-3,2-6,0-1,1-2,2-4-1,1-2,2-3,2l-5,5c0-1,1-2,3-5,2-1,3-2,4-3-1,0-3,1-3,1-3,0-7,2-7,2,0,0,2-1,5-2,2-1,3-2,5-2-2,0-3-1-3-1-3,0-8,0-8-1h6c2,1,3,1,5,1-1-1-2-2-3-2-1-2-4-3-5-4,1,2,1,4,1,4l-2-4v-1,1-2c-1-1-1-3-1-5-1,1-2,3-2,4-1,2-2,7-2,7,0-1,0-3,1-6,0-2,1-4,1-5-1,0-2,1-3,2-2,1-6,5-6,5,1-1,2-2,4-5,2-1,3-2,5-3h-4c-3,0-8,1-8,1,1,0,3-1,6-2h6c-1-1-3-2-4-3,0,0-1-1-2-1v2-2c-.67-.67-1.33-1-2-1-1,1-1,2-1,2,0-1,0-2,1-2l-2-1h2c0-1,1-2,1-3,1-2,2-3,2-4-1,1-3,2-5,3-2,2-4,3-5,3,0,0,4-3,6-5,1,0,2-1,3-2-1,0-3,1-3,1-3,0-7,2-7,2,0,0,2-1,5-2,2-1,3-1,4-2h-2c-3-1-8-1-8-1h11c-1-1-2-1-3-2-2-1-7-3-7-3,1,0,3,0,6,2,1,0,3,1,4,2,0-1-1-2-1-3-2-2-5-6-5-6,0,1,2,2,4,4,1,2,2,3,3,4v-6l-1,1v-2c0-2-1-3,0-3,0,0,0,1,1,3,0-1,1-2,1-4,1-2,2-3,3-5-1,1-3,2-5,3-3,1-5,2-6,2,0,0,5-2,7-4,1,0,2-1,4-2-2,0-3,0-4-1H4.5c1,0,3-1,6,0h6l-3-3c-2-2-6-4-6-4,1,0,2,1,5,3,2,1,3,2,5,3-1-1-1-3-1-4h0c-1,0-2,1-2,1l2-2c0-1-1-2-1-3-2,2-3,2-3,2,0,0,1-1,3-2l-1-2c-2,1-4,1-4,1,1,0,2,0,4-1v-1l1,1s0-1,1-1c2-1,3-1,4-2-2,0-9-1-11-2,0,0,8,1,10,1-1-1-8-5-9-5,2,1,8,3,10,4,0-2-7-8-7-8,2,1,6,6,8,8,0-2,0-3-1-4,0-2-2-7-2-7,0,1,1,2,3,6,0,1,1,3,1,4,0-1,1-2,1-3v-3c-1,0-2,1-2,1l2-2c1-2,1-3,1-3v3c2-1,5-2,7-3-1-1-11-3-11-3,2,0,9,1,11,2,0-1-7-8-7-8,2,1,6,5,8,7,1-1-2-11-2-11,1,2,3,8,3,11,1-1,6-10,6-10-1,2-3,8-4,10,3-1,5-3,8-5-1,0-2-1-3-1,0,0,2,0,4,1v-1,1h5-1c-3-2-7-4-7-4,2,0,3,2,6,3,2,0,3,1,4,1-1-1-2-3-3-4-2-3-3-5-3-6,0,0,3,4,5,7l2,2c-1-1-1-2-1-3-1-3-3-7-2-7,0,0,1,2,2,5,1,2,1,3,2,4v-2c1-3,0-8,1-8v11c1-1,1-2,2-3,1-2,3-7,3-7,0,1-1,3-2,6-1,1-1,3-2,4,1,0,2-1,3-1,2-2,5-5,6-5-1,0-2,2-5,4l-3,3h3c1,0,3,0,4-1-1,0-2-1-2-1,0,0,1,1,3,1,1,0,2-1,2-1,0,1-1,1-2,1,.67.67,1.33,1,2,1,2,1,4,2,5,3-1-1-2-3-2-5-2-3-2-5-2-6,0,0,1,5,3,7,0,1,2,2,2,3,1-1,1-3,1-3,1-3,1-8,1-8v12c0-1,2-3,2-3,2-2,5-6,5-6-1,0-1,2-3,5-1,2-3,3-4,4h4c2,0,4-1,6-2v-1,1h2-2c1,2,2,4,4,6,0,0,0,1,1,1,0-1-1-1-1-2-1-2-1-7-1-7,1,2,0,3,2,6,0,2,1,3,1,4,1-1,1-3,2-5,0-3,1-5,1-6,0,0-1,5-1,8v3c0-1,1-2,1-2,2-3,4-7,4-7,0,0-1,2-2,5-1,2-2,3-2,4l2-1c2-2,6-5,6-5,0,1-2,2-4,4l-4,4c1-1,3-1,3-1,3,0,7-2,8-2-1,0-3,1-6,2-1,1-3,1-5,2h3c2,1,3,1,5,1ZM114.5,44.5c-1,0-3-1-5-2-1-1-3-2-4-3,0,1,1,3,1,4,0,0,0,1,1,1v-2,3c0,1,1,2,2,3h0c1-3,1-5,2-5,0,0-2,3-2,6v1-1,2l1-1c1-2,3-5,4-6ZM109.5,49.5c-1-1-1-2-2-3v4s1,1,1,2c0-1,0-2,1-3ZM70.5,106.5h6l2-2c-1,0-3,1-3,1-2,0-3,1-5,1ZM76.5,107.5h-4c-1,0-2,0-2,1h3l2,1v-1l1-1ZM75.5,109.5h-5,2c0,1,1,1,2,2l1-2ZM90.5,100.5c1-1,1-2,3-4,1-2,2-4,3-5v-1h1-1l-8-7-2,1c-1,1-3,1-5,2,1,0,3,1,4,1,2,1,7,2,7,2,0,0-2,0-6-1-2,0-4,0-5-1l2,3v-1,1c2,3,6,5,6,5-1,0-3-1-5-3l-1-1c0,1,0,2-1,4v4-1c-1,1-1,2-1,3l4-4c3-1,5-2,6-2,0,0-4,2-7,4l-2,2h4c1,0,3,0,4-1ZM83.5,91.5l-3-3v4c1,1,1,3,1,4,1-1,2-4,2-5ZM81.5,97.5c0-1-1-2-1-3,0-2-1-4-1-6l-2,3c0,1,1,2,1,4,1,1,1,3,2,5l1-3ZM77.5,92.5c-1,0-1,1-1,1l2,5v-1c0-2-1-4-1-5ZM76.5,94.5c-1,1-1,2-2,3,.67.67,1.33,1,2,1,0,1,2,2,3,2l-1-1h0l-2-5ZM76.5,92.5v-3,1l2-2c-2,0-3,1-4,1l2,3ZM74.5,89.5c1-1,2-2,3-2-1,0-3-1-4-1h0l1,3ZM72.5,86.5h5c-2-1-3-2-5-3l-2-2,2,5ZM15.5,75.5v4c.67.67,1.33,1,2,1,0-1-1-2-1-3-.67-.67-1-1.33-1-2ZM15.5,79.5c0-1-1-3-1-5,0-1-1-1-1-2v2c-1,1-1,3-1,4h0l3,1ZM14.5,73.5v-1s0-1-1-2v2l1,1ZM11.5,77.5c1-1,1-3,1-5v-1h0l-1,1c0,2-1,3-2,4,1,1,2,1,2,1ZM24.5,23.5v1c0,2,0,4-1,6l1-2v1s0-1,1-1l1-1c1-2,3-5,3-6-2,0-3,1-5,2ZM30.5,21.5c-1,1-1,2-3,4,1,0,2-1,2-2,1,0,2-2,2-3l-1,1ZM40.5,15.5c1,0,5,0,8-1,0,0,1,0,2-1h-4c-1,0-2-1-2-1-1,1-2,2-4,3ZM99.5,87.5l3-3c1-1,1-2,2-2-1-2-1-3-1-5-1,1-2,3-2,4-1,2-2,5-2,6ZM104.5,82.5c-1,1-2,3-3,4,0,0-1,1-1,2,1-1,2-2,3-2l2-1c0-1-1-2-1-2v-1ZM105.5,85.5c-1,1-2,1-3,2,0,0,0,1-1,1h2c1-1,2-1,2-1v-2ZM39.5,104.5l-3-3c-.67,0-1.33-.33-2-1,1,1,1,3,2,4l1,1c0-1,1-1,2-1ZM36.5,105.5c0-1-1-2-2-2,0-.67-.33-1.33-1-2,1,1,1,2,1,2,0,1,0,2,1,2h1ZM15.5,35.5v2c1-1,2-1,3-2,0,0,0-1,1-1h-2c-.67.67-1.33,1-2,1ZM16.5,37.5v3c1-1,2-3,3-4,0,0,1-1,1-2l-3,3h-1ZM16.5,40.5c1,2,1,3,2,5,0-2,1-3,1-4,1-2,2-6,2-7,0,1-2,3-3,4,0,1-1,1-2,2ZM84.5,13.5c-1,1-2,1-4,2s-3,1-5,2c1,0,3,1,3,1,3,1,6,2,7,2v-1c-3-2-4-4-4-4,0,0,3,3,6,5l1,1c0-1-1-2-2-3-1-2-2-4-2-5ZM80.5,78.5v6l3-3-1-2-2-1ZM84.5,81.5l-1,1c0,1-1,2-2,3,1-1,3-1,3-1,1,0,2-1,3-1l-3-2ZM63.5,108.5v1l1-1h-1ZM63.5,110.5v1l1-1h-1Z"/>
</svg>