<?xml version="1.0" encoding="UTF-8"?>
<svg id="Layer_1" xmlns="http://www.w3.org/2000/svg" version="1.1" viewBox="0 0 72.78 83.64">
  <!-- Generator: Adobe Illustrator 30.6.0, SVG Export Plug-In . SVG Version: 2.1.4 Build 109)  -->
  <defs>
    <style>
      .st0 {
        opacity: .8;
      }

      .st1 {
        fill: #8c2746;
        stroke: #8c2746;
        stroke-linecap: round;
        stroke-linejoin: round;
      }
    </style>
  </defs>
  <g class="st0">
    <path class="st1" d="M6.15,78.47l-1.3-1.26C28.52,52.8,41.96,26.27,42.1,26l1.62.81c-.13.27-13.69,27.03-37.57,51.65h0Z"/>
    <path class="st1" d="M42.69,27.29c-.47-.12-11.47-3.05-14.48-20.34l1.78-.31c2.81,16.15,13.03,18.87,13.13,18.9l-.44,1.76h0Z"/>
    <path class="st1" d="M42.17,26.94c-.38-.53-9.27-12.96-5.81-22.03l1.69.64c-3.11,8.17,5.5,20.2,5.58,20.32l-1.47,1.06h.01Z"/>
    <path class="st1" d="M42.03,26.65c-.14-.49-3.22-12.17,5.31-26.15l1.54.94c-8.12,13.32-5.14,24.61-5.11,24.73l-1.75.48h0Z"/>
    <path class="st1" d="M43.6,27.34c-.45,0-.71-.02-.76-.02l.14-1.81c.1,0,9.29.58,25.11-7.24l.8,1.62c-13.9,6.87-22.72,7.45-25.29,7.45Z"/>
    <path class="st1" d="M43.76,26.72l-1.71-.6c.09-.26,1.1-2.79,8.8-10.92l1.32,1.25c-7.39,7.79-8.37,10.18-8.41,10.27Z"/>
    <path class="st1" d="M60.27,34.6c-14.01,0-17.99-7.43-18.17-7.77l1.61-.83-.8.41.8-.42c.17.32,4.31,7.85,19.72,6.67l.14,1.81c-1.16.09-2.26.13-3.31.13h.01Z"/>
    <path class="st1" d="M56.36,28.03c-7.62,0-13.47-.71-13.56-.72l.22-1.8c.15.02,15.64,1.9,28.93-.53l.33,1.78c-5.32.97-10.98,1.27-15.91,1.27h0Z"/>
    <path class="st1" d="M2.04,83.14c-.94-.19-1.42-.88-1.42-.88-.67-2.3,1.52-3.72,4.16-6.74,2.04-2.33,5.55-3.72,10.14-9.24,2.03-1.19,3.53-1.61,1.11,1.15-6.86,7.63-5.64,8.1-8.42,11.27-1.95,2.23-4.02,4.54-5.57,4.44h0Z"/>
  </g>
</svg>