<?xml version="1.0" encoding="UTF-8"?>
<svg id="Layer_1" xmlns="http://www.w3.org/2000/svg" version="1.1" viewBox="0 0 78.9 81.67">
  <!-- Generator: Adobe Illustrator 30.6.0, SVG Export Plug-In . SVG Version: 2.1.4 Build 109)  -->
  <path fill="#992246" d="M45.36.42c.24,0,.48.18.55.41.03.11.1.33-.17,1.38l-.37,1.39c-.84,3.16-2.6,9.73-2.78,11.97-.19,2.2-.59,6.78.74,11.25.1.33.21.65.32.97.02-.7.04-1.47.06-2.34.25-7.53,5.32-24.35,5.53-25.07.08-.28.37-.44.65-.36.28.08.45.36.38.64-5.28,21.8-5.04,26.66-4.75,29.04,2.21-6.91,6.52-18.75,12.6-28.08.15-.24.47-.31.72-.17.25.15.34.46.2.71-.07.13-6.81,12.95-10.1,23.05-.4,1.21-.76,2.29-1.08,3.25,3.77-5.07,10.97-14.48,16.67-20.62.19-.21.51-.23.73-.05.22.18.26.5.09.73-.02.02-1.65,2.25-3.94,4.92-2.23,2.58-8.07,10.08-11.04,14.13,3.96-3.85,9.56-9.1,14.44-13.06,4.18-3.38,4.2-3.37,4.56-3.26.17.05.31.19.36.36q.12.42-3.99,4.06l-.84.74c-2.68,2.38-12.48,11.23-15.83,14.57,4.96-2.62,13.74-7.34,17.04-9.62,2.35-1.62,2.52-1.56,2.79-1.47.16.06.3.2.35.36.09.3.2.67-3.18,2.94-1.91,1.29-6.01,3.75-9.82,5.93,4.76-2.1,11.53-5.3,21.05-10.15.26-.13.58-.03.72.23.14.26.04.58-.22.72-.83.45-18.14,9.88-25.82,13.11,5.26-.3,9-1.13,12.95-2,1.27-.28,2.57-.57,3.97-.85,2.16-.44,4.51-1.01,6.23-1.44q2.78-.68,2.94-.15t-5.01,2.3c-5.91,1.97-13.02,3.23-18.81,3.81,5.69.38,12.78-.08,16.92-.34h.13c1.05-.08,2.25-.17,3.35-.25q4.09-.31,4.24.18c.04.15.02.31-.06.45-.19.29-.22.34-6.98,1.3-8.85,1.26-18.39.39-23.29-.24.18.2.36.4.55.61,4.88,3.17,9.65,4.29,11.99,4.84,2.1.49,8.38.72,11.75.85.68.02,1.24.04,1.61.06,1.6.07,1.79.31,1.89.62.05.16,0,.37-.1.51-.19.25-.52.67-10.1.23-6.08-.28-10.52-1.8-13.71-3.37,4.3,4.45,11.4,10.69,15.72,13.44,3.54,2.24,5.41,3.63,5.56,4.12.06.21-.02.48-.19.61-.33.27-.52.41-5.2-2.24-7.18-4.07-19.86-17.14-22.05-19.66l-.71-.49s-.52-.48-.92-.89c-.11.07-.24.13-.38.19-.86.32-1.49.66-6.26,5.01-4.49,4.08-11.6,11.63-15.94,17.59-3.47,4.76-8.55,9.93-10.44,11.81.09.16.17.34.22.52.18.6.08,1.2-.33,1.89-.74,1.26-2.34,3.07-4.14,4.07-.88.49-1.44,1.15-2.14,1.98-.6.71-1.28,1.51-2.32,2.41-1.09.94-1.74,1.26-2.26,1.11-.17-.05-.47-.2-.6-.63-.12-.39-.06-.9.02-1.48.19-1.41,1.9-4.41,3.06-6.04,1.27-1.77,4.73-4.79,5.81-5.34.55-.28,1.11-.23,1.6.12,2.82-2.75,7.85-8.23,10.28-11.65,2.78-3.92,12.16-14.44,15.94-17.88,2.47-2.24,4.97-4.01,6.27-4.85-4.72-2.8-14.07-10-19.17-15.89-2.38-2.76-2.4-2.82-2.46-3h0c-.07-.23.03-.49.24-.62q.39-.24,2.01,1.34c.99.97,2.35,2.3,3.69,3.5.9.8,1.72,1.57,2.53,2.33,2.75,2.55,5.34,4.96,10.02,8.18.35.24.67.46.98.68-1.76-2.55-3.95-6.24-5.15-10.27-.28-.94-.5-1.87-.65-2.76-.78-4.6-.74-4.61-.15-4.74.57-.13.68.25,1.15,1.83l.39,1.33c.12.41.25.82.37,1.2l.03.1c.67,2.11,1.87,5.84,3.5,9-.47-1.29-.89-2.58-1.28-3.87-2.93-9.82-2.5-16.16-2.48-16.43.02-.28.25-.49.53-.49.28,0,.51.21.53.49.42,5.18,1.36,10.21,2.82,15-.06-3.17.42-6.67,1.45-10.57C44.54.44,44.91.43,45.36.42Z"/>
</svg>