<?xml version="1.0" encoding="UTF-8"?>
<svg id="Layer_1" xmlns="http://www.w3.org/2000/svg" version="1.1" viewBox="0 0 65.29 83.69">
  <!-- Generator: Adobe Illustrator 30.6.0, SVG Export Plug-In . SVG Version: 2.1.4 Build 109)  -->
  <defs>
    <style>
      .st0 {
        fill: #6b1831;
        stroke: #6b1831;
        stroke-linecap: round;
        stroke-linejoin: round;
        stroke-width: .5px;
      }

      .st1 {
        opacity: .9;
      }
    </style>
  </defs>
  <g class="st1">
    <path class="st0" d="M6.03,76.94l-1.66-.9c15.22-28.05,26.97-51.69,27.09-51.92l1.69.84c-.12.24-11.88,23.9-27.12,51.99h0Z"/>
    <path class="st0" d="M32.15,25.47c-.39-.07-9.54-1.72-13.32-8.72-2.26-4.18-2.08-9.33.52-15.29l1.73.75c-2.36,5.4-2.56,10-.59,13.64,3.35,6.21,11.89,7.74,11.98,7.76,0,0-.32,1.86-.32,1.86Z"/>
    <path class="st0" d="M31.89,25.39c-.14-.07-13.62-6.83-9.25-20.73l1.8.56c-3.89,12.37,7.78,18.22,8.28,18.47l-.83,1.69h0Z"/>
    <path class="st0" d="M33.12,24.06l-1.62.96c-.22-.38-5.45-9.41-.13-24.77l1.78.61c-5.01,14.48-.08,23.11-.03,23.19h0Z"/>
    <path class="st0" d="M32.96,25.22l-1.3-1.36s4.75-4.59,10.07-12.94l1.59,1.01c-5.45,8.55-10.16,13.09-10.36,13.28h0Z"/>
    <path class="st0" d="M33.25,24.52l-1.88.05c0-.33-.16-8.09,3.76-14.09l1.58,1.03c-3.6,5.51-3.46,12.94-3.46,13.01Z"/>
    <path class="st0" d="M61.52,23.12c-15.61,7.23-28.97,2.51-29.53,2.31l.64-1.77c.13.05,13.23,4.64,28.1-2.25,0,0,.79,1.71.79,1.71Z"/>
    <path class="st0" d="M44.6,21.32c-8.86,5.29-12.2,4.28-12.65,4.1l.67-1.76s5.27,1.48,20.98-10.98l1.17,1.48c-4,3.17-7.37,5.49-10.18,7.16h.01Z"/>
    <path class="st0" d="M32.31,24.54"/>
    <path class="st0" d="M65.04,30.33c-21.21,8.75-33.33-5.04-33.45-5.18l1.43-1.23c.46.53,11.39,12.88,31.3,4.66l.71,1.74h.01Z"/>
    <path class="st0" d="M2.29,83.44c-1,.03-1.65-.55-1.65-.55-1.22-2.17.63-4.14,2.59-7.83,1.51-2.85,4.72-5.1,8.04-11.79,1.77-1.68,3.19-2.48,1.4.9-5.1,9.37-3.76,9.54-5.81,13.43-1.44,2.72-2.97,5.56-4.56,5.84h-.01Z"/>
  </g>
</svg>