<?xml version="1.0" encoding="UTF-8"?>
<svg id="Layer_1" xmlns="http://www.w3.org/2000/svg" version="1.1" viewBox="0 0 183.11 339.08">
  <!-- Generator: Adobe Illustrator 30.6.0, SVG Export Plug-In . SVG Version: 2.1.4 Build 109)  -->
  <defs>
    <style>
      .st0 {
        fill: #992246;
        stroke: #992246;
        stroke-linecap: round;
        stroke-linejoin: round;
      }

      .st1 {
        opacity: .82;
      }
    </style>
  </defs>
  <g class="st1">
    <path class="st0" d="M18.08,312.99l-6.53-1.97C56.07,164.22,84.43,95.53,84.71,94.89l6.28,2.62c-.28.68-28.52,69.09-72.92,215.49Z"/>
    <path class="st0" d="M87.17,99.52c-1.45-.28-35.37-7.73-63.09-59.06l6-3.22c26.06,48.3,58.13,55.55,58.45,55.59l-1.37,6.69Z"/>
    <path class="st0" d="M89.87,93.44l-4.03,5.52c-1.77-1.33-43.67-32.75-42.74-98.46l6.81.08c-.85,62.24,39.56,92.58,39.96,92.9v-.04Z"/>
    <path class="st0" d="M90.84,94.53l-5.92,3.3c-.4-.73-10.23-18.69-5.88-64.3l6.77.64c-4.11,43.11,4.96,60.15,5.04,60.31v.04Z"/>
    <path class="st0" d="M177.41,50.37c-43.67,33.2-88.02,48.91-88.47,49.03l-2.26-6.45c.44-.16,43.79-15.51,86.57-48.02,0,0,4.15,5.44,4.15,5.44Z"/>
    <path class="st0" d="M132.94,57.22c-29.97,17.28-41.94,40.25-42.06,40.49l-6.08-3.06c.52-1.01,12.89-24.98,44.72-43.31l3.42,5.92v-.04Z"/>
    <path class="st0" d="M182.57,90.78c-59.14,27.72-94.83,9.19-96.32,8.38l3.22-6c.32.16,34.4,17.6,90.24-8.58l2.9,6.16-.04.04Z"/>
    <path class="st0" d="M181.84,70.96c-66.79,40-94.23,28.84-95.36,28.36l2.66-6.24c.24.12,26.06,9.87,89.15-27.92l3.5,5.84.04-.04Z"/>
    <path class="st0" d="M88.38,99.56c-1.73.28-42.46,6.28-78.52-34.32l5.08-4.51c33.56,37.91,71.95,32.23,72.35,32.15l1.09,6.73v-.04Z"/>
    <path class="st0" d="M9.02,25.72c20.95,55.96,78.88,66.99,79.44,67.12l1.61.28.81,1.45c.81,1.49,19.94,35.93,77.31,13.05l2.54,6.32c-56.4,22.52-80.29-7.61-85-14.74-9.71-2.22-62.72-16.72-83.07-71.1"/>
    <path class="st0" d="M9.26,338.37c-3.55.77-6.24-.89-6.24-.89-5.76-6.89-.44-15.11,4.15-29.53,3.5-11.12,13.5-21.19,20.91-47.17,5.24-7.13,9.75-10.92,5.56,2.3-12.05,36.66-7.17,36.38-11.92,51.57-3.34,10.64-6.97,21.71-12.45,23.73Z"/>
  </g>
</svg>